<svg id="Layer_4" data-name="Layer 4" xmlns="http://www.w3.org/2000/svg" viewBox="0 0 1733 563.6"><defs><style>.cls-1{fill:none;stroke:#000;stroke-miterlimit:10;stroke-width:6px;}</style></defs><rect class="cls-1" x="3" y="3" width="1032" height="501.5"/><path d="M377.363,287.558a41.689,41.689,0,0,1,7.683-.645c4.279,0,7.039.782,8.971,2.53a7.725,7.725,0,0,1,2.438,5.889,8.141,8.141,0,0,1-5.842,7.913v.138c2.392.828,3.818,3.036,4.554,6.257,1.012,4.324,1.749,7.315,2.393,8.511h-4.141c-.506-.874-1.2-3.543-2.07-7.407-.92-4.279-2.577-5.889-6.211-6.027h-3.772v13.434h-4Zm4,14.123h4.094c4.278,0,6.993-2.346,6.993-5.889,0-4-2.9-5.75-7.131-5.8a16.465,16.465,0,0,0-3.956.368Z" transform="translate(-56 -255.68)"/><path d="M404.411,307.754c.092,5.475,3.589,7.728,7.637,7.728a14.64,14.64,0,0,0,6.164-1.149l.691,2.9a18.039,18.039,0,0,1-7.407,1.38c-6.855,0-10.95-4.508-10.95-11.225s3.957-12.008,10.444-12.008c7.269,0,9.2,6.4,9.2,10.49a15.268,15.268,0,0,1-.138,1.886Zm11.869-2.9c.046-2.576-1.058-6.579-5.613-6.579-4.094,0-5.888,3.773-6.21,6.579Z" transform="translate(-56 -255.68)"/><path d="M441.074,317.323a14.916,14.916,0,0,1-6.4,1.288c-6.717,0-11.087-4.554-11.087-11.363,0-6.855,4.693-11.824,11.961-11.824a13.533,13.533,0,0,1,5.613,1.15l-.92,3.129a9.389,9.389,0,0,0-4.693-1.058c-5.106,0-7.866,3.772-7.866,8.418,0,5.153,3.312,8.328,7.729,8.328a11.518,11.518,0,0,0,4.968-1.1Z" transform="translate(-56 -255.68)"/><path d="M447.789,307.754c.092,5.475,3.588,7.728,7.637,7.728a14.64,14.64,0,0,0,6.164-1.149l.691,2.9a18.042,18.042,0,0,1-7.407,1.38c-6.855,0-10.95-4.508-10.95-11.225s3.957-12.008,10.444-12.008c7.269,0,9.2,6.4,9.2,10.49a15.268,15.268,0,0,1-.138,1.886Zm11.869-2.9c.046-2.576-1.058-6.579-5.613-6.579-4.094,0-5.888,3.773-6.21,6.579Z" transform="translate(-56 -255.68)"/><path d="M473.088,289.627a2.507,2.507,0,0,1-5.014,0,2.467,2.467,0,0,1,2.53-2.53A2.4,2.4,0,0,1,473.088,289.627Zm-4.508,28.524V295.884h4.048v22.267Z" transform="translate(-56 -255.68)"/><path d="M480.908,295.884l4.37,12.514a56.944,56.944,0,0,1,1.795,5.7h.137c.507-1.841,1.151-3.681,1.887-5.7l4.324-12.514h4.233l-8.741,22.267h-3.865l-8.465-22.267Z" transform="translate(-56 -255.68)"/><path d="M503.264,307.754c.091,5.475,3.588,7.728,7.636,7.728a14.642,14.642,0,0,0,6.165-1.149l.69,2.9a18.035,18.035,0,0,1-7.407,1.38c-6.854,0-10.949-4.508-10.949-11.225s3.956-12.008,10.443-12.008c7.269,0,9.2,6.4,9.2,10.49a15.268,15.268,0,0,1-.138,1.886Zm11.869-2.9c.046-2.576-1.058-6.579-5.613-6.579-4.094,0-5.889,3.773-6.21,6.579Z" transform="translate(-56 -255.68)"/><path d="M543.285,285.487V312.4c0,1.978.047,4.233.184,5.751h-3.634l-.184-3.864h-.092a8.236,8.236,0,0,1-7.591,4.37c-5.383,0-9.523-4.554-9.523-11.317-.046-7.407,4.555-11.962,9.983-11.962,3.4,0,5.705,1.61,6.717,3.405h.092v-13.3Zm-4.048,19.46a7.146,7.146,0,0,0-.184-1.7,5.954,5.954,0,0,0-5.843-4.692c-4.186,0-6.67,3.68-6.67,8.6,0,4.508,2.208,8.235,6.578,8.235a6.086,6.086,0,0,0,5.935-4.831,7.031,7.031,0,0,0,.184-1.748Z" transform="translate(-56 -255.68)"/><path d="M563.892,290.548h-9.431v-3.4h22.956v3.4H567.94v27.6h-4.048Z" transform="translate(-56 -255.68)"/><path d="M578.657,302.831c0-2.622-.046-4.876-.184-6.947h3.542l.138,4.371h.184a6.682,6.682,0,0,1,6.165-4.877,4.378,4.378,0,0,1,1.15.138v3.819a6.081,6.081,0,0,0-1.38-.138c-2.853,0-4.877,2.162-5.429,5.2a11.372,11.372,0,0,0-.184,1.886v11.869h-4Z" transform="translate(-56 -255.68)"/><path d="M605.8,318.151l-.322-2.806h-.139a8.293,8.293,0,0,1-6.808,3.312c-4.509,0-6.809-3.175-6.809-6.395,0-5.383,4.784-8.327,13.387-8.281v-.46c0-1.84-.5-5.152-5.06-5.152a11.1,11.1,0,0,0-5.8,1.656l-.92-2.669a13.821,13.821,0,0,1,7.315-1.978c6.809,0,8.465,4.647,8.465,9.109v8.327a31.352,31.352,0,0,0,.368,5.337Zm-.6-11.363c-4.417-.092-9.431.69-9.431,5.014a3.583,3.583,0,0,0,3.818,3.865,5.541,5.541,0,0,0,5.383-3.727,4.255,4.255,0,0,0,.23-1.288Z" transform="translate(-56 -255.68)"/><path d="M615.641,301.911c0-2.3-.046-4.186-.184-6.027h3.588l.23,3.681h.093a8.188,8.188,0,0,1,7.361-4.187c3.082,0,7.866,1.84,7.866,9.477v13.3h-4.048V305.315c0-3.588-1.335-6.578-5.153-6.578a5.751,5.751,0,0,0-5.428,4.14,5.819,5.819,0,0,0-.277,1.886v13.388h-4.048Z" transform="translate(-56 -255.68)"/><path d="M640.619,314.01a10.609,10.609,0,0,0,5.336,1.611c2.944,0,4.325-1.473,4.325-3.313,0-1.932-1.151-2.99-4.141-4.094-4-1.426-5.889-3.635-5.889-6.3,0-3.588,2.9-6.533,7.683-6.533a11.117,11.117,0,0,1,5.475,1.38L652.4,299.7a8.666,8.666,0,0,0-4.555-1.288c-2.392,0-3.726,1.38-3.726,3.036,0,1.84,1.334,2.668,4.232,3.773,3.864,1.472,5.843,3.4,5.843,6.716,0,3.911-3.036,6.671-8.327,6.671a12.7,12.7,0,0,1-6.257-1.518Z" transform="translate(-56 -255.68)"/><path d="M671.715,318.151l-.321-2.806h-.139a8.291,8.291,0,0,1-6.808,3.312c-4.509,0-6.809-3.175-6.809-6.395,0-5.383,4.784-8.327,13.388-8.281v-.46c0-1.84-.507-5.152-5.061-5.152a11.1,11.1,0,0,0-5.8,1.656l-.919-2.669a13.812,13.812,0,0,1,7.314-1.978c6.809,0,8.465,4.647,8.465,9.109v8.327a31.352,31.352,0,0,0,.368,5.337Zm-.6-11.363c-4.417-.092-9.432.69-9.432,5.014a3.584,3.584,0,0,0,3.819,3.865,5.539,5.539,0,0,0,5.382-3.727,4.2,4.2,0,0,0,.231-1.288Z" transform="translate(-56 -255.68)"/><path d="M697.43,317.323a14.91,14.91,0,0,1-6.394,1.288c-6.717,0-11.088-4.554-11.088-11.363,0-6.855,4.692-11.824,11.962-11.824a13.539,13.539,0,0,1,5.612,1.15l-.92,3.129a9.39,9.39,0,0,0-4.692-1.058c-5.108,0-7.868,3.772-7.868,8.418,0,5.153,3.313,8.328,7.729,8.328a11.52,11.52,0,0,0,4.969-1.1Z" transform="translate(-56 -255.68)"/><path d="M707.64,289.49v6.394h5.8v3.083h-5.8v12.007c0,2.76.781,4.324,3.036,4.324a8.961,8.961,0,0,0,2.346-.276l.185,3.037a9.919,9.919,0,0,1-3.589.552,5.608,5.608,0,0,1-4.37-1.7c-1.151-1.2-1.565-3.175-1.565-5.8V298.967h-3.45v-3.083h3.45v-5.336Z" transform="translate(-56 -255.68)"/><path d="M722.5,289.627a2.508,2.508,0,0,1-5.015,0,2.467,2.467,0,0,1,2.53-2.53A2.4,2.4,0,0,1,722.5,289.627Zm-4.509,28.524V295.884h4.049v22.267Z" transform="translate(-56 -255.68)"/><path d="M748.9,306.833c0,8.235-5.705,11.824-11.087,11.824-6.027,0-10.674-4.417-10.674-11.455,0-7.453,4.877-11.824,11.041-11.824C744.579,295.378,748.9,300.025,748.9,306.833Zm-17.666.23c0,4.877,2.806,8.558,6.763,8.558,3.864,0,6.762-3.635,6.762-8.649,0-3.773-1.886-8.557-6.671-8.557S731.237,302.831,731.237,307.063Z" transform="translate(-56 -255.68)"/><path d="M754.006,301.911c0-2.3-.046-4.186-.183-6.027h3.588l.23,3.681h.092a8.188,8.188,0,0,1,7.36-4.187c3.083,0,7.867,1.84,7.867,9.477v13.3h-4.048V305.315c0-3.588-1.334-6.578-5.153-6.578a5.751,5.751,0,0,0-5.428,4.14,5.82,5.82,0,0,0-.276,1.886v13.388h-4.049Z" transform="translate(-56 -255.68)"/><path d="M92.335,344.608H82.9v-3.4H105.86v3.4H96.383v27.6H92.335Z" transform="translate(-56 -255.68)"/><path d="M107.1,356.892c0-2.622-.046-4.877-.184-6.947h3.542l.139,4.37h.183a6.681,6.681,0,0,1,6.165-4.876,4.373,4.373,0,0,1,1.15.138V353.4a6.02,6.02,0,0,0-1.38-.139c-2.852,0-4.876,2.162-5.428,5.2a11.287,11.287,0,0,0-.184,1.886v11.869h-4Z" transform="translate(-56 -255.68)"/><path d="M134.242,372.211l-.323-2.806h-.138a8.293,8.293,0,0,1-6.808,3.312c-4.509,0-6.809-3.174-6.809-6.394,0-5.383,4.784-8.327,13.387-8.281v-.46c0-1.84-.506-5.153-5.06-5.153a11.094,11.094,0,0,0-5.8,1.656l-.92-2.668a13.821,13.821,0,0,1,7.315-1.978c6.808,0,8.465,4.646,8.465,9.109v8.327a31.348,31.348,0,0,0,.368,5.336Zm-.6-11.363c-4.417-.092-9.432.69-9.432,5.015a3.582,3.582,0,0,0,3.819,3.864A5.54,5.54,0,0,0,133.414,366a4.25,4.25,0,0,0,.23-1.288Z" transform="translate(-56 -255.68)"/><path d="M144.084,355.972c0-2.3-.046-4.187-.184-6.027h3.588l.231,3.68h.092a8.186,8.186,0,0,1,7.36-4.186c3.083,0,7.867,1.84,7.867,9.477v13.3h-4.049V359.376c0-3.588-1.334-6.579-5.152-6.579a5.754,5.754,0,0,0-5.429,4.141,5.849,5.849,0,0,0-.275,1.886v13.387h-4.049Z" transform="translate(-56 -255.68)"/><path d="M169.062,368.071a10.608,10.608,0,0,0,5.335,1.61c2.945,0,4.326-1.472,4.326-3.312,0-1.932-1.151-2.991-4.141-4.1-4-1.426-5.889-3.634-5.889-6.3,0-3.589,2.9-6.533,7.683-6.533a11.12,11.12,0,0,1,5.475,1.38l-1.012,2.944a8.669,8.669,0,0,0-4.555-1.288c-2.392,0-3.726,1.38-3.726,3.037,0,1.84,1.334,2.668,4.232,3.772,3.864,1.472,5.843,3.4,5.843,6.716,0,3.911-3.036,6.671-8.327,6.671a12.7,12.7,0,0,1-6.257-1.518Z" transform="translate(-56 -255.68)"/><path d="M200.158,372.211l-.321-2.806H199.7a8.293,8.293,0,0,1-6.808,3.312c-4.509,0-6.809-3.174-6.809-6.394,0-5.383,4.784-8.327,13.388-8.281v-.46c0-1.84-.507-5.153-5.061-5.153a11.1,11.1,0,0,0-5.8,1.656l-.92-2.668a13.819,13.819,0,0,1,7.315-1.978c6.808,0,8.465,4.646,8.465,9.109v8.327a31.246,31.246,0,0,0,.368,5.336Zm-.6-11.363c-4.417-.092-9.432.69-9.432,5.015a3.583,3.583,0,0,0,3.819,3.864A5.538,5.538,0,0,0,199.33,366a4.191,4.191,0,0,0,.231-1.288Z" transform="translate(-56 -255.68)"/><path d="M225.873,371.383a14.9,14.9,0,0,1-6.394,1.288c-6.717,0-11.088-4.554-11.088-11.363,0-6.854,4.692-11.823,11.962-11.823a13.539,13.539,0,0,1,5.612,1.15l-.92,3.128a9.39,9.39,0,0,0-4.692-1.058c-5.108,0-7.868,3.773-7.868,8.419,0,5.153,3.313,8.327,7.729,8.327a11.5,11.5,0,0,0,4.969-1.1Z" transform="translate(-56 -255.68)"/><path d="M236.083,343.55v6.395h5.8v3.082h-5.8v12.008c0,2.76.781,4.324,3.036,4.324a9,9,0,0,0,2.346-.276l.184,3.037a9.935,9.935,0,0,1-3.588.551,5.612,5.612,0,0,1-4.371-1.7c-1.15-1.2-1.564-3.174-1.564-5.8V353.027h-3.45v-3.082h3.45v-5.337Z" transform="translate(-56 -255.68)"/><path d="M250.941,343.688a2.507,2.507,0,0,1-5.014,0,2.466,2.466,0,0,1,2.53-2.53A2.4,2.4,0,0,1,250.941,343.688Zm-4.508,28.523V349.945h4.048v22.266Z" transform="translate(-56 -255.68)"/><path d="M277.347,360.894c0,8.235-5.7,11.823-11.087,11.823-6.028,0-10.674-4.416-10.674-11.455,0-7.452,4.877-11.823,11.041-11.823C273.022,349.439,277.347,354.085,277.347,360.894Zm-17.666.23c0,4.876,2.806,8.557,6.762,8.557,3.865,0,6.763-3.634,6.763-8.649,0-3.772-1.886-8.557-6.671-8.557S259.681,356.892,259.681,361.124Z" transform="translate(-56 -255.68)"/><path d="M282.449,355.972c0-2.3-.046-4.187-.183-6.027h3.588l.23,3.68h.092a8.186,8.186,0,0,1,7.36-4.186c3.083,0,7.867,1.84,7.867,9.477v13.3h-4.049V359.376c0-3.588-1.333-6.579-5.152-6.579a5.754,5.754,0,0,0-5.429,4.141,5.849,5.849,0,0,0-.275,1.886v13.387h-4.049Z" transform="translate(-56 -255.68)"/><path d="M321.871,341.2v31.007h-4V341.2Z" transform="translate(-56 -255.68)"/><path d="M329.185,355.972c0-2.3-.046-4.187-.184-6.027h3.588l.23,3.68h.092a8.188,8.188,0,0,1,7.36-4.186c3.083,0,7.868,1.84,7.868,9.477v13.3H344.09V359.376c0-3.588-1.334-6.579-5.152-6.579a5.753,5.753,0,0,0-5.429,4.141,5.82,5.82,0,0,0-.276,1.886v13.387h-4.048Z" transform="translate(-56 -255.68)"/><path d="M354.714,357.214c0-2.853-.092-5.153-.184-7.269h3.634l.185,3.818h.091a8.756,8.756,0,0,1,7.914-4.324c5.381,0,9.43,4.554,9.43,11.317,0,8.005-4.877,11.961-10.121,11.961a7.807,7.807,0,0,1-6.854-3.5h-.092v12.1h-4Zm4,5.934a9.22,9.22,0,0,0,.183,1.657,6.247,6.247,0,0,0,6.073,4.738c4.279,0,6.762-3.5,6.762-8.6,0-4.462-2.345-8.281-6.624-8.281a6.46,6.46,0,0,0-6.119,5.015,6.564,6.564,0,0,0-.275,1.656Z" transform="translate(-56 -255.68)"/><path d="M399.52,366.139c0,2.3.045,4.324.184,6.072h-3.589l-.229-3.634h-.093a8.377,8.377,0,0,1-7.36,4.14c-3.5,0-7.683-1.932-7.683-9.753V349.945H384.8v12.329c0,4.233,1.288,7.085,4.969,7.085a5.855,5.855,0,0,0,5.337-3.68,5.944,5.944,0,0,0,.368-2.071V349.945h4.048Z" transform="translate(-56 -255.68)"/><path d="M411.11,343.55v6.395h5.8v3.082h-5.8v12.008c0,2.76.782,4.324,3.036,4.324a9,9,0,0,0,2.346-.276l.185,3.037a9.941,9.941,0,0,1-3.589.551,5.61,5.61,0,0,1-4.37-1.7c-1.151-1.2-1.565-3.174-1.565-5.8V353.027H403.7v-3.082h3.45v-5.337Z" transform="translate(-56 -255.68)"/><path d="M420.907,368.071a10.615,10.615,0,0,0,5.336,1.61c2.945,0,4.325-1.472,4.325-3.312,0-1.932-1.15-2.991-4.14-4.1-4-1.426-5.889-3.634-5.889-6.3,0-3.589,2.9-6.533,7.683-6.533a11.112,11.112,0,0,1,5.474,1.38l-1.011,2.944a8.669,8.669,0,0,0-4.555-1.288c-2.393,0-3.727,1.38-3.727,3.037,0,1.84,1.334,2.668,4.233,3.772,3.864,1.472,5.843,3.4,5.843,6.716,0,3.911-3.037,6.671-8.328,6.671a12.7,12.7,0,0,1-6.256-1.518Z" transform="translate(-56 -255.68)"/><path d="M139.954,393.858a46.507,46.507,0,0,1,7.683-.6c3.956,0,6.855.921,8.695,2.577a8.336,8.336,0,0,1,2.714,6.487,9.127,9.127,0,0,1-2.392,6.624c-2.116,2.255-5.567,3.405-9.477,3.405a13.765,13.765,0,0,1-3.22-.276V424.5h-4Zm4,14.952a13.421,13.421,0,0,0,3.312.322c4.83,0,7.774-2.346,7.774-6.625,0-4.094-2.9-6.072-7.314-6.072a16.781,16.781,0,0,0-3.772.322Z" transform="translate(-56 -255.68)"/><path d="M163.552,409.178c0-2.622-.046-4.876-.184-6.947h3.543l.138,4.371h.183a6.682,6.682,0,0,1,6.165-4.876,4.38,4.38,0,0,1,1.15.137v3.819a6.081,6.081,0,0,0-1.38-.138c-2.852,0-4.876,2.162-5.428,5.2a11.266,11.266,0,0,0-.184,1.886V424.5h-4Z" transform="translate(-56 -255.68)"/><path d="M180.389,414.1c.091,5.475,3.588,7.729,7.636,7.729a14.64,14.64,0,0,0,6.165-1.15l.69,2.9a18.035,18.035,0,0,1-7.407,1.38c-6.854,0-10.949-4.508-10.949-11.225s3.956-12.007,10.443-12.007c7.269,0,9.2,6.394,9.2,10.489a15.268,15.268,0,0,1-.138,1.886Zm11.869-2.9c.046-2.577-1.058-6.579-5.613-6.579-4.094,0-5.889,3.772-6.21,6.579Z" transform="translate(-56 -255.68)"/><path d="M202.744,402.231l4.37,12.514a56.944,56.944,0,0,1,1.795,5.7h.137c.507-1.841,1.151-3.681,1.887-5.7l4.324-12.514h4.233L210.749,424.5h-3.865l-8.465-22.267Z" transform="translate(-56 -255.68)"/><path d="M227.813,395.975a2.507,2.507,0,0,1-5.014,0,2.468,2.468,0,0,1,2.531-2.531A2.4,2.4,0,0,1,227.813,395.975ZM223.305,424.5V402.231h4.049V424.5Z" transform="translate(-56 -255.68)"/><path d="M254.219,413.181c0,8.235-5.7,11.823-11.087,11.823-6.027,0-10.674-4.417-10.674-11.455,0-7.453,4.877-11.823,11.042-11.823C249.9,401.726,254.219,406.372,254.219,413.181Zm-17.666.23c0,4.876,2.806,8.557,6.763,8.557,3.864,0,6.763-3.635,6.763-8.649,0-3.773-1.887-8.557-6.671-8.557S236.553,409.178,236.553,413.411Z" transform="translate(-56 -255.68)"/><path d="M277.955,418.425c0,2.3.046,4.325.184,6.073H274.55l-.23-3.634h-.091a8.38,8.38,0,0,1-7.361,4.14c-3.5,0-7.683-1.932-7.683-9.753v-13.02h4.048v12.33c0,4.232,1.288,7.085,4.969,7.085a5.855,5.855,0,0,0,5.337-3.681,5.92,5.92,0,0,0,.367-2.07V402.231h4.049Z" transform="translate(-56 -255.68)"/><path d="M284.116,420.357a10.6,10.6,0,0,0,5.337,1.611c2.944,0,4.324-1.472,4.324-3.313,0-1.932-1.15-2.99-4.14-4.094-4-1.426-5.888-3.635-5.888-6.3,0-3.588,2.9-6.532,7.682-6.532a11.125,11.125,0,0,1,5.475,1.379l-1.012,2.945a8.666,8.666,0,0,0-4.555-1.288c-2.392,0-3.726,1.38-3.726,3.036,0,1.84,1.334,2.668,4.232,3.773,3.864,1.472,5.843,3.4,5.843,6.716,0,3.911-3.037,6.671-8.327,6.671a12.7,12.7,0,0,1-6.257-1.518Z" transform="translate(-56 -255.68)"/><path d="M316.777,396.9h-9.431v-3.4H330.3v3.4h-9.477v27.6h-4.049Z" transform="translate(-56 -255.68)"/><path d="M331.542,409.178c0-2.622-.045-4.876-.184-6.947H334.9l.138,4.371h.184a6.68,6.68,0,0,1,6.165-4.876,4.386,4.386,0,0,1,1.15.137v3.819a6.087,6.087,0,0,0-1.38-.138c-2.853,0-4.877,2.162-5.429,5.2a11.372,11.372,0,0,0-.184,1.886V424.5h-4Z" transform="translate(-56 -255.68)"/><path d="M358.685,424.5l-.323-2.806h-.138A8.293,8.293,0,0,1,351.416,425c-4.509,0-6.809-3.174-6.809-6.4,0-5.382,4.784-8.327,13.387-8.28v-.461c0-1.84-.506-5.152-5.06-5.152a11.094,11.094,0,0,0-5.8,1.656l-.92-2.668a13.812,13.812,0,0,1,7.315-1.978c6.808,0,8.465,4.646,8.465,9.108v8.328a31.348,31.348,0,0,0,.368,5.336Zm-.6-11.363c-4.416-.092-9.431.69-9.431,5.014a3.583,3.583,0,0,0,3.819,3.865,5.54,5.54,0,0,0,5.382-3.727,4.225,4.225,0,0,0,.23-1.288Z" transform="translate(-56 -255.68)"/><path d="M368.526,408.258c0-2.3-.046-4.186-.184-6.027h3.589l.23,3.681h.091a8.191,8.191,0,0,1,7.362-4.186c3.082,0,7.867,1.839,7.867,9.477v13.3h-4.049V411.663c0-3.589-1.334-6.579-5.152-6.579a5.751,5.751,0,0,0-5.429,4.14,5.82,5.82,0,0,0-.276,1.886V424.5h-4.049Z" transform="translate(-56 -255.68)"/><path d="M393.5,420.357a10.605,10.605,0,0,0,5.336,1.611c2.945,0,4.326-1.472,4.326-3.313,0-1.932-1.151-2.99-4.141-4.094-4-1.426-5.889-3.635-5.889-6.3,0-3.588,2.9-6.532,7.683-6.532a11.124,11.124,0,0,1,5.474,1.379l-1.011,2.945a8.669,8.669,0,0,0-4.555-1.288c-2.393,0-3.727,1.38-3.727,3.036,0,1.84,1.334,2.668,4.233,3.773,3.864,1.472,5.843,3.4,5.843,6.716,0,3.911-3.036,6.671-8.327,6.671a12.7,12.7,0,0,1-6.257-1.518Z" transform="translate(-56 -255.68)"/><path d="M424.6,424.5l-.321-2.806h-.139A8.293,8.293,0,0,1,417.333,425c-4.509,0-6.809-3.174-6.809-6.4,0-5.382,4.784-8.327,13.388-8.28v-.461c0-1.84-.507-5.152-5.061-5.152a11.1,11.1,0,0,0-5.8,1.656l-.92-2.668a13.81,13.81,0,0,1,7.315-1.978c6.808,0,8.465,4.646,8.465,9.108v8.328a31.246,31.246,0,0,0,.368,5.336Zm-.6-11.363c-4.417-.092-9.431.69-9.431,5.014a3.584,3.584,0,0,0,3.819,3.865,5.54,5.54,0,0,0,5.382-3.727A4.2,4.2,0,0,0,424,417Z" transform="translate(-56 -255.68)"/><path d="M450.316,423.67a14.916,14.916,0,0,1-6.395,1.288c-6.716,0-11.088-4.554-11.088-11.363,0-6.855,4.693-11.824,11.962-11.824a13.557,13.557,0,0,1,5.613,1.15l-.92,3.129a9.394,9.394,0,0,0-4.693-1.058c-5.107,0-7.867,3.772-7.867,8.419,0,5.152,3.313,8.327,7.729,8.327a11.5,11.5,0,0,0,4.968-1.1Z" transform="translate(-56 -255.68)"/><path d="M460.526,395.837v6.394h5.8v3.083h-5.8v12.007c0,2.761.781,4.325,3.036,4.325a9,9,0,0,0,2.346-.276l.184,3.036a9.911,9.911,0,0,1-3.589.552,5.611,5.611,0,0,1-4.37-1.7c-1.15-1.2-1.564-3.174-1.564-5.8V405.314h-3.45v-3.083h3.45V396.9Z" transform="translate(-56 -255.68)"/><path d="M475.383,395.975a2.507,2.507,0,0,1-5.014,0,2.467,2.467,0,0,1,2.53-2.531A2.4,2.4,0,0,1,475.383,395.975ZM470.875,424.5V402.231h4.048V424.5Z" transform="translate(-56 -255.68)"/><path d="M501.789,413.181c0,8.235-5.706,11.823-11.087,11.823-6.028,0-10.674-4.417-10.674-11.455,0-7.453,4.877-11.823,11.041-11.823C497.464,401.726,501.789,406.372,501.789,413.181Zm-17.666.23c0,4.876,2.806,8.557,6.762,8.557,3.865,0,6.763-3.635,6.763-8.649,0-3.773-1.886-8.557-6.671-8.557S484.123,409.178,484.123,413.411Z" transform="translate(-56 -255.68)"/><path d="M506.892,408.258c0-2.3-.046-4.186-.184-6.027H510.3l.231,3.681h.092a8.186,8.186,0,0,1,7.36-4.186c3.083,0,7.867,1.839,7.867,9.477v13.3H521.8V411.663c0-3.589-1.334-6.579-5.152-6.579a5.753,5.753,0,0,0-5.429,4.14,5.849,5.849,0,0,0-.275,1.886V424.5h-4.049Z" transform="translate(-56 -255.68)"/><path d="M529.8,430.157a66.223,66.223,0,0,0,2.76-11l4.509-.461a56.1,56.1,0,0,1-4.37,11.18Z" transform="translate(-56 -255.68)"/><path d="M578.332,408.672c0,10.674-6.487,16.332-14.4,16.332-8.188,0-13.939-6.349-13.939-15.733,0-9.846,6.118-16.287,14.4-16.287C572.857,392.984,578.332,399.471,578.332,408.672Zm-24.061.506c0,6.625,3.589,12.56,9.892,12.56,6.348,0,9.936-5.843,9.936-12.882,0-6.165-3.22-12.605-9.891-12.605C557.583,396.251,554.271,402.37,554.271,409.178Z" transform="translate(-56 -255.68)"/><path d="M602.158,418.425c0,2.3.046,4.325.184,6.073h-3.589l-.229-3.634h-.093a8.375,8.375,0,0,1-7.36,4.14c-3.5,0-7.683-1.932-7.683-9.753v-13.02h4.048v12.33c0,4.232,1.288,7.085,4.969,7.085a5.854,5.854,0,0,0,5.337-3.681,5.943,5.943,0,0,0,.368-2.07V402.231h4.048Z" transform="translate(-56 -255.68)"/><path d="M613.749,395.837v6.394h5.795v3.083h-5.795v12.007c0,2.761.781,4.325,3.036,4.325a9,9,0,0,0,2.345-.276l.185,3.036a9.911,9.911,0,0,1-3.589.552,5.61,5.61,0,0,1-4.37-1.7c-1.15-1.2-1.564-3.174-1.564-5.8V405.314h-3.451v-3.083h3.451V396.9Z" transform="translate(-56 -255.68)"/><path d="M624.1,409.5c0-2.852-.092-5.152-.183-7.269h3.633l.185,3.819h.092a8.751,8.751,0,0,1,7.913-4.324c5.382,0,9.43,4.554,9.43,11.317,0,8-4.876,11.961-10.121,11.961a7.807,7.807,0,0,1-6.854-3.5H628.1v12.1h-4Zm4,5.935a9.112,9.112,0,0,0,.185,1.656,6.247,6.247,0,0,0,6.072,4.739c4.279,0,6.763-3.5,6.763-8.6,0-4.463-2.346-8.281-6.624-8.281a6.462,6.462,0,0,0-6.12,5.014,6.61,6.61,0,0,0-.276,1.657Z" transform="translate(-56 -255.68)"/><path d="M668.9,418.425c0,2.3.046,4.325.184,6.073H665.5l-.23-3.634h-.093a8.375,8.375,0,0,1-7.36,4.14c-3.5,0-7.683-1.932-7.683-9.753v-13.02h4.048v12.33c0,4.232,1.288,7.085,4.969,7.085a5.854,5.854,0,0,0,5.337-3.681,5.943,5.943,0,0,0,.368-2.07V402.231H668.9Z" transform="translate(-56 -255.68)"/><path d="M680.494,395.837v6.394h5.8v3.083h-5.8v12.007c0,2.761.781,4.325,3.036,4.325a9,9,0,0,0,2.345-.276l.185,3.036a9.911,9.911,0,0,1-3.589.552,5.61,5.61,0,0,1-4.37-1.7c-1.15-1.2-1.564-3.174-1.564-5.8V405.314h-3.451v-3.083h3.451V396.9Z" transform="translate(-56 -255.68)"/><path d="M700.732,393.491h4V421.14h13.249V424.5H700.732Z" transform="translate(-56 -255.68)"/><path d="M741.812,413.181c0,8.235-5.705,11.823-11.087,11.823-6.027,0-10.674-4.417-10.674-11.455,0-7.453,4.877-11.823,11.041-11.823C737.488,401.726,741.812,406.372,741.812,413.181Zm-17.666.23c0,4.876,2.807,8.557,6.763,8.557,3.864,0,6.762-3.635,6.762-8.649,0-3.773-1.885-8.557-6.671-8.557S724.146,409.178,724.146,413.411Z" transform="translate(-56 -255.68)"/><path d="M762.788,423.67a14.919,14.919,0,0,1-6.395,1.288c-6.717,0-11.088-4.554-11.088-11.363,0-6.855,4.693-11.824,11.962-11.824a13.547,13.547,0,0,1,5.612,1.15l-.92,3.129a9.387,9.387,0,0,0-4.692-1.058c-5.107,0-7.867,3.772-7.867,8.419,0,5.152,3.312,8.327,7.728,8.327a11.5,11.5,0,0,0,4.969-1.1Z" transform="translate(-56 -255.68)"/><path d="M779.852,424.5l-.321-2.806h-.139A8.293,8.293,0,0,1,772.583,425c-4.508,0-6.808-3.174-6.808-6.4,0-5.382,4.784-8.327,13.388-8.28v-.461c0-1.84-.507-5.152-5.061-5.152a11.1,11.1,0,0,0-5.8,1.656l-.92-2.668a13.81,13.81,0,0,1,7.315-1.978c6.808,0,8.465,4.646,8.465,9.108v8.328a31.246,31.246,0,0,0,.368,5.336Zm-.6-11.363c-4.417-.092-9.431.69-9.431,5.014a3.584,3.584,0,0,0,3.819,3.865,5.54,5.54,0,0,0,5.382-3.727,4.2,4.2,0,0,0,.23-1.288Z" transform="translate(-56 -255.68)"/><path d="M794.388,395.837v6.394h5.8v3.083h-5.8v12.007c0,2.761.781,4.325,3.036,4.325a9,9,0,0,0,2.346-.276l.185,3.036a9.919,9.919,0,0,1-3.589.552,5.608,5.608,0,0,1-4.37-1.7c-1.151-1.2-1.565-3.174-1.565-5.8V405.314h-3.45v-3.083h3.45V396.9Z" transform="translate(-56 -255.68)"/><path d="M809.246,395.975a2.508,2.508,0,0,1-5.015,0,2.467,2.467,0,0,1,2.53-2.531A2.4,2.4,0,0,1,809.246,395.975ZM804.737,424.5V402.231h4.049V424.5Z" transform="translate(-56 -255.68)"/><path d="M835.651,413.181c0,8.235-5.7,11.823-11.087,11.823-6.027,0-10.674-4.417-10.674-11.455,0-7.453,4.877-11.823,11.041-11.823C831.327,401.726,835.651,406.372,835.651,413.181Zm-17.666.23c0,4.876,2.807,8.557,6.763,8.557,3.864,0,6.762-3.635,6.762-8.649,0-3.773-1.885-8.557-6.671-8.557S817.985,409.178,817.985,413.411Z" transform="translate(-56 -255.68)"/><path d="M840.754,408.258c0-2.3-.046-4.186-.183-6.027h3.588l.23,3.681h.092a8.187,8.187,0,0,1,7.36-4.186c3.083,0,7.867,1.839,7.867,9.477v13.3H855.66V411.663c0-3.589-1.334-6.579-5.153-6.579a5.751,5.751,0,0,0-5.428,4.14,5.82,5.82,0,0,0-.276,1.886V424.5h-4.049Z" transform="translate(-56 -255.68)"/><path d="M863.662,430.157a66.224,66.224,0,0,0,2.759-11l4.509-.461a56.043,56.043,0,0,1-4.37,11.18Z" transform="translate(-56 -255.68)"/><path d="M885.143,419.622a14.186,14.186,0,0,0,7.177,2.024c4.095,0,6.486-2.163,6.486-5.291,0-2.9-1.655-4.554-5.842-6.165-5.06-1.794-8.189-4.416-8.189-8.787,0-4.83,4-8.419,10.029-8.419a14.1,14.1,0,0,1,6.855,1.518l-1.1,3.267a12.355,12.355,0,0,0-5.888-1.472c-4.233,0-5.843,2.53-5.843,4.646,0,2.9,1.885,4.325,6.164,5.981,5.245,2.024,7.913,4.555,7.913,9.109,0,4.784-3.542,8.925-10.858,8.925a16.025,16.025,0,0,1-7.912-1.978Z" transform="translate(-56 -255.68)"/><path d="M912.744,395.975a2.508,2.508,0,0,1-5.015,0,2.467,2.467,0,0,1,2.53-2.531A2.4,2.4,0,0,1,912.744,395.975ZM908.235,424.5V402.231h4.049V424.5Z" transform="translate(-56 -255.68)"/><path d="M938.183,402.231c-.093,1.611-.184,3.405-.184,6.119v12.928c0,5.106-1.012,8.235-3.174,10.167-2.163,2.024-5.291,2.668-8.1,2.668a14.37,14.37,0,0,1-7.406-1.84l1.012-3.083a12.546,12.546,0,0,0,6.533,1.749c4.14,0,7.176-2.163,7.176-7.775V420.68h-.091a7.951,7.951,0,0,1-7.085,3.726c-5.521,0-9.478-4.693-9.478-10.857,0-7.545,4.923-11.823,10.029-11.823a7.409,7.409,0,0,1,6.948,3.864h.092l.183-3.359ZM934,411.019a5.742,5.742,0,0,0-.231-1.841,5.831,5.831,0,0,0-5.658-4.278c-3.865,0-6.625,3.266-6.625,8.419,0,4.37,2.208,8,6.579,8a5.92,5.92,0,0,0,5.612-4.141,7.044,7.044,0,0,0,.323-2.162Z" transform="translate(-56 -255.68)"/><path d="M944.436,408.258c0-2.3-.046-4.186-.184-6.027h3.588l.231,3.681h.092a8.186,8.186,0,0,1,7.36-4.186c3.083,0,7.868,1.839,7.868,9.477v13.3h-4.05V411.663c0-3.589-1.334-6.579-5.152-6.579a5.753,5.753,0,0,0-5.429,4.14,5.849,5.849,0,0,0-.275,1.886V424.5h-4.049Z" transform="translate(-56 -255.68)"/><path d="M982.3,424.5l-.322-2.806h-.139A8.292,8.292,0,0,1,975.025,425c-4.507,0-6.808-3.174-6.808-6.4,0-5.382,4.785-8.327,13.388-8.28v-.461c0-1.84-.507-5.152-5.06-5.152a11.1,11.1,0,0,0-5.8,1.656l-.92-2.668a13.81,13.81,0,0,1,7.315-1.978c6.808,0,8.464,4.646,8.464,9.108v8.328a31.348,31.348,0,0,0,.368,5.336Zm-.6-11.363c-4.418-.092-9.431.69-9.431,5.014a3.583,3.583,0,0,0,3.818,3.865,5.542,5.542,0,0,0,5.383-3.727A4.225,4.225,0,0,0,981.7,417Z" transform="translate(-56 -255.68)"/><path d="M996.83,395.837v6.394h5.8v3.083h-5.8v12.007c0,2.761.781,4.325,3.037,4.325a9.011,9.011,0,0,0,2.346-.276l.183,3.036a9.9,9.9,0,0,1-3.587.552,5.61,5.61,0,0,1-4.371-1.7c-1.151-1.2-1.565-3.174-1.565-5.8V405.314h-3.449v-3.083h3.449V396.9Z" transform="translate(-56 -255.68)"/><path d="M1025.811,418.425c0,2.3.046,4.325.185,6.073h-3.59l-.228-3.634h-.094a8.375,8.375,0,0,1-7.359,4.14c-3.5,0-7.684-1.932-7.684-9.753v-13.02h4.049v12.33c0,4.232,1.287,7.085,4.969,7.085a5.854,5.854,0,0,0,5.336-3.681,5.92,5.92,0,0,0,.369-2.07V402.231h4.047Z" transform="translate(-56 -255.68)"/><path d="M1032.525,409.178c0-2.622-.046-4.876-.183-6.947h3.541l.138,4.371h.184a6.681,6.681,0,0,1,6.164-4.876,4.383,4.383,0,0,1,1.151.137v3.819a6.09,6.09,0,0,0-1.379-.138c-2.854,0-4.877,2.162-5.43,5.2a11.372,11.372,0,0,0-.184,1.886V424.5h-4Z" transform="translate(-56 -255.68)"/><path d="M1049.361,414.1c.092,5.475,3.588,7.729,7.637,7.729a14.635,14.635,0,0,0,6.164-1.15l.692,2.9a18.054,18.054,0,0,1-7.409,1.38c-6.853,0-10.949-4.508-10.949-11.225s3.957-12.007,10.443-12.007c7.27,0,9.2,6.394,9.2,10.489A15.513,15.513,0,0,1,1065,414.1Zm11.869-2.9c.047-2.577-1.058-6.579-5.613-6.579-4.094,0-5.888,3.772-6.211,6.579Z" transform="translate(-56 -255.68)"/><path d="M92.651,566.608h-9.43v-3.4h22.956v3.4H96.7v27.6H92.651Z" transform="translate(-56 -255.68)"/><path d="M107.417,578.892c0-2.622-.046-4.877-.185-6.948h3.543l.138,4.371h.184a6.682,6.682,0,0,1,6.165-4.877,4.378,4.378,0,0,1,1.15.138v3.82a6.02,6.02,0,0,0-1.38-.139c-2.852,0-4.877,2.162-5.428,5.2a11.27,11.27,0,0,0-.185,1.886v11.869h-4Z" transform="translate(-56 -255.68)"/><path d="M134.559,594.211l-.323-2.806H134.1a8.3,8.3,0,0,1-6.809,3.312c-4.508,0-6.809-3.174-6.809-6.395,0-5.383,4.785-8.327,13.388-8.28v-.461c0-1.84-.506-5.152-5.06-5.152a11.094,11.094,0,0,0-5.8,1.656l-.92-2.668a13.82,13.82,0,0,1,7.314-1.979c6.809,0,8.465,4.647,8.465,9.11v8.327a31.451,31.451,0,0,0,.368,5.336Zm-.6-11.363c-4.416-.092-9.431.69-9.431,5.014a3.583,3.583,0,0,0,3.819,3.865A5.539,5.539,0,0,0,133.73,588a4.22,4.22,0,0,0,.23-1.288Z" transform="translate(-56 -255.68)"/><path d="M144.4,577.972c0-2.3-.046-4.187-.183-6.028h3.588l.23,3.681h.092a8.188,8.188,0,0,1,7.36-4.187c3.083,0,7.867,1.84,7.867,9.478v13.295h-4.048V581.376c0-3.589-1.334-6.579-5.153-6.579a5.752,5.752,0,0,0-5.428,4.141,5.814,5.814,0,0,0-.276,1.885v13.388H144.4Z" transform="translate(-56 -255.68)"/><path d="M169.378,590.07a10.6,10.6,0,0,0,5.336,1.611c2.944,0,4.325-1.472,4.325-3.313,0-1.931-1.15-2.99-4.141-4.094-4-1.426-5.888-3.634-5.888-6.3,0-3.589,2.9-6.534,7.682-6.534a11.127,11.127,0,0,1,5.475,1.38l-1.012,2.945a8.665,8.665,0,0,0-4.554-1.288c-2.393,0-3.727,1.38-3.727,3.037,0,1.84,1.334,2.668,4.232,3.772,3.865,1.472,5.843,3.4,5.843,6.716,0,3.911-3.036,6.671-8.327,6.671a12.7,12.7,0,0,1-6.257-1.518Z" transform="translate(-56 -255.68)"/><path d="M200.475,594.211l-.322-2.806h-.138a8.3,8.3,0,0,1-6.809,3.312c-4.509,0-6.809-3.174-6.809-6.395,0-5.383,4.785-8.327,13.388-8.28v-.461c0-1.84-.507-5.152-5.06-5.152a11.094,11.094,0,0,0-5.8,1.656l-.92-2.668a13.818,13.818,0,0,1,7.314-1.979c6.809,0,8.465,4.647,8.465,9.11v8.327a31.348,31.348,0,0,0,.368,5.336Zm-.6-11.363c-4.417-.092-9.432.69-9.432,5.014a3.584,3.584,0,0,0,3.82,3.865A5.537,5.537,0,0,0,199.646,588a4.191,4.191,0,0,0,.231-1.288Z" transform="translate(-56 -255.68)"/><path d="M226.189,593.383a14.9,14.9,0,0,1-6.394,1.288c-6.717,0-11.088-4.554-11.088-11.363,0-6.855,4.692-11.824,11.962-11.824a13.529,13.529,0,0,1,5.612,1.151l-.92,3.128a9.387,9.387,0,0,0-4.692-1.058c-5.107,0-7.867,3.773-7.867,8.419,0,5.152,3.312,8.327,7.728,8.327a11.5,11.5,0,0,0,4.969-1.1Z" transform="translate(-56 -255.68)"/><path d="M236.4,565.55v6.394h5.8v3.083h-5.8v12.007c0,2.761.782,4.324,3.037,4.324a9.011,9.011,0,0,0,2.345-.275l.185,3.036a9.915,9.915,0,0,1-3.589.552,5.61,5.61,0,0,1-4.37-1.7c-1.151-1.2-1.565-3.174-1.565-5.8V575.027h-3.45v-3.083h3.45v-5.336Z" transform="translate(-56 -255.68)"/><path d="M251.258,565.688a2.508,2.508,0,0,1-5.015,0,2.467,2.467,0,0,1,2.53-2.531A2.4,2.4,0,0,1,251.258,565.688Zm-4.509,28.523V571.944H250.8v22.267Z" transform="translate(-56 -255.68)"/><path d="M277.663,582.894c0,8.235-5.7,11.823-11.087,11.823-6.027,0-10.674-4.416-10.674-11.455,0-7.452,4.877-11.824,11.041-11.824C273.339,571.438,277.663,576.085,277.663,582.894Zm-17.666.23c0,4.876,2.807,8.557,6.763,8.557,3.864,0,6.762-3.634,6.762-8.649,0-3.772-1.885-8.557-6.67-8.557S260,578.892,260,583.124Z" transform="translate(-56 -255.68)"/><path d="M282.766,577.972c0-2.3-.046-4.187-.184-6.028h3.588l.23,3.681h.092a8.19,8.19,0,0,1,7.361-4.187c3.083,0,7.867,1.84,7.867,9.478v13.295h-4.049V581.376c0-3.589-1.334-6.579-5.152-6.579a5.753,5.753,0,0,0-5.429,4.141,5.814,5.814,0,0,0-.276,1.885v13.388h-4.048Z" transform="translate(-56 -255.68)"/><path d="M344.684,578.386c0,10.673-6.487,16.331-14.4,16.331-8.188,0-13.939-6.349-13.939-15.734,0-9.844,6.118-16.286,14.4-16.286C339.209,562.7,344.684,569.185,344.684,578.386Zm-24.061.506c0,6.625,3.589,12.559,9.892,12.559,6.348,0,9.936-5.843,9.936-12.882,0-6.165-3.22-12.6-9.89-12.6C323.936,565.964,320.623,572.083,320.623,578.892Z" transform="translate(-56 -255.68)"/><path d="M368.511,588.139c0,2.3.046,4.324.184,6.072h-3.589l-.229-3.634h-.093a8.375,8.375,0,0,1-7.36,4.14c-3.5,0-7.683-1.932-7.683-9.753v-13.02h4.048v12.33c0,4.233,1.288,7.084,4.969,7.084a5.853,5.853,0,0,0,5.337-3.679,5.948,5.948,0,0,0,.368-2.071V571.944h4.048Z" transform="translate(-56 -255.68)"/><path d="M380.1,565.55v6.394h5.8v3.083h-5.8v12.007c0,2.761.781,4.324,3.036,4.324a9,9,0,0,0,2.345-.275l.185,3.036a9.911,9.911,0,0,1-3.589.552,5.61,5.61,0,0,1-4.37-1.7c-1.15-1.2-1.564-3.174-1.564-5.8V575.027h-3.451v-3.083h3.451v-5.336Z" transform="translate(-56 -255.68)"/><path d="M390.45,579.214c0-2.853-.092-5.153-.183-7.27H393.9l.185,3.819h.092a8.754,8.754,0,0,1,7.913-4.325c5.382,0,9.431,4.555,9.431,11.318,0,8-4.877,11.961-10.122,11.961a7.807,7.807,0,0,1-6.854-3.5h-.092v12.1h-4Zm4,5.934a9.137,9.137,0,0,0,.184,1.657,6.247,6.247,0,0,0,6.072,4.738c4.279,0,6.763-3.5,6.763-8.6,0-4.461-2.346-8.28-6.624-8.28a6.459,6.459,0,0,0-6.119,5.015,6.557,6.557,0,0,0-.276,1.656Z" transform="translate(-56 -255.68)"/><path d="M435.255,588.139c0,2.3.046,4.324.184,6.072h-3.588l-.23-3.634h-.093a8.375,8.375,0,0,1-7.36,4.14c-3.5,0-7.683-1.932-7.683-9.753v-13.02h4.048v12.33c0,4.233,1.288,7.084,4.969,7.084a5.852,5.852,0,0,0,5.337-3.679,5.948,5.948,0,0,0,.368-2.071V571.944h4.048Z" transform="translate(-56 -255.68)"/><path d="M446.846,565.55v6.394h5.8v3.083h-5.8v12.007c0,2.761.781,4.324,3.036,4.324a9.02,9.02,0,0,0,2.346-.275l.184,3.036a9.911,9.911,0,0,1-3.589.552,5.611,5.611,0,0,1-4.37-1.7c-1.15-1.2-1.564-3.174-1.564-5.8V575.027h-3.451v-3.083h3.451v-5.336Z" transform="translate(-56 -255.68)"/><path d="M456.644,590.07a10.6,10.6,0,0,0,5.335,1.611c2.945,0,4.326-1.472,4.326-3.313,0-1.931-1.151-2.99-4.141-4.094-4-1.426-5.889-3.634-5.889-6.3,0-3.589,2.9-6.534,7.683-6.534a11.13,11.13,0,0,1,5.475,1.38l-1.012,2.945a8.666,8.666,0,0,0-4.555-1.288c-2.392,0-3.726,1.38-3.726,3.037,0,1.84,1.334,2.668,4.232,3.772,3.864,1.472,5.843,3.4,5.843,6.716,0,3.911-3.036,6.671-8.327,6.671a12.7,12.7,0,0,1-6.257-1.518Z" transform="translate(-56 -255.68)"/><path d="M176.85,626.594c-.23-4.324-.506-9.524-.46-13.388h-.138c-1.058,3.635-2.346,7.5-3.911,11.777l-5.474,15.044h-3.036l-5.015-14.767c-1.472-4.371-2.714-8.373-3.588-12.054h-.092c-.093,3.864-.323,9.064-.6,13.71l-.829,13.295h-3.818l2.162-31.007h5.107l5.29,15c1.289,3.819,2.347,7.223,3.129,10.444h.138c.782-3.128,1.886-6.534,3.266-10.444l5.521-15h5.106l1.932,31.007h-3.91Z" transform="translate(-56 -255.68)"/><path d="M189.358,617.944l4.876,13.159c.507,1.471,1.058,3.219,1.427,4.553h.091c.415-1.334.875-3.036,1.427-4.646l4.416-13.066h4.279L199.8,633.816c-2.9,7.637-4.877,11.547-7.637,13.94a10.969,10.969,0,0,1-4.968,2.622l-1.012-3.4A10.707,10.707,0,0,0,189.726,645a12.269,12.269,0,0,0,3.4-4.509,2.906,2.906,0,0,0,.322-.966,3.529,3.529,0,0,0-.276-1.058l-8.235-20.519Z" transform="translate(-56 -255.68)"/><path d="M224.456,630.458l-3.221,9.753H217.1L227.63,609.2h4.831l10.581,31.007h-4.278l-3.313-9.753Zm10.167-3.128-3.037-8.926c-.69-2.023-1.149-3.864-1.609-5.658h-.093c-.46,1.84-.966,3.727-1.564,5.612l-3.036,8.972Z" transform="translate(-56 -255.68)"/><path d="M266.133,607.548v26.913c0,1.977.047,4.232.184,5.75h-3.634l-.184-3.864h-.092a8.236,8.236,0,0,1-7.591,4.37c-5.382,0-9.523-4.554-9.523-11.317-.046-7.407,4.555-11.962,9.983-11.962,3.4,0,5.7,1.611,6.717,3.4h.092V607.548Zm-4.048,19.46a7.146,7.146,0,0,0-.184-1.7,5.953,5.953,0,0,0-5.842-4.693c-4.187,0-6.671,3.68-6.671,8.6,0,4.509,2.208,8.235,6.578,8.235a6.086,6.086,0,0,0,5.935-4.831,7.026,7.026,0,0,0,.184-1.748Z" transform="translate(-56 -255.68)"/><path d="M292.077,607.548v26.913c0,1.977.047,4.232.184,5.75h-3.634l-.184-3.864h-.092a8.236,8.236,0,0,1-7.591,4.37c-5.383,0-9.523-4.554-9.523-11.317-.046-7.407,4.555-11.962,9.983-11.962,3.4,0,5.7,1.611,6.717,3.4h.092V607.548Zm-4.048,19.46a7.146,7.146,0,0,0-.184-1.7A5.954,5.954,0,0,0,282,620.613c-4.186,0-6.67,3.68-6.67,8.6,0,4.509,2.208,8.235,6.578,8.235a6.086,6.086,0,0,0,5.935-4.831,7.026,7.026,0,0,0,.184-1.748Z" transform="translate(-56 -255.68)"/><path d="M298.791,624.892c0-2.622-.046-4.877-.184-6.948h3.542l.139,4.371h.183a6.682,6.682,0,0,1,6.165-4.877,4.378,4.378,0,0,1,1.15.138v3.82a6.02,6.02,0,0,0-1.38-.139c-2.852,0-4.877,2.162-5.428,5.2a11.27,11.27,0,0,0-.185,1.886v11.869h-4Z" transform="translate(-56 -255.68)"/><path d="M315.627,629.814c.092,5.475,3.589,7.729,7.637,7.729a14.64,14.64,0,0,0,6.165-1.15l.69,2.9a18.022,18.022,0,0,1-7.407,1.38c-6.855,0-10.949-4.508-10.949-11.225s3.956-12.008,10.443-12.008c7.269,0,9.2,6.395,9.2,10.49a15.268,15.268,0,0,1-.138,1.886Zm11.87-2.9c.045-2.576-1.059-6.579-5.613-6.579-4.094,0-5.889,3.772-6.211,6.579Z" transform="translate(-56 -255.68)"/><path d="M335.866,636.07a10.6,10.6,0,0,0,5.337,1.611c2.944,0,4.324-1.472,4.324-3.313,0-1.931-1.15-2.99-4.14-4.094-4-1.426-5.888-3.634-5.888-6.3,0-3.589,2.9-6.534,7.682-6.534a11.124,11.124,0,0,1,5.475,1.38l-1.012,2.945a8.666,8.666,0,0,0-4.555-1.288c-2.392,0-3.726,1.38-3.726,3.037,0,1.84,1.334,2.668,4.232,3.772,3.864,1.472,5.843,3.4,5.843,6.716,0,3.911-3.037,6.671-8.327,6.671a12.7,12.7,0,0,1-6.257-1.518Z" transform="translate(-56 -255.68)"/><path d="M354.082,636.07a10.6,10.6,0,0,0,5.337,1.611c2.944,0,4.324-1.472,4.324-3.313,0-1.931-1.15-2.99-4.14-4.094-4-1.426-5.889-3.634-5.889-6.3,0-3.589,2.9-6.534,7.683-6.534a11.13,11.13,0,0,1,5.475,1.38l-1.013,2.945a8.665,8.665,0,0,0-4.554-1.288c-2.392,0-3.726,1.38-3.726,3.037,0,1.84,1.334,2.668,4.232,3.772,3.864,1.472,5.843,3.4,5.843,6.716,0,3.911-3.037,6.671-8.327,6.671a12.7,12.7,0,0,1-6.257-1.518Z" transform="translate(-56 -255.68)"/><path d="M369.723,645.87a66.322,66.322,0,0,0,2.76-11l4.508-.461a56.079,56.079,0,0,1-4.37,11.18Z" transform="translate(-56 -255.68)"/><path d="M399.117,614.08h-.092l-5.2,2.807-.782-3.083,6.533-3.5h3.45v29.9h-3.91Z" transform="translate(-56 -255.68)"/><path d="M433.8,624.938c0,10.166-3.773,15.779-10.4,15.779-5.841,0-9.8-5.475-9.89-15.365,0-10.03,4.324-15.55,10.4-15.55C430.213,609.8,433.8,615.414,433.8,624.938Zm-16.239.459c0,7.776,2.391,12.192,6.072,12.192,4.14,0,6.119-4.83,6.119-12.468,0-7.36-1.887-12.191-6.073-12.191C420.138,612.93,417.562,617.255,417.562,625.4Z" transform="translate(-56 -255.68)"/><path d="M455.051,609.2h4v20.748c0,8.235-4.049,10.765-9.385,10.765a12.935,12.935,0,0,1-4.279-.736l.6-3.266a9.553,9.553,0,0,0,3.359.6c3.588,0,5.7-1.609,5.7-7.682Z" transform="translate(-56 -255.68)"/><path d="M487.391,639.2a19.86,19.86,0,0,1-8.19,1.472c-8.74,0-15.319-5.521-15.319-15.688,0-9.707,6.579-16.286,16.193-16.286a16.611,16.611,0,0,1,7.362,1.381l-.966,3.266a14.585,14.585,0,0,0-6.257-1.288c-7.27,0-12.1,4.646-12.1,12.79,0,7.591,4.37,12.466,11.915,12.466a16,16,0,0,0,6.533-1.288Z" transform="translate(-56 -255.68)"/><path d="M492.4,609.618a41.708,41.708,0,0,1,7.684-.644c4.278,0,7.038.782,8.971,2.53a7.722,7.722,0,0,1,2.438,5.889,8.142,8.142,0,0,1-5.843,7.913v.137c2.392.828,3.819,3.036,4.555,6.257,1.012,4.324,1.748,7.315,2.392,8.511h-4.141c-.506-.874-1.195-3.542-2.069-7.406-.921-4.28-2.577-5.889-6.211-6.028H496.4v13.434h-4Zm4,14.123H500.5c4.278,0,6.992-2.345,6.992-5.888,0-4-2.9-5.751-7.131-5.8a16.471,16.471,0,0,0-3.956.368Z" transform="translate(-56 -255.68)"/><path d="M155.505,676.989l-3.22,9.753h-4.14l10.535-31.008h4.831l10.581,31.008h-4.279l-3.312-9.753Zm10.168-3.129-3.037-8.924c-.69-2.025-1.15-3.865-1.61-5.66h-.092c-.46,1.841-.966,3.727-1.564,5.614l-3.037,8.97Z" transform="translate(-56 -255.68)"/><path d="M197.183,654.078v26.913c0,1.979.046,4.233.184,5.751h-3.634l-.184-3.864h-.092a8.239,8.239,0,0,1-7.591,4.37c-5.383,0-9.523-4.555-9.523-11.317-.046-7.408,4.554-11.961,9.983-11.961,3.4,0,5.705,1.609,6.717,3.4h.092v-13.3Zm-4.048,19.46a7.151,7.151,0,0,0-.184-1.7,5.954,5.954,0,0,0-5.843-4.692c-4.186,0-6.67,3.68-6.67,8.6,0,4.508,2.208,8.234,6.578,8.234a6.085,6.085,0,0,0,5.935-4.83,7.031,7.031,0,0,0,.184-1.748Z" transform="translate(-56 -255.68)"/><path d="M223.127,654.078v26.913c0,1.979.046,4.233.184,5.751h-3.634l-.184-3.864H219.4a8.239,8.239,0,0,1-7.591,4.37c-5.383,0-9.523-4.555-9.523-11.317-.046-7.408,4.554-11.961,9.983-11.961,3.4,0,5.7,1.609,6.717,3.4h.092v-13.3Zm-4.048,19.46a7.151,7.151,0,0,0-.184-1.7,5.955,5.955,0,0,0-5.843-4.692c-4.186,0-6.671,3.68-6.671,8.6,0,4.508,2.208,8.234,6.579,8.234a6.085,6.085,0,0,0,5.935-4.83,7.031,7.031,0,0,0,.184-1.748Z" transform="translate(-56 -255.68)"/><path d="M229.841,671.422c0-2.622-.046-4.876-.184-6.946H233.2l.138,4.37h.184a6.68,6.68,0,0,1,6.165-4.876,4.423,4.423,0,0,1,1.15.137v3.819a6.081,6.081,0,0,0-1.38-.138c-2.852,0-4.876,2.162-5.429,5.2a11.406,11.406,0,0,0-.184,1.887v11.869h-4Z" transform="translate(-56 -255.68)"/><path d="M246.677,676.345c.092,5.474,3.589,7.728,7.637,7.728a14.665,14.665,0,0,0,6.165-1.149l.69,2.9a18.039,18.039,0,0,1-7.407,1.38c-6.855,0-10.95-4.509-10.95-11.225s3.957-12.007,10.444-12.007c7.269,0,9.2,6.394,9.2,10.489a15.268,15.268,0,0,1-.138,1.886Zm11.869-2.9c.046-2.576-1.058-6.578-5.612-6.578-4.095,0-5.889,3.772-6.211,6.578Z" transform="translate(-56 -255.68)"/><path d="M266.917,682.6a10.609,10.609,0,0,0,5.336,1.61c2.945,0,4.325-1.473,4.325-3.313,0-1.932-1.15-2.99-4.14-4.094-4-1.426-5.889-3.635-5.889-6.3,0-3.588,2.9-6.532,7.682-6.532a11.1,11.1,0,0,1,5.475,1.38l-1.012,2.944a8.665,8.665,0,0,0-4.554-1.288c-2.393,0-3.727,1.38-3.727,3.036,0,1.84,1.334,2.668,4.233,3.772,3.864,1.473,5.842,3.405,5.842,6.717,0,3.91-3.036,6.671-8.327,6.671a12.7,12.7,0,0,1-6.256-1.518Z" transform="translate(-56 -255.68)"/><path d="M285.132,682.6a10.616,10.616,0,0,0,5.337,1.61c2.945,0,4.324-1.473,4.324-3.313,0-1.932-1.149-2.99-4.14-4.094-4-1.426-5.888-3.635-5.888-6.3,0-3.588,2.9-6.532,7.682-6.532a11.1,11.1,0,0,1,5.475,1.38l-1.012,2.944a8.666,8.666,0,0,0-4.555-1.288c-2.392,0-3.726,1.38-3.726,3.036,0,1.84,1.334,2.668,4.232,3.772,3.865,1.473,5.843,3.405,5.843,6.717,0,3.91-3.037,6.671-8.327,6.671a12.7,12.7,0,0,1-6.256-1.518Z" transform="translate(-56 -255.68)"/><path d="M300.773,692.4a66.148,66.148,0,0,0,2.76-11l4.509-.46a56.185,56.185,0,0,1-4.371,11.18Z" transform="translate(-56 -255.68)"/><path d="M327.82,676.989l-3.22,9.753h-4.141L331,655.734h4.83l10.581,31.008h-4.279l-3.312-9.753Zm10.167-3.129-3.036-8.924c-.69-2.025-1.15-3.865-1.61-5.66h-.092c-.46,1.841-.966,3.727-1.564,5.614l-3.037,8.97Z" transform="translate(-56 -255.68)"/><path d="M350.682,670.5c0-2.3-.046-4.187-.184-6.026h3.543l.184,3.587h.137a7.675,7.675,0,0,1,6.993-4.093,6.582,6.582,0,0,1,6.3,4.462h.092a9.176,9.176,0,0,1,2.484-2.9,7.6,7.6,0,0,1,4.923-1.563c2.944,0,7.315,1.931,7.315,9.661v13.111h-3.957V674.137c0-4.279-1.564-6.856-4.83-6.856a5.242,5.242,0,0,0-4.785,3.681,6.671,6.671,0,0,0-.322,2.024v13.756h-3.956V673.4c0-3.542-1.564-6.119-4.647-6.119a6.031,6.031,0,0,0-5.336,6.028v13.433h-3.957Z" transform="translate(-56 -255.68)"/><path d="M409.2,675.425c0,8.234-5.7,11.823-11.087,11.823-6.027,0-10.674-4.417-10.674-11.455,0-7.453,4.877-11.823,11.041-11.823C404.873,663.97,409.2,668.616,409.2,675.425Zm-17.666.229c0,4.877,2.806,8.558,6.762,8.558,3.865,0,6.763-3.635,6.763-8.65,0-3.772-1.886-8.556-6.671-8.556S391.531,671.422,391.531,675.654Z" transform="translate(-56 -255.68)"/><path d="M432.932,680.669c0,2.3.046,4.325.185,6.073h-3.589l-.23-3.635h-.092a8.379,8.379,0,0,1-7.361,4.141c-3.5,0-7.682-1.933-7.682-9.753V664.476h4.047v12.329c0,4.232,1.289,7.085,4.969,7.085a5.853,5.853,0,0,0,5.337-3.681,5.92,5.92,0,0,0,.368-2.07V664.476h4.048Z" transform="translate(-56 -255.68)"/><path d="M439.646,670.5c0-2.3-.046-4.187-.184-6.026h3.588l.231,3.68h.092a8.186,8.186,0,0,1,7.36-4.186c3.083,0,7.867,1.84,7.867,9.476v13.3h-4.049V673.906c0-3.588-1.334-6.578-5.152-6.578a5.753,5.753,0,0,0-5.429,4.14,5.853,5.853,0,0,0-.275,1.886v13.388h-4.049Z" transform="translate(-56 -255.68)"/><path d="M469.869,658.081v6.395h5.8v3.082h-5.8v12.007c0,2.76.781,4.325,3.036,4.325a8.944,8.944,0,0,0,2.345-.277l.185,3.037a9.911,9.911,0,0,1-3.589.552,5.61,5.61,0,0,1-4.37-1.7c-1.15-1.2-1.564-3.175-1.564-5.8V667.558h-3.451v-3.082h3.451v-5.337Z" transform="translate(-56 -255.68)"/><path d="M149.387,728.35a2.721,2.721,0,0,1,2.76-2.9,2.9,2.9,0,1,1-2.76,2.9Z" transform="translate(-56 -255.68)"/><path d="M158.909,728.35a2.72,2.72,0,0,1,2.76-2.9,2.9,2.9,0,1,1-2.76,2.9Z" transform="translate(-56 -255.68)"/><path d="M168.43,728.35a2.72,2.72,0,0,1,2.76-2.9,2.9,2.9,0,1,1-2.76,2.9Z" transform="translate(-56 -255.68)"/><path d="M140.255,446.1a46.39,46.39,0,0,1,7.683-.6c3.957,0,6.855.921,8.7,2.577a8.336,8.336,0,0,1,2.714,6.487,9.127,9.127,0,0,1-2.392,6.624c-2.116,2.255-5.566,3.4-9.477,3.4a13.775,13.775,0,0,1-3.22-.276v12.421h-4Zm4,14.951a13.421,13.421,0,0,0,3.312.322c4.83,0,7.775-2.346,7.775-6.625,0-4.094-2.9-6.072-7.315-6.072a16.794,16.794,0,0,0-3.772.322Z" transform="translate(-56 -255.68)"/><path d="M163.854,461.422c0-2.622-.046-4.876-.185-6.946h3.543l.138,4.37h.184a6.68,6.68,0,0,1,6.165-4.876,4.428,4.428,0,0,1,1.15.137v3.819a6.081,6.081,0,0,0-1.38-.138c-2.853,0-4.877,2.162-5.429,5.2a11.394,11.394,0,0,0-.184,1.886v11.869h-4Z" transform="translate(-56 -255.68)"/><path d="M180.69,466.345c.092,5.475,3.588,7.729,7.637,7.729a14.638,14.638,0,0,0,6.164-1.15l.691,2.9a18.044,18.044,0,0,1-7.408,1.38c-6.854,0-10.949-4.508-10.949-11.225s3.957-12.007,10.444-12.007c7.269,0,9.2,6.394,9.2,10.489a15.47,15.47,0,0,1-.138,1.886Zm11.869-2.9c.046-2.576-1.058-6.579-5.613-6.579-4.094,0-5.888,3.772-6.21,6.579Z" transform="translate(-56 -255.68)"/><path d="M203.045,454.476l4.371,12.513a57.27,57.27,0,0,1,1.794,5.705h.138c.506-1.84,1.15-3.681,1.886-5.705l4.325-12.513h4.232l-8.741,22.266h-3.864l-8.465-22.266Z" transform="translate(-56 -255.68)"/><path d="M228.115,448.219a2.507,2.507,0,0,1-5.014,0,2.467,2.467,0,0,1,2.53-2.531A2.4,2.4,0,0,1,228.115,448.219Zm-4.509,28.523V454.476h4.049v22.266Z" transform="translate(-56 -255.68)"/><path d="M254.521,465.425c0,8.235-5.7,11.823-11.088,11.823-6.027,0-10.673-4.416-10.673-11.455,0-7.453,4.877-11.823,11.041-11.823C250.2,453.97,254.521,458.616,254.521,465.425Zm-17.667.23c0,4.876,2.807,8.557,6.763,8.557,3.864,0,6.763-3.634,6.763-8.649,0-3.772-1.886-8.557-6.671-8.557S236.854,461.422,236.854,465.655Z" transform="translate(-56 -255.68)"/><path d="M278.256,470.669c0,2.3.046,4.325.184,6.073h-3.588l-.23-3.634h-.092a8.379,8.379,0,0,1-7.361,4.14c-3.5,0-7.683-1.932-7.683-9.753V454.476h4.049v12.329c0,4.233,1.288,7.085,4.968,7.085a5.854,5.854,0,0,0,5.337-3.681,5.92,5.92,0,0,0,.368-2.07V454.476h4.048Z" transform="translate(-56 -255.68)"/><path d="M284.417,472.6a10.616,10.616,0,0,0,5.337,1.61c2.945,0,4.325-1.472,4.325-3.313,0-1.932-1.15-2.99-4.141-4.094-4-1.426-5.888-3.635-5.888-6.3,0-3.588,2.9-6.532,7.682-6.532a11.114,11.114,0,0,1,5.475,1.38l-1.012,2.944a8.665,8.665,0,0,0-4.554-1.288c-2.393,0-3.727,1.38-3.727,3.036,0,1.84,1.334,2.668,4.232,3.773,3.865,1.472,5.843,3.4,5.843,6.716,0,3.911-3.036,6.671-8.327,6.671a12.7,12.7,0,0,1-6.256-1.518Z" transform="translate(-56 -255.68)"/><path d="M317.079,449.139h-9.432v-3.4H330.6v3.4h-9.477v27.6h-4.048Z" transform="translate(-56 -255.68)"/><path d="M331.844,461.422c0-2.622-.046-4.876-.184-6.946H335.2l.138,4.37h.184a6.681,6.681,0,0,1,6.165-4.876,4.423,4.423,0,0,1,1.15.137v3.819a6.081,6.081,0,0,0-1.38-.138c-2.853,0-4.877,2.162-5.429,5.2a11.394,11.394,0,0,0-.184,1.886v11.869h-4Z" transform="translate(-56 -255.68)"/><path d="M358.986,476.742l-.322-2.806h-.139a8.293,8.293,0,0,1-6.808,3.312c-4.509,0-6.809-3.174-6.809-6.394,0-5.383,4.784-8.328,13.387-8.281v-.461c0-1.84-.5-5.152-5.06-5.152a11.1,11.1,0,0,0-5.8,1.656l-.92-2.668a13.812,13.812,0,0,1,7.315-1.978c6.809,0,8.465,4.646,8.465,9.109v8.327a31.348,31.348,0,0,0,.368,5.336Zm-.6-11.363c-4.417-.092-9.431.69-9.431,5.015a3.582,3.582,0,0,0,3.818,3.864,5.541,5.541,0,0,0,5.383-3.727,4.255,4.255,0,0,0,.23-1.288Z" transform="translate(-56 -255.68)"/><path d="M368.828,460.5c0-2.3-.046-4.186-.184-6.026h3.588l.23,3.68h.092a8.188,8.188,0,0,1,7.361-4.186c3.082,0,7.867,1.84,7.867,9.477v13.3h-4.049V463.907c0-3.589-1.334-6.579-5.152-6.579a5.751,5.751,0,0,0-5.429,4.14,5.829,5.829,0,0,0-.276,1.886v13.388h-4.048Z" transform="translate(-56 -255.68)"/><path d="M393.806,472.6a10.609,10.609,0,0,0,5.336,1.61c2.944,0,4.325-1.472,4.325-3.313,0-1.932-1.151-2.99-4.141-4.094-4-1.426-5.888-3.635-5.888-6.3,0-3.588,2.9-6.532,7.682-6.532a11.117,11.117,0,0,1,5.475,1.38l-1.012,2.944a8.666,8.666,0,0,0-4.555-1.288c-2.392,0-3.726,1.38-3.726,3.036,0,1.84,1.334,2.668,4.232,3.773,3.864,1.472,5.843,3.4,5.843,6.716,0,3.911-3.036,6.671-8.327,6.671a12.7,12.7,0,0,1-6.257-1.518Z" transform="translate(-56 -255.68)"/><path d="M424.9,476.742l-.321-2.806h-.139a8.291,8.291,0,0,1-6.808,3.312c-4.509,0-6.809-3.174-6.809-6.394,0-5.383,4.784-8.328,13.388-8.281v-.461c0-1.84-.507-5.152-5.061-5.152a11.1,11.1,0,0,0-5.8,1.656l-.919-2.668a13.8,13.8,0,0,1,7.314-1.978c6.809,0,8.465,4.646,8.465,9.109v8.327a31.348,31.348,0,0,0,.368,5.336Zm-.6-11.363c-4.417-.092-9.432.69-9.432,5.015a3.583,3.583,0,0,0,3.819,3.864,5.539,5.539,0,0,0,5.382-3.727,4.2,4.2,0,0,0,.231-1.288Z" transform="translate(-56 -255.68)"/><path d="M450.617,475.914a14.91,14.91,0,0,1-6.394,1.288c-6.717,0-11.088-4.554-11.088-11.363,0-6.855,4.692-11.823,11.962-11.823a13.539,13.539,0,0,1,5.612,1.15l-.92,3.128a9.39,9.39,0,0,0-4.692-1.058c-5.108,0-7.868,3.772-7.868,8.419,0,5.153,3.313,8.327,7.729,8.327a11.5,11.5,0,0,0,4.969-1.1Z" transform="translate(-56 -255.68)"/><path d="M460.827,448.081v6.395h5.8v3.082h-5.8v12.007c0,2.761.781,4.325,3.036,4.325a9,9,0,0,0,2.346-.276l.185,3.036a9.919,9.919,0,0,1-3.589.552,5.608,5.608,0,0,1-4.37-1.7c-1.151-1.2-1.565-3.174-1.565-5.8V457.558h-3.45v-3.082h3.45v-5.337Z" transform="translate(-56 -255.68)"/><path d="M475.685,448.219a2.508,2.508,0,0,1-5.015,0,2.467,2.467,0,0,1,2.53-2.531A2.4,2.4,0,0,1,475.685,448.219Zm-4.509,28.523V454.476h4.049v22.266Z" transform="translate(-56 -255.68)"/><path d="M502.09,465.425c0,8.235-5.7,11.823-11.087,11.823-6.027,0-10.674-4.416-10.674-11.455,0-7.453,4.877-11.823,11.041-11.823C497.766,453.97,502.09,458.616,502.09,465.425Zm-17.666.23c0,4.876,2.806,8.557,6.763,8.557,3.864,0,6.762-3.634,6.762-8.649,0-3.772-1.886-8.557-6.671-8.557S484.424,461.422,484.424,465.655Z" transform="translate(-56 -255.68)"/><path d="M507.193,460.5c0-2.3-.046-4.186-.183-6.026H510.6l.23,3.68h.092a8.187,8.187,0,0,1,7.36-4.186c3.083,0,7.867,1.84,7.867,9.477v13.3H522.1V463.907c0-3.589-1.334-6.579-5.153-6.579a5.751,5.751,0,0,0-5.428,4.14,5.829,5.829,0,0,0-.276,1.886v13.388h-4.049Z" transform="translate(-56 -255.68)"/><path d="M530.1,482.4a66.3,66.3,0,0,0,2.759-11l4.509-.461a56.1,56.1,0,0,1-4.37,11.18Z" transform="translate(-56 -255.68)"/><path d="M578.633,460.917c0,10.673-6.487,16.331-14.4,16.331-8.188,0-13.939-6.349-13.939-15.733,0-9.846,6.118-16.286,14.4-16.286C573.158,445.229,578.633,451.715,578.633,460.917Zm-24.061.505c0,6.625,3.589,12.56,9.892,12.56,6.348,0,9.936-5.843,9.936-12.881,0-6.165-3.219-12.606-9.89-12.606C557.885,448.5,554.572,454.614,554.572,461.422Z" transform="translate(-56 -255.68)"/><path d="M602.459,470.669c0,2.3.046,4.325.185,6.073h-3.589l-.23-3.634h-.093a8.375,8.375,0,0,1-7.36,4.14c-3.5,0-7.683-1.932-7.683-9.753V454.476h4.048v12.329c0,4.233,1.288,7.085,4.969,7.085a5.853,5.853,0,0,0,5.337-3.681,5.943,5.943,0,0,0,.368-2.07V454.476h4.048Z" transform="translate(-56 -255.68)"/><path d="M614.05,448.081v6.395h5.8v3.082h-5.8v12.007c0,2.761.781,4.325,3.036,4.325a9,9,0,0,0,2.346-.276l.184,3.036a9.911,9.911,0,0,1-3.589.552,5.611,5.611,0,0,1-4.37-1.7c-1.15-1.2-1.564-3.174-1.564-5.8V457.558h-3.45v-3.082h3.45v-5.337Z" transform="translate(-56 -255.68)"/><path d="M624.4,461.745c0-2.853-.091-5.153-.183-7.269h3.634l.184,3.818h.092a8.753,8.753,0,0,1,7.913-4.324c5.382,0,9.431,4.554,9.431,11.317,0,8-4.877,11.961-10.121,11.961a7.808,7.808,0,0,1-6.855-3.5H628.4v12.1h-4Zm4,5.934a9.112,9.112,0,0,0,.185,1.656,6.246,6.246,0,0,0,6.072,4.739c4.28,0,6.763-3.5,6.763-8.6,0-4.463-2.346-8.281-6.624-8.281a6.459,6.459,0,0,0-6.119,5.015,6.558,6.558,0,0,0-.277,1.656Z" transform="translate(-56 -255.68)"/><path d="M669.2,470.669c0,2.3.046,4.325.185,6.073H665.8l-.23-3.634h-.092a8.379,8.379,0,0,1-7.361,4.14c-3.5,0-7.682-1.932-7.682-9.753V454.476h4.047v12.329c0,4.233,1.289,7.085,4.969,7.085a5.853,5.853,0,0,0,5.337-3.681,5.92,5.92,0,0,0,.368-2.07V454.476H669.2Z" transform="translate(-56 -255.68)"/><path d="M680.8,448.081v6.395h5.8v3.082h-5.8v12.007c0,2.761.781,4.325,3.036,4.325a9,9,0,0,0,2.346-.276l.184,3.036a9.911,9.911,0,0,1-3.589.552,5.611,5.611,0,0,1-4.37-1.7c-1.15-1.2-1.564-3.174-1.564-5.8V457.558h-3.45v-3.082h3.45v-5.337Z" transform="translate(-56 -255.68)"/><path d="M701.033,445.735h4v27.649h13.249v3.358H701.033Z" transform="translate(-56 -255.68)"/><path d="M742.113,465.425c0,8.235-5.705,11.823-11.087,11.823-6.027,0-10.673-4.416-10.673-11.455,0-7.453,4.876-11.823,11.041-11.823C737.789,453.97,742.113,458.616,742.113,465.425Zm-17.666.23c0,4.876,2.807,8.557,6.763,8.557,3.864,0,6.763-3.634,6.763-8.649,0-3.772-1.886-8.557-6.671-8.557S724.447,461.422,724.447,465.655Z" transform="translate(-56 -255.68)"/><path d="M763.089,475.914a14.916,14.916,0,0,1-6.4,1.288c-6.716,0-11.088-4.554-11.088-11.363,0-6.855,4.693-11.823,11.962-11.823a13.541,13.541,0,0,1,5.613,1.15l-.92,3.128a9.394,9.394,0,0,0-4.693-1.058c-5.107,0-7.867,3.772-7.867,8.419,0,5.153,3.313,8.327,7.729,8.327a11.5,11.5,0,0,0,4.968-1.1Z" transform="translate(-56 -255.68)"/><path d="M780.153,476.742l-.321-2.806h-.139a8.291,8.291,0,0,1-6.808,3.312c-4.509,0-6.809-3.174-6.809-6.394,0-5.383,4.784-8.328,13.388-8.281v-.461c0-1.84-.507-5.152-5.061-5.152a11.1,11.1,0,0,0-5.8,1.656l-.919-2.668A13.8,13.8,0,0,1,775,453.97c6.809,0,8.465,4.646,8.465,9.109v8.327a31.348,31.348,0,0,0,.368,5.336Zm-.6-11.363c-4.417-.092-9.432.69-9.432,5.015a3.583,3.583,0,0,0,3.819,3.864,5.539,5.539,0,0,0,5.382-3.727,4.2,4.2,0,0,0,.231-1.288Z" transform="translate(-56 -255.68)"/><path d="M794.689,448.081v6.395h5.8v3.082h-5.8v12.007c0,2.761.782,4.325,3.037,4.325a9,9,0,0,0,2.345-.276l.185,3.036a9.915,9.915,0,0,1-3.589.552,5.61,5.61,0,0,1-4.37-1.7c-1.151-1.2-1.565-3.174-1.565-5.8V457.558h-3.45v-3.082h3.45v-5.337Z" transform="translate(-56 -255.68)"/><path d="M809.547,448.219a2.508,2.508,0,0,1-5.015,0,2.467,2.467,0,0,1,2.53-2.531A2.4,2.4,0,0,1,809.547,448.219Zm-4.509,28.523V454.476h4.049v22.266Z" transform="translate(-56 -255.68)"/><path d="M835.952,465.425c0,8.235-5.705,11.823-11.087,11.823-6.027,0-10.674-4.416-10.674-11.455,0-7.453,4.877-11.823,11.041-11.823C831.628,453.97,835.952,458.616,835.952,465.425Zm-17.666.23c0,4.876,2.807,8.557,6.763,8.557,3.864,0,6.763-3.634,6.763-8.649,0-3.772-1.886-8.557-6.671-8.557S818.286,461.422,818.286,465.655Z" transform="translate(-56 -255.68)"/><path d="M841.056,460.5c0-2.3-.046-4.186-.184-6.026h3.588l.23,3.68h.092a8.189,8.189,0,0,1,7.361-4.186c3.083,0,7.867,1.84,7.867,9.477v13.3h-4.049V463.907c0-3.589-1.334-6.579-5.152-6.579a5.752,5.752,0,0,0-5.429,4.14,5.829,5.829,0,0,0-.276,1.886v13.388h-4.048Z" transform="translate(-56 -255.68)"/><path d="M863.963,482.4a66.2,66.2,0,0,0,2.76-11l4.508-.461a56.043,56.043,0,0,1-4.37,11.18Z" transform="translate(-56 -255.68)"/><path d="M885.444,471.866a14.186,14.186,0,0,0,7.177,2.024c4.1,0,6.486-2.162,6.486-5.291,0-2.9-1.655-4.554-5.841-6.164-5.061-1.8-8.19-4.417-8.19-8.788,0-4.83,4-8.418,10.029-8.418a14.089,14.089,0,0,1,6.855,1.518l-1.1,3.266a12.352,12.352,0,0,0-5.888-1.472c-4.233,0-5.843,2.53-5.843,4.647,0,2.9,1.886,4.324,6.164,5.98,5.245,2.024,7.913,4.555,7.913,9.109,0,4.785-3.542,8.925-10.857,8.925a16.019,16.019,0,0,1-7.912-1.978Z" transform="translate(-56 -255.68)"/><path d="M913.045,448.219a2.508,2.508,0,0,1-5.015,0,2.468,2.468,0,0,1,2.531-2.531A2.4,2.4,0,0,1,913.045,448.219Zm-4.509,28.523V454.476h4.049v22.266Z" transform="translate(-56 -255.68)"/><path d="M938.484,454.476c-.092,1.61-.184,3.4-.184,6.118v12.928c0,5.106-1.012,8.235-3.174,10.167-2.163,2.024-5.291,2.668-8.1,2.668a14.37,14.37,0,0,1-7.406-1.84l1.012-3.082a12.556,12.556,0,0,0,6.533,1.748c4.141,0,7.177-2.162,7.177-7.775v-2.484h-.092a7.95,7.95,0,0,1-7.085,3.726c-5.521,0-9.478-4.692-9.478-10.857,0-7.545,4.923-11.823,10.03-11.823a7.408,7.408,0,0,1,6.947,3.864h.092l.183-3.358Zm-4.186,8.787a5.746,5.746,0,0,0-.231-1.841,5.83,5.83,0,0,0-5.658-4.278c-3.865,0-6.625,3.266-6.625,8.419,0,4.371,2.208,8,6.579,8a5.92,5.92,0,0,0,5.613-4.141,7.073,7.073,0,0,0,.322-2.162Z" transform="translate(-56 -255.68)"/><path d="M944.737,460.5c0-2.3-.046-4.186-.183-6.026h3.588l.23,3.68h.092a8.187,8.187,0,0,1,7.36-4.186c3.083,0,7.867,1.84,7.867,9.477v13.3h-4.048V463.907c0-3.589-1.334-6.579-5.153-6.579a5.751,5.751,0,0,0-5.428,4.14,5.829,5.829,0,0,0-.276,1.886v13.388h-4.049Z" transform="translate(-56 -255.68)"/><path d="M982.6,476.742l-.322-2.806h-.138a8.293,8.293,0,0,1-6.809,3.312c-4.509,0-6.808-3.174-6.808-6.394,0-5.383,4.784-8.328,13.387-8.281v-.461c0-1.84-.507-5.152-5.06-5.152a11.094,11.094,0,0,0-5.8,1.656l-.92-2.668a13.809,13.809,0,0,1,7.314-1.978c6.809,0,8.465,4.646,8.465,9.109v8.327a31.348,31.348,0,0,0,.368,5.336Zm-.6-11.363c-4.417-.092-9.432.69-9.432,5.015a3.583,3.583,0,0,0,3.82,3.864,5.541,5.541,0,0,0,5.382-3.727,4.225,4.225,0,0,0,.23-1.288Z" transform="translate(-56 -255.68)"/><path d="M997.132,448.081v6.395h5.8v3.082h-5.8v12.007c0,2.761.781,4.325,3.036,4.325a9,9,0,0,0,2.346-.276l.184,3.036a9.911,9.911,0,0,1-3.589.552,5.611,5.611,0,0,1-4.37-1.7c-1.15-1.2-1.564-3.174-1.564-5.8V457.558h-3.45v-3.082h3.45v-5.337Z" transform="translate(-56 -255.68)"/><path d="M1026.112,470.669c0,2.3.046,4.325.185,6.073h-3.589l-.229-3.634h-.093a8.379,8.379,0,0,1-7.361,4.14c-3.5,0-7.682-1.932-7.682-9.753V454.476h4.048v12.329c0,4.233,1.288,7.085,4.968,7.085a5.853,5.853,0,0,0,5.337-3.681,5.92,5.92,0,0,0,.368-2.07V454.476h4.048Z" transform="translate(-56 -255.68)"/><path d="M1032.826,461.422c0-2.622-.046-4.876-.183-6.946h3.542l.137,4.37h.185a6.68,6.68,0,0,1,6.164-4.876,4.423,4.423,0,0,1,1.15.137v3.819a6.081,6.081,0,0,0-1.38-.138c-2.852,0-4.877,2.162-5.428,5.2a11.388,11.388,0,0,0-.185,1.886v11.869h-4Z" transform="translate(-56 -255.68)"/><path d="M1049.662,466.345c.093,5.475,3.589,7.729,7.637,7.729a14.643,14.643,0,0,0,6.165-1.15l.69,2.9a18.035,18.035,0,0,1-7.407,1.38c-6.854,0-10.949-4.508-10.949-11.225s3.957-12.007,10.443-12.007c7.269,0,9.2,6.394,9.2,10.489a15.31,15.31,0,0,1-.137,1.886Zm11.87-2.9c.046-2.576-1.058-6.579-5.613-6.579-4.1,0-5.889,3.772-6.211,6.579Z" transform="translate(-56 -255.68)"/><path d="M139.151,520.35a2.72,2.72,0,0,1,2.76-2.9,2.9,2.9,0,1,1-2.76,2.9Z" transform="translate(-56 -255.68)"/><path d="M148.672,520.35a2.72,2.72,0,0,1,2.761-2.9,2.9,2.9,0,1,1-2.761,2.9Z" transform="translate(-56 -255.68)"/><path d="M158.193,520.35a2.72,2.72,0,0,1,2.761-2.9,2.9,2.9,0,1,1-2.761,2.9Z" transform="translate(-56 -255.68)"/><path d="M465.633,787.767V800.74h15V787.767h4.048v31.007h-4.048V804.236h-15v14.538h-4V787.767Z" transform="translate(-56 -255.68)"/><path d="M503.814,818.774l-.322-2.806h-.138a8.3,8.3,0,0,1-6.809,3.312c-4.508,0-6.809-3.174-6.809-6.394,0-5.383,4.785-8.327,13.388-8.282v-.459c0-1.84-.506-5.153-5.061-5.153a11.1,11.1,0,0,0-5.8,1.656l-.921-2.668A13.824,13.824,0,0,1,498.661,796c6.809,0,8.465,4.646,8.465,9.109v8.327a31.348,31.348,0,0,0,.368,5.336Zm-.6-11.363c-4.417-.092-9.431.691-9.431,5.015a3.582,3.582,0,0,0,3.818,3.864,5.54,5.54,0,0,0,5.383-3.727,4.225,4.225,0,0,0,.23-1.288Z" transform="translate(-56 -255.68)"/><path d="M513.1,814.634a10.613,10.613,0,0,0,5.337,1.61c2.944,0,4.324-1.473,4.324-3.312,0-1.932-1.15-2.991-4.14-4.1-4-1.426-5.889-3.634-5.889-6.3,0-3.588,2.9-6.532,7.683-6.532a11.12,11.12,0,0,1,5.475,1.38l-1.013,2.944a8.665,8.665,0,0,0-4.554-1.288c-2.392,0-3.726,1.38-3.726,3.036,0,1.841,1.334,2.669,4.232,3.773,3.864,1.472,5.843,3.4,5.843,6.716,0,3.912-3.037,6.671-8.327,6.671a12.69,12.69,0,0,1-6.257-1.518Z" transform="translate(-56 -255.68)"/><path d="M531.872,786.11h4.048V800h.093a7.512,7.512,0,0,1,2.9-2.852,8.331,8.331,0,0,1,4.14-1.15c2.991,0,7.775,1.84,7.775,9.523v13.249h-4.048V805.985c0-3.589-1.335-6.625-5.153-6.625a5.816,5.816,0,0,0-5.428,4.048,4.89,4.89,0,0,0-.277,1.933v13.433h-4.048Z" transform="translate(-56 -255.68)"/><path d="M556.435,800.188a2.742,2.742,0,1,1,5.475,0,2.74,2.74,0,1,1-5.475,0Zm0,16.24a2.742,2.742,0,1,1,5.475,0,2.74,2.74,0,1,1-5.475,0Z" transform="translate(-56 -255.68)"/><path d="M584.173,792.644h-.092l-5.2,2.806-.781-3.083,6.532-3.5h3.45v29.9h-3.91Z" transform="translate(-56 -255.68)"/><path d="M598.984,818.774V816.29l3.174-3.082c7.637-7.27,11.088-11.134,11.134-15.642,0-3.037-1.473-5.842-5.935-5.842a10.185,10.185,0,0,0-6.349,2.53L599.72,791.4a13.12,13.12,0,0,1,8.465-3.036c6.44,0,9.155,4.416,9.155,8.695,0,5.52-4,9.983-10.305,16.056l-2.392,2.208v.092h13.433v3.358Z" transform="translate(-56 -255.68)"/><path d="M623.547,814.128a13.535,13.535,0,0,0,6.625,1.886c5.2,0,6.808-3.312,6.763-5.8-.046-4.187-3.819-5.982-7.729-5.982h-2.254V801.2h2.254c2.944,0,6.67-1.517,6.67-5.06,0-2.392-1.518-4.509-5.244-4.509a10.986,10.986,0,0,0-5.981,1.978l-1.058-2.944a14.217,14.217,0,0,1,7.821-2.3c5.889,0,8.557,3.5,8.557,7.131,0,3.082-1.84,5.7-5.521,7.038v.093c3.681.735,6.671,3.5,6.671,7.683,0,4.784-3.726,8.97-10.9,8.97a15.19,15.19,0,0,1-7.775-2.024Z" transform="translate(-56 -255.68)"/><path d="M658.691,818.774v-8.142H644.8v-2.669l13.342-19.092h4.37v18.586H666.7v3.175H662.51v8.142Zm0-11.317v-9.983q0-2.346.139-4.693h-.139c-.92,1.748-1.656,3.036-2.483,4.417l-7.315,10.167v.092Z" transform="translate(-56 -255.68)"/><path d="M687.626,792.275h-11.41l-1.15,7.683a15.99,15.99,0,0,1,2.439-.184,12.628,12.628,0,0,1,6.44,1.611,8.521,8.521,0,0,1,4.279,7.682c0,5.843-4.647,10.213-11.133,10.213a14.638,14.638,0,0,1-7.453-1.84l1.012-3.083a13.377,13.377,0,0,0,6.394,1.657c3.819,0,7.085-2.484,7.085-6.487-.046-3.864-2.622-6.625-8.6-6.625a30.909,30.909,0,0,0-4.14.323l1.932-14.354h14.308Z" transform="translate(-56 -255.68)"/><rect class="cls-1" x="1078" y="4.061" width="652" height="501.5"/><path d="M1317.912,313.336a14.2,14.2,0,0,0,7.178,2.023c4.094,0,6.486-2.162,6.486-5.29,0-2.9-1.656-4.554-5.843-6.165-5.06-1.794-8.188-4.416-8.188-8.787,0-4.83,4-8.419,10.029-8.419a14.09,14.09,0,0,1,6.855,1.519l-1.105,3.266a12.348,12.348,0,0,0-5.888-1.472c-4.233,0-5.842,2.53-5.842,4.646,0,2.9,1.885,4.325,6.164,5.981,5.244,2.024,7.912,4.554,7.912,9.109,0,4.785-3.541,8.925-10.857,8.925a16.029,16.029,0,0,1-7.913-1.978Z" transform="translate(-56 -255.68)"/><path d="M1343.535,307.815c.092,5.475,3.588,7.729,7.637,7.729a14.638,14.638,0,0,0,6.164-1.15l.69,2.9a18.018,18.018,0,0,1-7.407,1.38c-6.854,0-10.949-4.508-10.949-11.225s3.957-12.008,10.443-12.008c7.27,0,9.2,6.395,9.2,10.49a15.071,15.071,0,0,1-.138,1.886Zm11.869-2.9c.045-2.576-1.058-6.579-5.613-6.579-4.094,0-5.889,3.772-6.211,6.579Z" transform="translate(-56 -255.68)"/><path d="M1364.326,301.973c0-2.3-.046-4.187-.183-6.028h3.587l.231,3.681h.092a8.186,8.186,0,0,1,7.361-4.187c3.082,0,7.866,1.84,7.866,9.478v13.3h-4.048V305.377c0-3.589-1.334-6.579-5.153-6.579a5.755,5.755,0,0,0-5.429,4.14,5.853,5.853,0,0,0-.275,1.886v13.388h-4.049Z" transform="translate(-56 -255.68)"/><path d="M1394.549,289.551v6.394h5.8v3.083h-5.8v12.007c0,2.761.781,4.324,3.036,4.324a9.029,9.029,0,0,0,2.347-.275l.183,3.036a9.909,9.909,0,0,1-3.588.552,5.612,5.612,0,0,1-4.371-1.7c-1.15-1.2-1.564-3.174-1.564-5.8V299.028h-3.45v-3.083h3.45v-5.336Z" transform="translate(-56 -255.68)"/><path d="M1418.791,290.609h-9.432v-3.4h22.957v3.4h-9.477v27.6h-4.048Z" transform="translate(-56 -255.68)"/><path d="M1433.556,302.893c0-2.622-.046-4.877-.185-6.948h3.543l.139,4.371h.183a6.682,6.682,0,0,1,6.164-4.877,4.376,4.376,0,0,1,1.151.138V299.4a6.081,6.081,0,0,0-1.38-.138c-2.853,0-4.876,2.162-5.429,5.2a11.389,11.389,0,0,0-.183,1.886v11.869h-4Z" transform="translate(-56 -255.68)"/><path d="M1460.7,318.212l-.322-2.806h-.139a8.291,8.291,0,0,1-6.808,3.312c-4.508,0-6.809-3.174-6.809-6.4,0-5.383,4.785-8.327,13.388-8.28v-.461c0-1.84-.506-5.152-5.061-5.152a11.093,11.093,0,0,0-5.8,1.656l-.921-2.668a13.825,13.825,0,0,1,7.316-1.979c6.809,0,8.465,4.647,8.465,9.11v8.327a31.457,31.457,0,0,0,.367,5.336Zm-.6-11.363c-4.417-.092-9.432.69-9.432,5.014a3.583,3.583,0,0,0,3.818,3.865,5.539,5.539,0,0,0,5.383-3.727,4.221,4.221,0,0,0,.231-1.288Z" transform="translate(-56 -255.68)"/><path d="M1470.539,301.973c0-2.3-.045-4.187-.184-6.028h3.588l.231,3.681h.092a8.188,8.188,0,0,1,7.361-4.187c3.082,0,7.867,1.84,7.867,9.478v13.3h-4.049V305.377c0-3.589-1.334-6.579-5.152-6.579a5.755,5.755,0,0,0-5.429,4.14,5.825,5.825,0,0,0-.276,1.886v13.388h-4.049Z" transform="translate(-56 -255.68)"/><path d="M1495.518,314.071a10.6,10.6,0,0,0,5.336,1.611c2.945,0,4.324-1.472,4.324-3.313,0-1.931-1.15-2.99-4.14-4.094-4-1.426-5.889-3.634-5.889-6.3,0-3.589,2.9-6.534,7.683-6.534a11.13,11.13,0,0,1,5.475,1.38l-1.012,2.945a8.669,8.669,0,0,0-4.555-1.288c-2.392,0-3.726,1.38-3.726,3.037,0,1.84,1.334,2.668,4.232,3.772,3.864,1.472,5.843,3.4,5.843,6.716,0,3.911-3.036,6.671-8.327,6.671a12.694,12.694,0,0,1-6.256-1.518Z" transform="translate(-56 -255.68)"/><path d="M1526.615,318.212l-.322-2.806h-.139a8.293,8.293,0,0,1-6.808,3.312c-4.508,0-6.809-3.174-6.809-6.4,0-5.383,4.784-8.327,13.387-8.28v-.461c0-1.84-.506-5.152-5.061-5.152a11.093,11.093,0,0,0-5.8,1.656l-.921-2.668a13.828,13.828,0,0,1,7.316-1.979c6.809,0,8.465,4.647,8.465,9.11v8.327a31.451,31.451,0,0,0,.368,5.336Zm-.6-11.363c-4.417-.092-9.431.69-9.431,5.014a3.583,3.583,0,0,0,3.818,3.865,5.539,5.539,0,0,0,5.383-3.727,4.25,4.25,0,0,0,.23-1.288Z" transform="translate(-56 -255.68)"/><path d="M1552.328,317.384a14.9,14.9,0,0,1-6.394,1.288c-6.717,0-11.088-4.554-11.088-11.363,0-6.855,4.693-11.824,11.963-11.824a13.531,13.531,0,0,1,5.611,1.151l-.92,3.128a9.389,9.389,0,0,0-4.691-1.058c-5.108,0-7.868,3.773-7.868,8.419,0,5.152,3.313,8.327,7.729,8.327a11.5,11.5,0,0,0,4.969-1.1Z" transform="translate(-56 -255.68)"/><path d="M1562.539,289.551v6.394h5.8v3.083h-5.8v12.007c0,2.761.781,4.324,3.035,4.324a9.008,9.008,0,0,0,2.346-.275l.185,3.036a9.919,9.919,0,0,1-3.589.552,5.61,5.61,0,0,1-4.37-1.7c-1.15-1.2-1.564-3.174-1.564-5.8V299.028h-3.451v-3.083h3.451v-5.336Z" transform="translate(-56 -255.68)"/><path d="M1577.4,289.688a2.507,2.507,0,0,1-5.013,0,2.466,2.466,0,0,1,2.529-2.53A2.4,2.4,0,0,1,1577.4,289.688Zm-4.507,28.524V295.945h4.049v22.267Z" transform="translate(-56 -255.68)"/><path d="M1603.8,306.9c0,8.235-5.705,11.823-11.088,11.823-6.027,0-10.674-4.416-10.674-11.455,0-7.452,4.877-11.824,11.041-11.824C1599.479,295.439,1603.8,300.086,1603.8,306.9Zm-17.666.23c0,4.876,2.806,8.557,6.761,8.557,3.866,0,6.764-3.634,6.764-8.649,0-3.772-1.887-8.557-6.672-8.557S1586.137,302.893,1586.137,307.125Z" transform="translate(-56 -255.68)"/><path d="M1608.9,301.973c0-2.3-.045-4.187-.183-6.028h3.588l.23,3.681h.092a8.188,8.188,0,0,1,7.361-4.187c3.082,0,7.867,1.84,7.867,9.478v13.3h-4.048V305.377c0-3.589-1.334-6.579-5.153-6.579a5.755,5.755,0,0,0-5.429,4.14,5.825,5.825,0,0,0-.276,1.886v13.388H1608.9Z" transform="translate(-56 -255.68)"/><path d="M1167.335,345.67H1157.9v-3.4h22.956v3.4h-9.476v27.6h-4.049Z" transform="translate(-56 -255.68)"/><path d="M1182.1,357.953c0-2.622-.046-4.876-.185-6.947h3.543l.138,4.371h.183a6.683,6.683,0,0,1,6.165-4.877,4.386,4.386,0,0,1,1.151.138v3.819a6.081,6.081,0,0,0-1.38-.138c-2.853,0-4.877,2.162-5.429,5.2a11.266,11.266,0,0,0-.184,1.886v11.869h-4Z" transform="translate(-56 -255.68)"/><path d="M1209.242,373.273l-.322-2.806h-.139a8.293,8.293,0,0,1-6.808,3.312c-4.508,0-6.809-3.175-6.809-6.395,0-5.383,4.784-8.327,13.388-8.28v-.461c0-1.84-.506-5.152-5.061-5.152a11.1,11.1,0,0,0-5.8,1.656l-.92-2.668a13.812,13.812,0,0,1,7.315-1.979c6.808,0,8.465,4.647,8.465,9.109v8.328a31.348,31.348,0,0,0,.368,5.336Zm-.6-11.363c-4.416-.092-9.431.69-9.431,5.014a3.583,3.583,0,0,0,3.818,3.865,5.54,5.54,0,0,0,5.383-3.727,4.225,4.225,0,0,0,.23-1.288Z" transform="translate(-56 -255.68)"/><path d="M1219.084,357.033c0-2.3-.046-4.186-.184-6.027h3.588l.231,3.681h.092a8.187,8.187,0,0,1,7.36-4.187c3.083,0,7.867,1.84,7.867,9.478v13.3h-4.049V360.438c0-3.589-1.334-6.579-5.152-6.579a5.753,5.753,0,0,0-5.429,4.14,5.849,5.849,0,0,0-.275,1.886v13.388h-4.049Z" transform="translate(-56 -255.68)"/><path d="M1244.062,369.132a10.6,10.6,0,0,0,5.335,1.611c2.945,0,4.326-1.472,4.326-3.313,0-1.932-1.151-2.99-4.141-4.094-4-1.426-5.889-3.635-5.889-6.3,0-3.588,2.9-6.533,7.683-6.533a11.13,11.13,0,0,1,5.475,1.38l-1.012,2.945a8.669,8.669,0,0,0-4.555-1.288c-2.392,0-3.726,1.38-3.726,3.036,0,1.84,1.334,2.668,4.232,3.773,3.864,1.472,5.843,3.4,5.843,6.716,0,3.911-3.036,6.671-8.327,6.671a12.7,12.7,0,0,1-6.257-1.518Z" transform="translate(-56 -255.68)"/><path d="M1275.158,373.273l-.321-2.806h-.139a8.293,8.293,0,0,1-6.808,3.312c-4.509,0-6.809-3.175-6.809-6.395,0-5.383,4.784-8.327,13.388-8.28v-.461c0-1.84-.507-5.152-5.061-5.152a11.1,11.1,0,0,0-5.8,1.656l-.92-2.668a13.81,13.81,0,0,1,7.315-1.979c6.808,0,8.465,4.647,8.465,9.109v8.328a31.246,31.246,0,0,0,.368,5.336Zm-.6-11.363c-4.417-.092-9.432.69-9.432,5.014a3.584,3.584,0,0,0,3.819,3.865,5.539,5.539,0,0,0,5.382-3.727,4.2,4.2,0,0,0,.231-1.288Z" transform="translate(-56 -255.68)"/><path d="M1300.873,372.445a14.914,14.914,0,0,1-6.394,1.288c-6.717,0-11.088-4.554-11.088-11.363,0-6.855,4.692-11.824,11.962-11.824a13.555,13.555,0,0,1,5.612,1.15l-.92,3.129a9.39,9.39,0,0,0-4.692-1.058c-5.108,0-7.868,3.772-7.868,8.419,0,5.152,3.313,8.327,7.729,8.327a11.5,11.5,0,0,0,4.969-1.1Z" transform="translate(-56 -255.68)"/><path d="M1311.083,344.612v6.394h5.8v3.083h-5.8V366.1c0,2.76.781,4.324,3.036,4.324a9.014,9.014,0,0,0,2.346-.275l.184,3.036a9.909,9.909,0,0,1-3.588.552,5.612,5.612,0,0,1-4.371-1.7c-1.15-1.2-1.564-3.175-1.564-5.8V354.089h-3.45v-3.083h3.45V345.67Z" transform="translate(-56 -255.68)"/><path d="M1325.941,344.75a2.507,2.507,0,0,1-5.014,0,2.467,2.467,0,0,1,2.53-2.531A2.4,2.4,0,0,1,1325.941,344.75Zm-4.508,28.523V351.006h4.048v22.267Z" transform="translate(-56 -255.68)"/><path d="M1352.347,361.956c0,8.234-5.7,11.823-11.087,11.823-6.028,0-10.674-4.417-10.674-11.455,0-7.453,4.877-11.824,11.041-11.824C1348.022,350.5,1352.347,355.147,1352.347,361.956Zm-17.666.23c0,4.876,2.806,8.557,6.762,8.557,3.865,0,6.763-3.635,6.763-8.649,0-3.773-1.886-8.557-6.671-8.557S1334.681,357.953,1334.681,362.186Z" transform="translate(-56 -255.68)"/><path d="M1357.449,357.033c0-2.3-.046-4.186-.183-6.027h3.588l.23,3.681h.092a8.187,8.187,0,0,1,7.36-4.187c3.083,0,7.867,1.84,7.867,9.478v13.3h-4.049V360.438c0-3.589-1.333-6.579-5.152-6.579a5.753,5.753,0,0,0-5.429,4.14,5.849,5.849,0,0,0-.275,1.886v13.388h-4.049Z" transform="translate(-56 -255.68)"/><path d="M1396.871,342.266v31.007h-4V342.266Z" transform="translate(-56 -255.68)"/><path d="M1404.185,357.033c0-2.3-.046-4.186-.184-6.027h3.588l.23,3.681h.092a8.189,8.189,0,0,1,7.36-4.187c3.083,0,7.868,1.84,7.868,9.478v13.3h-4.049V360.438c0-3.589-1.334-6.579-5.152-6.579a5.752,5.752,0,0,0-5.429,4.14,5.82,5.82,0,0,0-.276,1.886v13.388h-4.048Z" transform="translate(-56 -255.68)"/><path d="M1429.714,358.275c0-2.852-.092-5.152-.184-7.269h3.634l.185,3.819h.091a8.755,8.755,0,0,1,7.914-4.325c5.381,0,9.43,4.555,9.43,11.318,0,8-4.877,11.961-10.121,11.961a7.807,7.807,0,0,1-6.854-3.5h-.092v12.1h-4Zm4,5.935a9.208,9.208,0,0,0,.183,1.656,6.247,6.247,0,0,0,6.073,4.738c4.279,0,6.762-3.5,6.762-8.6,0-4.462-2.345-8.28-6.624-8.28a6.46,6.46,0,0,0-6.119,5.014,6.565,6.565,0,0,0-.275,1.657Z" transform="translate(-56 -255.68)"/><path d="M1474.52,367.2c0,2.3.045,4.325.184,6.073h-3.589l-.229-3.634h-.093a8.377,8.377,0,0,1-7.36,4.14c-3.5,0-7.683-1.932-7.683-9.753v-13.02h4.048v12.33c0,4.232,1.288,7.084,4.969,7.084a5.855,5.855,0,0,0,5.337-3.68,5.943,5.943,0,0,0,.368-2.07V351.006h4.048Z" transform="translate(-56 -255.68)"/><path d="M1486.11,344.612v6.394h5.8v3.083h-5.8V366.1c0,2.76.782,4.324,3.036,4.324a9.014,9.014,0,0,0,2.346-.275l.185,3.036a9.915,9.915,0,0,1-3.589.552,5.61,5.61,0,0,1-4.37-1.7c-1.151-1.2-1.565-3.175-1.565-5.8V354.089h-3.45v-3.083h3.45V345.67Z" transform="translate(-56 -255.68)"/><path d="M1495.907,369.132a10.605,10.605,0,0,0,5.336,1.611c2.945,0,4.325-1.472,4.325-3.313,0-1.932-1.15-2.99-4.14-4.094-4-1.426-5.889-3.635-5.889-6.3,0-3.588,2.9-6.533,7.683-6.533a11.123,11.123,0,0,1,5.474,1.38l-1.011,2.945a8.669,8.669,0,0,0-4.555-1.288c-2.393,0-3.727,1.38-3.727,3.036,0,1.84,1.334,2.668,4.233,3.773,3.864,1.472,5.843,3.4,5.843,6.716,0,3.911-3.037,6.671-8.328,6.671a12.7,12.7,0,0,1-6.256-1.518Z" transform="translate(-56 -255.68)"/><path d="M1222.314,399.429h-.091l-5.2,2.806-.781-3.083,6.533-3.5h3.45v29.9h-3.911Z" transform="translate(-56 -255.68)"/><path d="M1237.125,425.56v-2.485l3.174-3.082c7.637-7.269,11.088-11.133,11.134-15.642,0-3.036-1.472-5.843-5.935-5.843a10.189,10.189,0,0,0-6.35,2.531l-1.287-2.852a13.118,13.118,0,0,1,8.465-3.037c6.441,0,9.154,4.416,9.154,8.7,0,5.521-4,9.983-10.3,16.056l-2.393,2.208v.092h13.434v3.359Z" transform="translate(-56 -255.68)"/><path d="M1261.688,420.913a13.542,13.542,0,0,0,6.625,1.886c5.2,0,6.809-3.312,6.763-5.8-.046-4.186-3.818-5.98-7.728-5.98h-2.254v-3.037h2.254c2.943,0,6.67-1.518,6.67-5.06,0-2.392-1.518-4.508-5.245-4.508a10.982,10.982,0,0,0-5.98,1.978l-1.059-2.945a14.223,14.223,0,0,1,7.822-2.3c5.888,0,8.557,3.5,8.557,7.131,0,3.082-1.841,5.7-5.521,7.039v.092c3.68.736,6.671,3.5,6.671,7.683,0,4.784-3.727,8.97-10.9,8.97a15.217,15.217,0,0,1-7.775-2.023Z" transform="translate(-56 -255.68)"/><path d="M1296.833,425.56v-8.143h-13.894v-2.668l13.342-19.093h4.371v18.586h4.186v3.175h-4.186v8.143Zm0-11.318v-9.983q0-2.346.138-4.693h-.138c-.92,1.749-1.656,3.037-2.483,4.417l-7.316,10.167v.092Z" transform="translate(-56 -255.68)"/><path d="M1325.768,399.061h-11.411l-1.15,7.683a15.862,15.862,0,0,1,2.439-.184,12.637,12.637,0,0,1,6.44,1.609,8.525,8.525,0,0,1,4.279,7.684c0,5.842-4.646,10.212-11.133,10.212a14.639,14.639,0,0,1-7.453-1.839l1.012-3.083a13.391,13.391,0,0,0,6.395,1.656c3.818,0,7.085-2.484,7.085-6.487-.046-3.864-2.623-6.624-8.6-6.624a30.934,30.934,0,0,0-4.141.322l1.932-14.354h14.309Z" transform="translate(-56 -255.68)"/><path d="M1330.18,431.218a66.171,66.171,0,0,0,2.761-11l4.508-.46a56.027,56.027,0,0,1-4.371,11.179Z" transform="translate(-56 -255.68)"/><path d="M1370.661,410.286c0,10.167-3.772,15.779-10.4,15.779-5.842,0-9.8-5.474-9.891-15.365,0-10.029,4.324-15.55,10.4-15.55C1367.072,395.15,1370.661,400.763,1370.661,410.286Zm-16.239.46c0,7.775,2.392,12.192,6.072,12.192,4.141,0,6.119-4.831,6.119-12.468,0-7.361-1.886-12.192-6.073-12.192C1357,398.278,1354.422,402.6,1354.422,410.746Z" transform="translate(-56 -255.68)"/><path d="M1373.051,431.218a66.271,66.271,0,0,0,2.76-11l4.508-.46a56.092,56.092,0,0,1-4.37,11.179Z" transform="translate(-56 -255.68)"/><path d="M1421.215,411.942c-.231-4.324-.506-9.523-.46-13.387h-.138c-1.058,3.634-2.346,7.5-3.911,11.777l-5.475,15.043H1408.2l-5.014-14.767c-1.472-4.371-2.714-8.373-3.589-12.053h-.092c-.092,3.864-.322,9.063-.6,13.709l-.828,13.3h-3.818l2.162-31.008h5.106l5.29,15c1.29,3.818,2.348,7.222,3.129,10.443h.139c.781-3.128,1.886-6.533,3.266-10.443l5.521-15h5.106l1.932,31.008H1422Z" transform="translate(-56 -255.68)"/><path d="M1433.723,403.293l4.877,13.158c.505,1.472,1.057,3.22,1.425,4.554h.092c.414-1.334.875-3.036,1.426-4.647l4.418-13.065h4.277l-6.072,15.872c-2.9,7.637-4.877,11.547-7.637,13.939a10.978,10.978,0,0,1-4.968,2.623l-1.012-3.4a10.707,10.707,0,0,0,3.542-1.978,12.269,12.269,0,0,0,3.4-4.509,2.872,2.872,0,0,0,.321-.965,3.512,3.512,0,0,0-.275-1.058l-8.234-20.519Z" transform="translate(-56 -255.68)"/><path d="M1463.254,420.683a14.179,14.179,0,0,0,7.176,2.024c4.1,0,6.486-2.162,6.486-5.29,0-2.9-1.654-4.555-5.842-6.165-5.06-1.794-8.189-4.417-8.189-8.787,0-4.831,4-8.419,10.029-8.419a14.093,14.093,0,0,1,6.856,1.518l-1.1,3.267a12.35,12.35,0,0,0-5.889-1.473c-4.232,0-5.843,2.531-5.843,4.647,0,2.9,1.886,4.325,6.164,5.98,5.246,2.025,7.914,4.555,7.914,9.11,0,4.784-3.543,8.925-10.858,8.925a16.022,16.022,0,0,1-7.912-1.978Z" transform="translate(-56 -255.68)"/><path d="M1490.854,397.036a2.507,2.507,0,0,1-5.014,0,2.465,2.465,0,0,1,2.529-2.53A2.4,2.4,0,0,1,1490.854,397.036Zm-4.508,28.524V403.293h4.049V425.56Z" transform="translate(-56 -255.68)"/><path d="M1516.293,403.293c-.092,1.61-.184,3.4-.184,6.119v12.927c0,5.107-1.011,8.235-3.173,10.167-2.165,2.025-5.291,2.669-8.1,2.669a14.358,14.358,0,0,1-7.406-1.841l1.011-3.082a12.56,12.56,0,0,0,6.534,1.748c4.14,0,7.175-2.162,7.175-7.774v-2.485h-.091a7.949,7.949,0,0,1-7.084,3.727c-5.522,0-9.479-4.693-9.479-10.858,0-7.545,4.924-11.823,10.029-11.823a7.407,7.407,0,0,1,6.948,3.864h.091l.184-3.358Zm-4.186,8.787a5.765,5.765,0,0,0-.23-1.84,5.833,5.833,0,0,0-5.658-4.279c-3.865,0-6.625,3.267-6.625,8.419,0,4.371,2.207,8,6.578,8a5.92,5.92,0,0,0,5.613-4.14,7.078,7.078,0,0,0,.322-2.162Z" transform="translate(-56 -255.68)"/><path d="M1522.547,409.32c0-2.3-.045-4.187-.184-6.027h3.588l.231,3.681h.091a8.189,8.189,0,0,1,7.362-4.187c3.082,0,7.867,1.84,7.867,9.477v13.3h-4.049V412.724c0-3.588-1.334-6.578-5.152-6.578a5.755,5.755,0,0,0-5.43,4.14,5.849,5.849,0,0,0-.275,1.886V425.56h-4.049Z" transform="translate(-56 -255.68)"/><path d="M1560.406,425.56l-.322-2.807h-.139a8.291,8.291,0,0,1-6.808,3.312c-4.508,0-6.809-3.174-6.809-6.394,0-5.383,4.785-8.327,13.389-8.281v-.46c0-1.84-.508-5.153-5.061-5.153a11.091,11.091,0,0,0-5.8,1.657l-.92-2.669a13.819,13.819,0,0,1,7.315-1.978c6.808,0,8.465,4.647,8.465,9.109v8.327a31.47,31.47,0,0,0,.367,5.337Zm-.6-11.364c-4.418-.092-9.432.69-9.432,5.015a3.582,3.582,0,0,0,3.818,3.864,5.54,5.54,0,0,0,5.383-3.726,4.2,4.2,0,0,0,.231-1.288Z" transform="translate(-56 -255.68)"/><path d="M1574.941,396.9v6.395h5.8v3.082h-5.8v12.008c0,2.76.782,4.324,3.036,4.324a9,9,0,0,0,2.345-.276l.186,3.037a9.926,9.926,0,0,1-3.59.552,5.608,5.608,0,0,1-4.369-1.7c-1.151-1.2-1.565-3.174-1.565-5.8V406.375h-3.451v-3.082h3.451v-5.336Z" transform="translate(-56 -255.68)"/><path d="M1603.922,419.487c0,2.3.047,4.325.185,6.073h-3.589l-.229-3.635h-.094a8.374,8.374,0,0,1-7.359,4.14c-3.5,0-7.684-1.932-7.684-9.753V403.293h4.049v12.33c0,4.232,1.287,7.084,4.969,7.084a5.851,5.851,0,0,0,5.336-3.68,5.92,5.92,0,0,0,.369-2.07V403.293h4.047Z" transform="translate(-56 -255.68)"/><path d="M1610.637,410.24c0-2.622-.047-4.877-.184-6.947h3.541l.139,4.371h.183a6.682,6.682,0,0,1,6.164-4.877,4.376,4.376,0,0,1,1.151.138v3.819a6.017,6.017,0,0,0-1.379-.139c-2.854,0-4.877,2.163-5.43,5.2a11.4,11.4,0,0,0-.183,1.886v11.87h-4Z" transform="translate(-56 -255.68)"/><path d="M1627.473,415.163c.091,5.474,3.588,7.728,7.636,7.728a14.631,14.631,0,0,0,6.164-1.15l.692,2.9a18.048,18.048,0,0,1-7.408,1.38c-6.854,0-10.95-4.509-10.95-11.226s3.957-12.007,10.444-12.007c7.269,0,9.2,6.4,9.2,10.489a15.533,15.533,0,0,1-.137,1.887Zm11.869-2.9c.047-2.576-1.059-6.578-5.613-6.578-4.094,0-5.889,3.772-6.211,6.578Z" transform="translate(-56 -255.68)"/><path d="M1167.651,448.669h-9.43v-3.4h22.956v3.4H1171.7v27.6h-4.049Z" transform="translate(-56 -255.68)"/><path d="M1182.417,460.953c0-2.622-.046-4.877-.185-6.947h3.543l.138,4.37h.184a6.681,6.681,0,0,1,6.165-4.876,4.378,4.378,0,0,1,1.15.138v3.819a6.02,6.02,0,0,0-1.38-.139c-2.852,0-4.877,2.162-5.428,5.2a11.281,11.281,0,0,0-.185,1.886v11.869h-4Z" transform="translate(-56 -255.68)"/><path d="M1209.559,476.272l-.323-2.806h-.138a8.3,8.3,0,0,1-6.809,3.312c-4.508,0-6.809-3.174-6.809-6.394,0-5.383,4.785-8.327,13.388-8.281v-.46c0-1.84-.506-5.153-5.06-5.153a11.094,11.094,0,0,0-5.8,1.656l-.92-2.668a13.82,13.82,0,0,1,7.314-1.978c6.809,0,8.465,4.646,8.465,9.109v8.327a31.451,31.451,0,0,0,.368,5.336Zm-.6-11.363c-4.416-.092-9.431.69-9.431,5.015a3.582,3.582,0,0,0,3.819,3.864,5.539,5.539,0,0,0,5.382-3.726,4.226,4.226,0,0,0,.23-1.289Z" transform="translate(-56 -255.68)"/><path d="M1219.4,460.033c0-2.3-.046-4.187-.183-6.027h3.588l.23,3.681h.092a8.186,8.186,0,0,1,7.36-4.187c3.083,0,7.867,1.84,7.867,9.477v13.3h-4.048V463.437c0-3.588-1.334-6.579-5.153-6.579a5.752,5.752,0,0,0-5.428,4.141,5.82,5.82,0,0,0-.276,1.886v13.387H1219.4Z" transform="translate(-56 -255.68)"/><path d="M1244.378,472.132a10.609,10.609,0,0,0,5.336,1.61c2.944,0,4.325-1.472,4.325-3.312,0-1.932-1.15-2.991-4.141-4.1-4-1.426-5.888-3.634-5.888-6.3,0-3.589,2.9-6.533,7.682-6.533a11.117,11.117,0,0,1,5.475,1.38l-1.012,2.944a8.665,8.665,0,0,0-4.554-1.288c-2.393,0-3.727,1.381-3.727,3.037,0,1.84,1.334,2.668,4.232,3.772,3.865,1.472,5.843,3.4,5.843,6.717,0,3.91-3.036,6.67-8.327,6.67a12.7,12.7,0,0,1-6.257-1.518Z" transform="translate(-56 -255.68)"/><path d="M1275.475,476.272l-.322-2.806h-.138a8.3,8.3,0,0,1-6.809,3.312c-4.509,0-6.809-3.174-6.809-6.394,0-5.383,4.785-8.327,13.388-8.281v-.46c0-1.84-.507-5.153-5.06-5.153a11.094,11.094,0,0,0-5.8,1.656l-.92-2.668a13.818,13.818,0,0,1,7.314-1.978c6.809,0,8.465,4.646,8.465,9.109v8.327a31.348,31.348,0,0,0,.368,5.336Zm-.6-11.363c-4.417-.092-9.432.69-9.432,5.015a3.583,3.583,0,0,0,3.82,3.864,5.538,5.538,0,0,0,5.381-3.726,4.2,4.2,0,0,0,.231-1.289Z" transform="translate(-56 -255.68)"/><path d="M1301.189,475.444a14.9,14.9,0,0,1-6.394,1.288c-6.717,0-11.088-4.554-11.088-11.363,0-6.854,4.692-11.823,11.962-11.823a13.531,13.531,0,0,1,5.612,1.15l-.92,3.128a9.387,9.387,0,0,0-4.692-1.058c-5.107,0-7.867,3.773-7.867,8.419,0,5.153,3.312,8.327,7.728,8.327a11.5,11.5,0,0,0,4.969-1.1Z" transform="translate(-56 -255.68)"/><path d="M1311.4,447.611v6.395h5.8v3.082h-5.8V469.1c0,2.76.782,4.324,3.037,4.324a9,9,0,0,0,2.345-.276l.185,3.037a9.941,9.941,0,0,1-3.589.551,5.61,5.61,0,0,1-4.37-1.7c-1.151-1.2-1.565-3.174-1.565-5.8V457.088h-3.45v-3.082h3.45v-5.337Z" transform="translate(-56 -255.68)"/><path d="M1326.258,447.749a2.508,2.508,0,0,1-5.015,0,2.467,2.467,0,0,1,2.53-2.53A2.4,2.4,0,0,1,1326.258,447.749Zm-4.509,28.523V454.006h4.049v22.266Z" transform="translate(-56 -255.68)"/><path d="M1352.663,464.955c0,8.235-5.7,11.823-11.087,11.823-6.027,0-10.674-4.416-10.674-11.455,0-7.452,4.877-11.823,11.041-11.823C1348.339,453.5,1352.663,458.146,1352.663,464.955Zm-17.666.23c0,4.877,2.807,8.557,6.763,8.557,3.864,0,6.762-3.634,6.762-8.649,0-3.772-1.885-8.557-6.67-8.557S1335,460.953,1335,465.185Z" transform="translate(-56 -255.68)"/><path d="M1357.766,460.033c0-2.3-.046-4.187-.184-6.027h3.588l.23,3.681h.092a8.188,8.188,0,0,1,7.361-4.187c3.083,0,7.867,1.84,7.867,9.477v13.3h-4.049V463.437c0-3.588-1.334-6.579-5.152-6.579A5.753,5.753,0,0,0,1362.09,461a5.82,5.82,0,0,0-.276,1.886v13.387h-4.048Z" transform="translate(-56 -255.68)"/><path d="M1419.684,460.447c0,10.673-6.487,16.331-14.4,16.331-8.188,0-13.939-6.348-13.939-15.733,0-9.845,6.118-16.286,14.4-16.286C1414.209,444.759,1419.684,451.246,1419.684,460.447Zm-24.061.506c0,6.625,3.589,12.559,9.892,12.559,6.348,0,9.936-5.843,9.936-12.881,0-6.165-3.22-12.606-9.89-12.606C1398.936,448.025,1395.623,454.144,1395.623,460.953Z" transform="translate(-56 -255.68)"/><path d="M1443.511,470.2c0,2.3.046,4.324.184,6.072h-3.589l-.229-3.634h-.093a8.375,8.375,0,0,1-7.36,4.14c-3.5,0-7.683-1.932-7.683-9.753V454.006h4.048v12.329c0,4.233,1.288,7.085,4.969,7.085a5.854,5.854,0,0,0,5.337-3.68,5.944,5.944,0,0,0,.368-2.071V454.006h4.048Z" transform="translate(-56 -255.68)"/><path d="M1455.1,447.611v6.395h5.795v3.082H1455.1V469.1c0,2.76.781,4.324,3.036,4.324a9,9,0,0,0,2.345-.276l.185,3.037a9.937,9.937,0,0,1-3.589.551,5.61,5.61,0,0,1-4.37-1.7c-1.15-1.2-1.564-3.174-1.564-5.8V457.088h-3.451v-3.082h3.451v-5.337Z" transform="translate(-56 -255.68)"/><path d="M1465.45,461.275c0-2.853-.092-5.153-.183-7.269h3.633l.185,3.818h.092a8.753,8.753,0,0,1,7.913-4.324c5.382,0,9.431,4.554,9.431,11.317,0,8-4.877,11.961-10.122,11.961a7.807,7.807,0,0,1-6.854-3.5h-.092v12.1h-4Zm4,5.934a9.127,9.127,0,0,0,.184,1.657,6.246,6.246,0,0,0,6.072,4.738c4.279,0,6.763-3.5,6.763-8.6,0-4.462-2.346-8.281-6.624-8.281a6.459,6.459,0,0,0-6.119,5.015,6.565,6.565,0,0,0-.276,1.656Z" transform="translate(-56 -255.68)"/><path d="M1510.255,470.2c0,2.3.046,4.324.184,6.072h-3.588l-.23-3.634h-.093a8.375,8.375,0,0,1-7.36,4.14c-3.5,0-7.683-1.932-7.683-9.753V454.006h4.048v12.329c0,4.233,1.288,7.085,4.969,7.085a5.852,5.852,0,0,0,5.337-3.68,5.944,5.944,0,0,0,.368-2.071V454.006h4.048Z" transform="translate(-56 -255.68)"/><path d="M1521.846,447.611v6.395h5.8v3.082h-5.8V469.1c0,2.76.781,4.324,3.036,4.324a9.011,9.011,0,0,0,2.346-.276l.184,3.037a9.937,9.937,0,0,1-3.589.551,5.611,5.611,0,0,1-4.37-1.7c-1.15-1.2-1.564-3.174-1.564-5.8V457.088h-3.451v-3.082h3.451v-5.337Z" transform="translate(-56 -255.68)"/><path d="M1531.644,472.132a10.608,10.608,0,0,0,5.335,1.61c2.945,0,4.326-1.472,4.326-3.312,0-1.932-1.151-2.991-4.141-4.1-4-1.426-5.889-3.634-5.889-6.3,0-3.589,2.9-6.533,7.683-6.533a11.12,11.12,0,0,1,5.475,1.38l-1.012,2.944a8.666,8.666,0,0,0-4.555-1.288c-2.392,0-3.726,1.381-3.726,3.037,0,1.84,1.334,2.668,4.232,3.772,3.864,1.472,5.843,3.4,5.843,6.717,0,3.91-3.036,6.67-8.327,6.67a12.7,12.7,0,0,1-6.257-1.518Z" transform="translate(-56 -255.68)"/><path d="M1225.719,522.272V491.265h4.371l9.937,15.688a87.943,87.943,0,0,1,5.567,10.075l.092-.046c-.369-4.141-.461-7.913-.461-12.744V491.265H1249v31.007h-4.049l-9.845-15.733a98.161,98.161,0,0,1-5.8-10.351l-.138.045c.229,3.911.322,7.637.322,12.79v13.249Z" transform="translate(-56 -255.68)"/><path d="M1258.1,511.875c.091,5.475,3.587,7.729,7.636,7.729a14.631,14.631,0,0,0,6.164-1.15l.691,2.9a18.046,18.046,0,0,1-7.407,1.379c-6.855,0-10.95-4.508-10.95-11.225s3.957-12.007,10.444-12.007c7.269,0,9.2,6.395,9.2,10.489a15.03,15.03,0,0,1-.139,1.886Zm11.869-2.9c.045-2.576-1.059-6.579-5.614-6.579-4.093,0-5.888,3.772-6.211,6.579Z" transform="translate(-56 -255.68)"/><path d="M1280.643,500.006l3.174,4.785c.829,1.242,1.519,2.392,2.255,3.634h.137c.736-1.334,1.473-2.485,2.209-3.68l3.129-4.739h4.37l-7.591,10.765,7.82,11.5h-4.6l-3.268-5.014c-.873-1.288-1.609-2.53-2.391-3.864h-.093c-.735,1.334-1.518,2.53-2.346,3.864l-3.22,5.014h-4.462l7.913-11.363-7.545-10.9Z" transform="translate(-56 -255.68)"/><path d="M1305.528,493.611v6.395h5.8v3.082h-5.8V515.1c0,2.76.783,4.324,3.036,4.324a9.014,9.014,0,0,0,2.347-.276l.185,3.037a9.953,9.953,0,0,1-3.589.551,5.608,5.608,0,0,1-4.37-1.7c-1.151-1.2-1.565-3.174-1.565-5.8V503.088h-3.451v-3.082h3.451v-5.337Z" transform="translate(-56 -255.68)"/><path d="M1330.781,512.52l-3.22,9.752h-4.141l10.536-31.007h4.831l10.58,31.007h-4.278l-3.312-9.752Zm10.168-3.129-3.037-8.925c-.689-2.024-1.15-3.864-1.609-5.659h-.093c-.46,1.84-.966,3.727-1.564,5.613l-3.037,8.971Z" transform="translate(-56 -255.68)"/><path d="M1372.459,489.609v26.913c0,1.978.047,4.232.185,5.75h-3.634l-.185-3.864h-.092a8.235,8.235,0,0,1-7.59,4.37c-5.383,0-9.524-4.554-9.524-11.317-.046-7.407,4.555-11.961,9.984-11.961,3.4,0,5.7,1.61,6.716,3.4h.092v-13.3Zm-4.048,19.46a7.146,7.146,0,0,0-.184-1.7,5.954,5.954,0,0,0-5.842-4.693c-4.187,0-6.671,3.68-6.671,8.6,0,4.509,2.208,8.235,6.579,8.235a6.085,6.085,0,0,0,5.934-4.83,7.037,7.037,0,0,0,.184-1.748Z" transform="translate(-56 -255.68)"/><path d="M1398.4,489.609v26.913c0,1.978.046,4.232.185,5.75h-3.635l-.183-3.864h-.092a8.237,8.237,0,0,1-7.592,4.37c-5.383,0-9.524-4.554-9.524-11.317-.044-7.407,4.555-11.961,9.985-11.961,3.4,0,5.7,1.61,6.717,3.4h.091v-13.3Zm-4.048,19.46a7.146,7.146,0,0,0-.184-1.7,5.955,5.955,0,0,0-5.843-4.693c-4.185,0-6.67,3.68-6.67,8.6,0,4.509,2.207,8.235,6.578,8.235a6.085,6.085,0,0,0,5.935-4.83,7.037,7.037,0,0,0,.184-1.748Z" transform="translate(-56 -255.68)"/><path d="M1405.117,506.953c0-2.622-.046-4.877-.183-6.947h3.542l.137,4.37h.184a6.682,6.682,0,0,1,6.166-4.876,4.376,4.376,0,0,1,1.149.138v3.819a6.02,6.02,0,0,0-1.38-.139c-2.852,0-4.877,2.162-5.428,5.2a11.281,11.281,0,0,0-.185,1.886v11.869h-4Z" transform="translate(-56 -255.68)"/><path d="M1421.953,511.875c.092,5.475,3.589,7.729,7.637,7.729a14.647,14.647,0,0,0,6.165-1.15l.69,2.9a18.038,18.038,0,0,1-7.407,1.379c-6.854,0-10.949-4.508-10.949-11.225s3.956-12.007,10.443-12.007c7.269,0,9.2,6.395,9.2,10.489a15.513,15.513,0,0,1-.137,1.886Zm11.869-2.9c.047-2.576-1.057-6.579-5.612-6.579-4.1,0-5.889,3.772-6.21,6.579Z" transform="translate(-56 -255.68)"/><path d="M1442.192,518.132a10.616,10.616,0,0,0,5.337,1.61c2.945,0,4.325-1.472,4.325-3.312,0-1.932-1.151-2.991-4.141-4.095-4-1.426-5.889-3.634-5.889-6.3,0-3.589,2.9-6.533,7.684-6.533a11.112,11.112,0,0,1,5.474,1.38l-1.012,2.944a8.665,8.665,0,0,0-4.554-1.288c-2.393,0-3.727,1.381-3.727,3.037,0,1.84,1.334,2.668,4.233,3.772,3.863,1.472,5.842,3.4,5.842,6.717,0,3.91-3.036,6.67-8.326,6.67a12.7,12.7,0,0,1-6.257-1.518Z" transform="translate(-56 -255.68)"/><path d="M1460.409,518.132a10.612,10.612,0,0,0,5.336,1.61c2.944,0,4.325-1.472,4.325-3.312,0-1.932-1.15-2.991-4.14-4.095-4-1.426-5.889-3.634-5.889-6.3,0-3.589,2.9-6.533,7.683-6.533a11.112,11.112,0,0,1,5.474,1.38l-1.011,2.944a8.672,8.672,0,0,0-4.555-1.288c-2.393,0-3.727,1.381-3.727,3.037,0,1.84,1.334,2.668,4.233,3.772,3.864,1.472,5.842,3.4,5.842,6.717,0,3.91-3.036,6.67-8.327,6.67a12.7,12.7,0,0,1-6.257-1.518Z" transform="translate(-56 -255.68)"/><path d="M1476.049,527.931a66.2,66.2,0,0,0,2.76-11l4.508-.46a56.031,56.031,0,0,1-4.37,11.179Z" transform="translate(-56 -255.68)"/><path d="M1505.442,496.142h-.091l-5.2,2.806-.782-3.083,6.533-3.5h3.451v29.9h-3.911Z" transform="translate(-56 -255.68)"/><path d="M1540.127,507c0,10.167-3.773,15.779-10.4,15.779-5.841,0-9.8-5.474-9.89-15.365,0-10.029,4.324-15.55,10.4-15.55C1536.539,491.863,1540.127,497.476,1540.127,507Zm-16.239.46c0,7.775,2.391,12.191,6.072,12.191,4.141,0,6.119-4.83,6.119-12.467,0-7.361-1.887-12.192-6.073-12.192C1526.464,494.991,1523.888,499.316,1523.888,507.459Z" transform="translate(-56 -255.68)"/><path d="M1561.376,491.265h4v20.748c0,8.235-4.049,10.765-9.385,10.765a12.94,12.94,0,0,1-4.279-.736l.6-3.266a9.556,9.556,0,0,0,3.359.6c3.588,0,5.7-1.61,5.7-7.683Z" transform="translate(-56 -255.68)"/><path d="M1593.717,521.26a19.86,19.86,0,0,1-8.19,1.472c-8.74,0-15.319-5.52-15.319-15.687,0-9.708,6.579-16.286,16.193-16.286a16.627,16.627,0,0,1,7.362,1.38l-.966,3.266a14.585,14.585,0,0,0-6.257-1.288c-7.269,0-12.1,4.647-12.1,12.79,0,7.591,4.371,12.467,11.915,12.467a16.029,16.029,0,0,0,6.534-1.288Z" transform="translate(-56 -255.68)"/><path d="M1598.727,491.679a41.689,41.689,0,0,1,7.683-.644c4.278,0,7.038.782,8.971,2.53a7.724,7.724,0,0,1,2.438,5.889,8.142,8.142,0,0,1-5.842,7.913v.138c2.391.828,3.818,3.036,4.554,6.257,1.012,4.324,1.748,7.314,2.392,8.51h-4.141c-.506-.874-1.195-3.542-2.069-7.406-.921-4.279-2.577-5.889-6.211-6.027h-3.773v13.433h-4Zm4,14.124h4.1c4.279,0,6.992-2.346,6.992-5.889,0-4-2.9-5.751-7.13-5.8a16.475,16.475,0,0,0-3.957.368Z" transform="translate(-56 -255.68)"/></svg>