<svg id="Layer_2" data-name="Layer 2" xmlns="http://www.w3.org/2000/svg" viewBox="0 0 1463.713 266.821"><defs><style>.cls-1,.cls-2{fill:none;stroke:#000;}.cls-1{stroke-width:6px;}.cls-2{stroke-miterlimit:10;stroke-width:3px;}</style></defs><rect class="cls-1" x="48.084" y="46.316" width="320" height="169"/><path d="M373.484,418.917a73.943,73.943,0,0,1,13.94-1.227c7.628,0,12.538,1.315,16.221,4.3a12.393,12.393,0,0,1,4.91,10.434c0,5.7-3.77,10.7-10,12.976v.175c5.611,1.4,12.187,6.05,12.187,14.818a15.929,15.929,0,0,1-5,11.836c-4.121,3.77-10.784,5.524-20.429,5.524a89.093,89.093,0,0,1-11.836-.7Zm7.628,24.2h6.926c8.066,0,12.8-4.208,12.8-9.907,0-6.927-5.261-9.645-12.976-9.645a32.711,32.711,0,0,0-6.751.526Zm0,28.32a40.746,40.746,0,0,0,6.4.351c7.891,0,15.168-2.893,15.168-11.486,0-8.066-6.926-11.4-15.256-11.4h-6.312Z" transform="translate(-254.642 -324.684)"/><path d="M420.74,414.972h7.716v62.251H420.74Z" transform="translate(-254.642 -324.684)"/><path d="M479.833,455.654c0,15.694-10.871,22.533-21.129,22.533-11.486,0-20.342-8.417-20.342-21.832,0-14.2,9.294-22.532,21.043-22.532C471.592,433.823,479.833,442.678,479.833,455.654Zm-33.667.438c0,9.294,5.348,16.308,12.888,16.308,7.365,0,12.889-6.926,12.889-16.483,0-7.189-3.595-16.308-12.714-16.308S446.166,448.026,446.166,456.092Z" transform="translate(-254.642 -324.684)"/><path d="M519.813,475.645a28.418,28.418,0,0,1-12.187,2.455c-12.8,0-21.13-8.681-21.13-21.657,0-13.064,8.943-22.533,22.8-22.533a25.791,25.791,0,0,1,10.7,2.192l-1.754,5.962a17.892,17.892,0,0,0-8.943-2.016c-9.732,0-14.993,7.189-14.993,16.044,0,9.82,6.313,15.87,14.73,15.87a21.93,21.93,0,0,0,9.47-2.1Z" transform="translate(-254.642 -324.684)"/><path d="M536.471,454.251h.175c1.053-1.49,2.543-3.332,3.771-4.822l12.45-14.642h9.294l-16.4,17.448,18.675,24.988h-9.381l-14.642-20.341-3.946,4.384v15.957h-7.628V414.972h7.628Z" transform="translate(-254.642 -324.684)"/><path d="M258.645,554.754v12.974h15V554.754h4.048v31.008h-4.048V571.224h-15v14.538h-4V554.754Z" transform="translate(-254.642 -324.684)"/><path d="M296.825,585.762l-.322-2.807h-.138a8.3,8.3,0,0,1-6.809,3.313c-4.508,0-6.808-3.174-6.808-6.395,0-5.383,4.784-8.327,13.387-8.281v-.46c0-1.84-.506-5.153-5.061-5.153a11.084,11.084,0,0,0-5.8,1.657l-.921-2.668a13.815,13.815,0,0,1,7.315-1.979c6.809,0,8.465,4.647,8.465,9.11v8.326a31.368,31.368,0,0,0,.368,5.337Zm-.6-11.364c-4.416-.091-9.431.691-9.431,5.015a3.582,3.582,0,0,0,3.818,3.864A5.538,5.538,0,0,0,296,579.551a4.225,4.225,0,0,0,.23-1.288Z" transform="translate(-254.642 -324.684)"/><path d="M306.115,581.621a10.616,10.616,0,0,0,5.337,1.61c2.944,0,4.324-1.472,4.324-3.312,0-1.932-1.15-2.99-4.14-4.1-4-1.426-5.888-3.634-5.888-6.3,0-3.587,2.9-6.532,7.682-6.532a11.114,11.114,0,0,1,5.475,1.38l-1.012,2.944a8.675,8.675,0,0,0-4.555-1.288c-2.392,0-3.726,1.38-3.726,3.037,0,1.84,1.334,2.668,4.232,3.772,3.864,1.473,5.843,3.4,5.843,6.717,0,3.911-3.037,6.671-8.327,6.671A12.683,12.683,0,0,1,305.1,584.7Z" transform="translate(-254.642 -324.684)"/><path d="M324.883,553.1h4.049v13.893h.092a7.509,7.509,0,0,1,2.9-2.851,8.322,8.322,0,0,1,4.14-1.151c2.991,0,7.775,1.84,7.775,9.523v13.25h-4.048V572.973c0-3.589-1.334-6.625-5.153-6.625a5.816,5.816,0,0,0-5.428,4.048,4.9,4.9,0,0,0-.276,1.932v13.434h-4.049Z" transform="translate(-254.642 -324.684)"/><path d="M368.952,553.834c-3.359,4.509-5.8,10.489-5.8,18.816a31,31,0,0,0,5.8,18.678h-3.175a29.738,29.738,0,0,1-6.027-18.678,30.366,30.366,0,0,1,6.027-18.816Z" transform="translate(-254.642 -324.684)"/><path d="M391.814,570.488c0,10.167-3.772,15.78-10.4,15.78-5.843,0-9.8-5.475-9.891-15.366,0-10.029,4.324-15.549,10.4-15.549C388.226,555.353,391.814,560.965,391.814,570.488Zm-16.24.46c0,7.775,2.393,12.192,6.073,12.192,4.141,0,6.119-4.831,6.119-12.468,0-7.36-1.887-12.192-6.073-12.192C378.15,558.48,375.574,562.8,375.574,570.948Z" transform="translate(-254.642 -324.684)"/><path d="M415.412,570.488c0,10.167-3.773,15.78-10.4,15.78-5.843,0-9.8-5.475-9.891-15.366,0-10.029,4.324-15.549,10.4-15.549C411.823,555.353,415.412,560.965,415.412,570.488Zm-16.24.46c0,7.775,2.392,12.192,6.073,12.192,4.14,0,6.118-4.831,6.118-12.468,0-7.36-1.886-12.192-6.072-12.192C401.748,558.48,399.172,562.8,399.172,570.948Z" transform="translate(-254.642 -324.684)"/><path d="M439.009,570.488c0,10.167-3.773,15.78-10.4,15.78-5.843,0-9.8-5.475-9.891-15.366,0-10.029,4.324-15.549,10.4-15.549C435.42,555.353,439.009,560.965,439.009,570.488Zm-16.24.46c0,7.775,2.392,12.192,6.073,12.192,4.14,0,6.118-4.831,6.118-12.468,0-7.36-1.886-12.192-6.072-12.192C425.345,558.48,422.769,562.8,422.769,570.948Z" transform="translate(-254.642 -324.684)"/><path d="M462.606,570.488c0,10.167-3.773,15.78-10.4,15.78-5.843,0-9.8-5.475-9.891-15.366,0-10.029,4.324-15.549,10.4-15.549C459.018,555.353,462.606,560.965,462.606,570.488Zm-16.24.46c0,7.775,2.393,12.192,6.073,12.192,4.141,0,6.119-4.831,6.119-12.468,0-7.36-1.887-12.192-6.073-12.192C448.942,558.48,446.366,562.8,446.366,570.948Z" transform="translate(-254.642 -324.684)"/><path d="M486.2,570.488c0,10.167-3.773,15.78-10.4,15.78-5.843,0-9.8-5.475-9.891-15.366,0-10.029,4.324-15.549,10.4-15.549C482.615,555.353,486.2,560.965,486.2,570.488Zm-16.24.46c0,7.775,2.392,12.192,6.073,12.192,4.14,0,6.118-4.831,6.118-12.468,0-7.36-1.886-12.192-6.072-12.192C472.54,558.48,469.964,562.8,469.964,570.948Z" transform="translate(-254.642 -324.684)"/><path d="M509.8,570.488c0,10.167-3.773,15.78-10.4,15.78-5.843,0-9.8-5.475-9.891-15.366,0-10.029,4.324-15.549,10.4-15.549C506.212,555.353,509.8,560.965,509.8,570.488Zm-16.24.46c0,7.775,2.392,12.192,6.073,12.192,4.14,0,6.118-4.831,6.118-12.468,0-7.36-1.886-12.192-6.072-12.192C496.137,558.48,493.561,562.8,493.561,570.948Z" transform="translate(-254.642 -324.684)"/><path d="M536.387,561.287V572.1h10.4v2.759h-10.4v10.9h-2.945v-10.9h-10.4V572.1h10.4V561.287Z" transform="translate(-254.642 -324.684)"/><path d="M561.869,555.168a38.783,38.783,0,0,1,7.315-.644c4,0,6.579.69,8.511,2.254a6.5,6.5,0,0,1,2.576,5.475c0,2.99-1.978,5.612-5.245,6.809v.092a7.991,7.991,0,0,1,6.4,7.775,8.361,8.361,0,0,1-2.622,6.211c-2.162,1.977-5.659,2.9-10.719,2.9a46.791,46.791,0,0,1-6.211-.368Zm4,12.7h3.634c4.232,0,6.717-2.208,6.717-5.2,0-3.635-2.761-5.061-6.809-5.061a17.07,17.07,0,0,0-3.542.277Zm0,14.861a21.523,21.523,0,0,0,3.358.183c4.14,0,7.958-1.517,7.958-6.026,0-4.233-3.634-5.981-8-5.981h-3.312Z" transform="translate(-254.642 -324.684)"/><path d="M586.663,553.1h4.048v32.664h-4.048Z" transform="translate(-254.642 -324.684)"/><path d="M617.668,574.444c0,8.236-5.7,11.824-11.087,11.824-6.027,0-10.673-4.416-10.673-11.456,0-7.453,4.876-11.823,11.041-11.823C613.344,562.989,617.668,567.636,617.668,574.444ZM600,574.675c0,4.876,2.807,8.556,6.763,8.556,3.864,0,6.763-3.634,6.763-8.649,0-3.772-1.886-8.557-6.671-8.557S600,570.442,600,574.675Z" transform="translate(-254.642 -324.684)"/><path d="M638.644,584.934a14.935,14.935,0,0,1-6.395,1.288c-6.717,0-11.087-4.555-11.087-11.364,0-6.854,4.692-11.823,11.961-11.823a13.515,13.515,0,0,1,5.613,1.151l-.921,3.127a9.394,9.394,0,0,0-4.692-1.057c-5.106,0-7.867,3.772-7.867,8.419,0,5.152,3.313,8.326,7.729,8.326a11.5,11.5,0,0,0,4.969-1.1Z" transform="translate(-254.642 -324.684)"/><path d="M647.382,573.708h.092c.552-.782,1.335-1.748,1.979-2.53l6.532-7.683h4.877l-8.6,9.155,9.8,13.112h-4.923l-7.682-10.673-2.071,2.3v8.373h-4V553.1h4Z" transform="translate(-254.642 -324.684)"/><path d="M662.515,591.328a31.132,31.132,0,0,0,5.8-18.816,30.493,30.493,0,0,0-5.8-18.678h3.129c2.944,3.772,6.026,9.661,6.026,18.725a29.863,29.863,0,0,1-6.026,18.769Z" transform="translate(-254.642 -324.684)"/><rect class="cls-1" x="545.358" y="46.316" width="320" height="169"/><path d="M870.758,418.917a73.943,73.943,0,0,1,13.94-1.227c7.628,0,12.538,1.315,16.22,4.3a12.391,12.391,0,0,1,4.911,10.434c0,5.7-3.77,10.7-10,12.976v.175c5.612,1.4,12.188,6.05,12.188,14.818a15.929,15.929,0,0,1-5,11.836c-4.121,3.77-10.784,5.524-20.429,5.524a89.081,89.081,0,0,1-11.836-.7Zm7.628,24.2h6.926c8.066,0,12.8-4.208,12.8-9.907,0-6.927-5.261-9.645-12.976-9.645a32.711,32.711,0,0,0-6.751.526Zm0,28.32a40.746,40.746,0,0,0,6.4.351c7.891,0,15.168-2.893,15.168-11.486,0-8.066-6.926-11.4-15.256-11.4h-6.312Z" transform="translate(-254.642 -324.684)"/><path d="M918.014,414.972h7.716v62.251h-7.716Z" transform="translate(-254.642 -324.684)"/><path d="M977.107,455.654c0,15.694-10.871,22.533-21.129,22.533-11.486,0-20.342-8.417-20.342-21.832,0-14.2,9.294-22.532,21.043-22.532C968.866,433.823,977.107,442.678,977.107,455.654Zm-33.668.438c0,9.294,5.349,16.308,12.889,16.308,7.365,0,12.889-6.926,12.889-16.483,0-7.189-3.6-16.308-12.714-16.308S943.439,448.026,943.439,456.092Z" transform="translate(-254.642 -324.684)"/><path d="M1017.088,475.645A28.427,28.427,0,0,1,1004.9,478.1c-12.8,0-21.13-8.681-21.13-21.657,0-13.064,8.943-22.533,22.8-22.533a25.8,25.8,0,0,1,10.7,2.192l-1.753,5.962a17.9,17.9,0,0,0-8.944-2.016c-9.732,0-14.993,7.189-14.993,16.044,0,9.82,6.314,15.87,14.73,15.87a21.921,21.921,0,0,0,9.469-2.1Z" transform="translate(-254.642 -324.684)"/><path d="M1033.745,454.251h.175c1.053-1.49,2.543-3.332,3.77-4.822l12.451-14.642h9.294l-16.4,17.448,18.675,24.988h-9.382l-14.642-20.341-3.945,4.384v15.957h-7.628V414.972h7.628Z" transform="translate(-254.642 -324.684)"/><path d="M862.261,326.708a46.384,46.384,0,0,1,7.682-.6c3.957,0,6.855.92,8.7,2.577a8.331,8.331,0,0,1,2.715,6.486,9.13,9.13,0,0,1-2.393,6.625c-2.116,2.254-5.566,3.4-9.477,3.4a13.775,13.775,0,0,1-3.22-.276v12.422h-4Zm4,14.952a13.426,13.426,0,0,0,3.312.321c4.831,0,7.775-2.345,7.775-6.624,0-4.094-2.9-6.073-7.314-6.073a16.859,16.859,0,0,0-3.773.322Z" transform="translate(-254.642 -324.684)"/><path d="M885.859,342.028c0-2.623-.046-4.877-.184-6.947h3.542l.138,4.37h.184a6.681,6.681,0,0,1,6.165-4.876,4.378,4.378,0,0,1,1.15.138v3.818a6.085,6.085,0,0,0-1.38-.137c-2.852,0-4.877,2.162-5.429,5.2a11.406,11.406,0,0,0-.184,1.887v11.869h-4Z" transform="translate(-254.642 -324.684)"/><path d="M902.7,346.95c.092,5.475,3.589,7.73,7.637,7.73a14.641,14.641,0,0,0,6.165-1.151l.69,2.9a18.055,18.055,0,0,1-7.407,1.38c-6.855,0-10.949-4.509-10.949-11.226s3.956-12.007,10.443-12.007c7.269,0,9.2,6.4,9.2,10.489a15.251,15.251,0,0,1-.138,1.886Zm11.869-2.9c.046-2.576-1.058-6.578-5.612-6.578-4.1,0-5.889,3.772-6.211,6.578Z" transform="translate(-254.642 -324.684)"/><path d="M925.05,335.081l4.371,12.514a57.255,57.255,0,0,1,1.794,5.7h.138c.506-1.84,1.15-3.68,1.886-5.7l4.325-12.514H941.8l-8.741,22.267h-3.864l-8.465-22.267Z" transform="translate(-254.642 -324.684)"/><path d="M965.256,360.8v2.3h-23v-2.3Z" transform="translate(-254.642 -324.684)"/><path d="M972.753,326.34v12.973h15V326.34H991.8v31.008H987.75V342.81h-15v14.538h-4V326.34Z" transform="translate(-254.642 -324.684)"/><path d="M1010.934,357.348l-.323-2.807h-.138a8.294,8.294,0,0,1-6.809,3.313c-4.508,0-6.809-3.174-6.809-6.395,0-5.383,4.785-8.327,13.388-8.281v-.46c0-1.84-.506-5.153-5.06-5.153a11.085,11.085,0,0,0-5.8,1.657l-.92-2.668a13.811,13.811,0,0,1,7.314-1.979c6.809,0,8.465,4.647,8.465,9.11v8.326a31.471,31.471,0,0,0,.368,5.337Zm-.6-11.364c-4.416-.091-9.431.691-9.431,5.015a3.582,3.582,0,0,0,3.819,3.864,5.539,5.539,0,0,0,5.382-3.726,4.225,4.225,0,0,0,.23-1.288Z" transform="translate(-254.642 -324.684)"/><path d="M1020.224,353.207a10.61,10.61,0,0,0,5.337,1.61c2.944,0,4.324-1.472,4.324-3.312,0-1.932-1.151-2.99-4.141-4.095-4-1.426-5.889-3.634-5.889-6.3,0-3.587,2.9-6.532,7.683-6.532a11.114,11.114,0,0,1,5.475,1.38L1032,338.9a8.675,8.675,0,0,0-4.555-1.288c-2.392,0-3.726,1.38-3.726,3.036,0,1.841,1.334,2.669,4.232,3.773,3.864,1.473,5.843,3.4,5.843,6.717,0,3.911-3.036,6.671-8.327,6.671a12.683,12.683,0,0,1-6.256-1.519Z" transform="translate(-254.642 -324.684)"/><path d="M1038.991,324.684h4.049v13.893h.092a7.509,7.509,0,0,1,2.9-2.851,8.326,8.326,0,0,1,4.141-1.151c2.99,0,7.774,1.84,7.774,9.523v13.25H1053.9V344.559c0-3.589-1.334-6.625-5.153-6.625a5.815,5.815,0,0,0-5.428,4.047,4.909,4.909,0,0,0-.276,1.933v13.434h-4.049Z" transform="translate(-254.642 -324.684)"/><path d="M413.708,342.075c0,10.167-3.772,15.779-10.4,15.779-5.843,0-9.8-5.475-9.892-15.365,0-10.03,4.325-15.55,10.4-15.55C410.12,326.939,413.708,332.551,413.708,342.075Zm-16.239.46c0,7.774,2.392,12.191,6.073,12.191,4.14,0,6.118-4.831,6.118-12.468,0-7.36-1.886-12.191-6.073-12.191C400.045,330.067,397.469,334.391,397.469,342.535Z" transform="translate(-254.642 -324.684)"/><path d="M437.306,342.075c0,10.167-3.773,15.779-10.4,15.779-5.843,0-9.8-5.475-9.891-15.365,0-10.03,4.324-15.55,10.4-15.55C433.717,326.939,437.306,332.551,437.306,342.075Zm-16.24.46c0,7.774,2.392,12.191,6.073,12.191,4.14,0,6.118-4.831,6.118-12.468,0-7.36-1.886-12.191-6.072-12.191C423.642,330.067,421.066,334.391,421.066,342.535Z" transform="translate(-254.642 -324.684)"/><path d="M460.9,342.075c0,10.167-3.772,15.779-10.4,15.779-5.842,0-9.8-5.475-9.891-15.365,0-10.03,4.324-15.55,10.4-15.55C457.315,326.939,460.9,332.551,460.9,342.075Zm-16.239.46c0,7.774,2.392,12.191,6.072,12.191,4.141,0,6.119-4.831,6.119-12.468,0-7.36-1.886-12.191-6.073-12.191C447.24,330.067,444.664,334.391,444.664,342.535Z" transform="translate(-254.642 -324.684)"/><path d="M484.5,342.075c0,10.167-3.772,15.779-10.4,15.779-5.843,0-9.8-5.475-9.892-15.365,0-10.03,4.325-15.55,10.4-15.55C480.912,326.939,484.5,332.551,484.5,342.075Zm-16.239.46c0,7.774,2.392,12.191,6.072,12.191,4.141,0,6.119-4.831,6.119-12.468,0-7.36-1.886-12.191-6.073-12.191C470.837,330.067,468.261,334.391,468.261,342.535Z" transform="translate(-254.642 -324.684)"/><path d="M508.1,342.075c0,10.167-3.773,15.779-10.4,15.779-5.843,0-9.8-5.475-9.891-15.365,0-10.03,4.324-15.55,10.4-15.55C504.509,326.939,508.1,332.551,508.1,342.075Zm-16.24.46c0,7.774,2.392,12.191,6.073,12.191,4.14,0,6.118-4.831,6.118-12.468,0-7.36-1.886-12.191-6.072-12.191C494.434,330.067,491.858,334.391,491.858,342.535Z" transform="translate(-254.642 -324.684)"/><path d="M531.7,342.075c0,10.167-3.772,15.779-10.4,15.779-5.842,0-9.8-5.475-9.891-15.365,0-10.03,4.324-15.55,10.4-15.55C528.107,326.939,531.7,332.551,531.7,342.075Zm-16.239.46c0,7.774,2.392,12.191,6.072,12.191,4.141,0,6.119-4.831,6.119-12.468,0-7.36-1.886-12.191-6.073-12.191C518.032,330.067,515.456,334.391,515.456,342.535Z" transform="translate(-254.642 -324.684)"/><path d="M725.515,554.746V567.72h15V554.746h4.048v31.008h-4.048V571.216h-15v14.538h-4V554.746Z" transform="translate(-254.642 -324.684)"/><path d="M763.7,585.754l-.322-2.807h-.139a8.292,8.292,0,0,1-6.808,3.313c-4.509,0-6.809-3.174-6.809-6.395,0-5.383,4.784-8.327,13.387-8.281v-.46c0-1.84-.5-5.152-5.06-5.152a11.087,11.087,0,0,0-5.8,1.656l-.92-2.668a13.821,13.821,0,0,1,7.315-1.979c6.809,0,8.465,4.647,8.465,9.11v8.326a31.36,31.36,0,0,0,.368,5.337Zm-.6-11.363c-4.417-.092-9.431.69-9.431,5.014a3.583,3.583,0,0,0,3.818,3.865,5.54,5.54,0,0,0,5.383-3.727,4.255,4.255,0,0,0,.23-1.288Z" transform="translate(-254.642 -324.684)"/><path d="M772.986,581.613a10.6,10.6,0,0,0,5.337,1.611c2.944,0,4.324-1.473,4.324-3.313,0-1.932-1.15-2.99-4.14-4.095-4-1.425-5.889-3.633-5.889-6.3,0-3.588,2.9-6.533,7.683-6.533a11.112,11.112,0,0,1,5.474,1.38l-1.012,2.945a8.665,8.665,0,0,0-4.554-1.288c-2.393,0-3.727,1.379-3.727,3.036,0,1.841,1.334,2.669,4.233,3.772,3.864,1.473,5.843,3.4,5.843,6.717,0,3.911-3.037,6.671-8.328,6.671a12.686,12.686,0,0,1-6.256-1.519Z" transform="translate(-254.642 -324.684)"/><path d="M791.754,553.09H795.8v13.893h.093a7.513,7.513,0,0,1,2.9-2.851,8.328,8.328,0,0,1,4.141-1.151c2.99,0,7.775,1.84,7.775,9.523v13.25H806.66V572.965c0-3.589-1.334-6.625-5.153-6.625a5.815,5.815,0,0,0-5.428,4.048,4.882,4.882,0,0,0-.277,1.932v13.434h-4.048Z" transform="translate(-254.642 -324.684)"/><path d="M835.822,553.826c-3.358,4.509-5.8,10.489-5.8,18.817a31,31,0,0,0,5.8,18.677h-3.174a29.737,29.737,0,0,1-6.027-18.677,30.367,30.367,0,0,1,6.027-18.817Z" transform="translate(-254.642 -324.684)"/><path d="M840.237,555.114a46.4,46.4,0,0,1,7.682-.6c3.957,0,6.855.92,8.7,2.576a8.334,8.334,0,0,1,2.714,6.486,9.132,9.132,0,0,1-2.392,6.625c-2.117,2.254-5.567,3.4-9.478,3.4a13.775,13.775,0,0,1-3.22-.276v12.422h-4Zm4,14.952a13.421,13.421,0,0,0,3.312.322c4.831,0,7.775-2.346,7.775-6.624,0-4.1-2.9-6.074-7.314-6.074a16.782,16.782,0,0,0-3.773.323Z" transform="translate(-254.642 -324.684)"/><path d="M863.835,570.435c0-2.623-.046-4.877-.184-6.948h3.542l.139,4.37h.183a6.681,6.681,0,0,1,6.165-4.876,4.378,4.378,0,0,1,1.15.138v3.819a6.081,6.081,0,0,0-1.38-.138c-2.852,0-4.876,2.162-5.429,5.2a11.406,11.406,0,0,0-.184,1.887v11.869h-4Z" transform="translate(-254.642 -324.684)"/><path d="M880.671,575.356c.092,5.475,3.589,7.73,7.637,7.73a14.656,14.656,0,0,0,6.165-1.15l.69,2.9a18.039,18.039,0,0,1-7.407,1.38c-6.855,0-10.949-4.509-10.949-11.226s3.956-12.007,10.443-12.007c7.269,0,9.2,6.395,9.2,10.49a15.248,15.248,0,0,1-.138,1.885Zm11.87-2.9c.045-2.576-1.059-6.578-5.613-6.578-4.1,0-5.889,3.772-6.211,6.578Z" transform="translate(-254.642 -324.684)"/><path d="M903.027,563.487,907.4,576a57.011,57.011,0,0,1,1.795,5.7h.138c.506-1.84,1.15-3.68,1.886-5.7l4.325-12.514h4.232l-8.741,22.267h-3.865L898.7,563.487Z" transform="translate(-254.642 -324.684)"/><path d="M943.232,589.2v2.3h-23v-2.3Z" transform="translate(-254.642 -324.684)"/><path d="M950.729,554.746V567.72h15V554.746h4.048v31.008h-4.048V571.216h-15v14.538h-4V554.746Z" transform="translate(-254.642 -324.684)"/><path d="M988.91,585.754l-.322-2.807h-.139a8.292,8.292,0,0,1-6.808,3.313c-4.508,0-6.809-3.174-6.809-6.395,0-5.383,4.784-8.327,13.388-8.281v-.46c0-1.84-.506-5.152-5.061-5.152a11.09,11.09,0,0,0-5.8,1.656l-.92-2.668a13.821,13.821,0,0,1,7.315-1.979c6.808,0,8.465,4.647,8.465,9.11v8.326a31.36,31.36,0,0,0,.368,5.337Zm-.6-11.363c-4.416-.092-9.431.69-9.431,5.014a3.583,3.583,0,0,0,3.818,3.865,5.539,5.539,0,0,0,5.383-3.727,4.225,4.225,0,0,0,.23-1.288Z" transform="translate(-254.642 -324.684)"/><path d="M998.2,581.613a10.606,10.606,0,0,0,5.337,1.611c2.944,0,4.324-1.473,4.324-3.313,0-1.932-1.149-2.99-4.139-4.095-4-1.425-5.889-3.633-5.889-6.3,0-3.588,2.9-6.533,7.683-6.533a11.112,11.112,0,0,1,5.474,1.38l-1.012,2.945a8.665,8.665,0,0,0-4.554-1.288c-2.393,0-3.727,1.379-3.727,3.036,0,1.841,1.334,2.669,4.233,3.772,3.864,1.473,5.842,3.4,5.842,6.717,0,3.911-3.037,6.671-8.327,6.671a12.686,12.686,0,0,1-6.256-1.519Z" transform="translate(-254.642 -324.684)"/><path d="M1016.968,553.09h4.048v13.893h.092a7.516,7.516,0,0,1,2.9-2.851,8.325,8.325,0,0,1,4.14-1.151c2.991,0,7.776,1.84,7.776,9.523v13.25h-4.049V572.965c0-3.589-1.334-6.625-5.152-6.625a5.817,5.817,0,0,0-5.429,4.048,4.9,4.9,0,0,0-.276,1.932v13.434h-4.048Z" transform="translate(-254.642 -324.684)"/><path d="M1064.072,561.279v10.812h10.4v2.76h-10.4v10.9h-2.944v-10.9h-10.4v-2.76h10.4V561.279Z" transform="translate(-254.642 -324.684)"/><path d="M1089.555,555.16a38.782,38.782,0,0,1,7.314-.643c4,0,6.579.689,8.511,2.254a6.5,6.5,0,0,1,2.576,5.474c0,2.99-1.977,5.612-5.244,6.809v.092a7.991,7.991,0,0,1,6.394,7.775,8.358,8.358,0,0,1-2.622,6.211c-2.162,1.977-5.659,2.9-10.719,2.9a46.785,46.785,0,0,1-6.21-.368Zm4,12.7h3.634c4.233,0,6.717-2.208,6.717-5.2,0-3.635-2.761-5.06-6.808-5.06a17.1,17.1,0,0,0-3.543.276Zm0,14.861a21.531,21.531,0,0,0,3.358.183c4.141,0,7.959-1.517,7.959-6.026,0-4.232-3.635-5.98-8.005-5.98h-3.312Z" transform="translate(-254.642 -324.684)"/><path d="M1114.348,553.09h4.048v32.664h-4.048Z" transform="translate(-254.642 -324.684)"/><path d="M1145.354,574.437c0,8.235-5.705,11.823-11.087,11.823-6.028,0-10.674-4.416-10.674-11.455,0-7.453,4.877-11.824,11.042-11.824C1141.029,562.981,1145.354,567.628,1145.354,574.437Zm-17.666.23c0,4.876,2.806,8.557,6.762,8.557,3.864,0,6.763-3.635,6.763-8.65,0-3.772-1.886-8.556-6.671-8.556S1127.688,570.435,1127.688,574.667Z" transform="translate(-254.642 -324.684)"/><path d="M1166.329,584.926a14.91,14.91,0,0,1-6.394,1.288c-6.717,0-11.088-4.555-11.088-11.363,0-6.855,4.693-11.824,11.962-11.824a13.513,13.513,0,0,1,5.612,1.151l-.92,3.128a9.387,9.387,0,0,0-4.692-1.058c-5.107,0-7.868,3.773-7.868,8.419,0,5.152,3.313,8.326,7.73,8.326a11.5,11.5,0,0,0,4.968-1.1Z" transform="translate(-254.642 -324.684)"/><path d="M1175.067,573.7h.092c.553-.782,1.335-1.748,1.979-2.53l6.533-7.683h4.876l-8.6,9.156,9.8,13.111h-4.923l-7.682-10.673-2.071,2.3v8.373h-4V553.09h4Z" transform="translate(-254.642 -324.684)"/><path d="M1190.2,591.32A31.129,31.129,0,0,0,1196,572.5a30.5,30.5,0,0,0-5.8-18.678h3.129c2.944,3.773,6.026,9.661,6.026,18.725a29.863,29.863,0,0,1-6.026,18.769Z" transform="translate(-254.642 -324.684)"/><line class="cls-2" x1="383.358" y1="215.316" x2="574.229" y2="46.576"/><polygon points="580.857 60.682 590.358 32.316 561.041 38.267 580.857 60.682"/><rect class="cls-1" x="1064.358" y="46.316" width="320" height="169"/><path d="M1389.758,418.917a73.952,73.952,0,0,1,13.94-1.227c7.628,0,12.538,1.315,16.22,4.3a12.391,12.391,0,0,1,4.91,10.434c0,5.7-3.769,10.7-9.994,12.976v.175c5.611,1.4,12.187,6.05,12.187,14.818a15.929,15.929,0,0,1-5,11.836c-4.121,3.77-10.785,5.524-20.429,5.524a89.105,89.105,0,0,1-11.836-.7Zm7.628,24.2h6.926c8.067,0,12.8-4.208,12.8-9.907,0-6.927-5.261-9.645-12.976-9.645a32.711,32.711,0,0,0-6.751.526Zm0,28.32a40.746,40.746,0,0,0,6.4.351c7.891,0,15.168-2.893,15.168-11.486,0-8.066-6.927-11.4-15.256-11.4h-6.312Z" transform="translate(-254.642 -324.684)"/><path d="M1437.014,414.972h7.716v62.251h-7.716Z" transform="translate(-254.642 -324.684)"/><path d="M1496.107,455.654c0,15.694-10.871,22.533-21.129,22.533-11.486,0-20.341-8.417-20.341-21.832,0-14.2,9.293-22.532,21.042-22.532C1487.866,433.823,1496.107,442.678,1496.107,455.654Zm-33.668.438c0,9.294,5.349,16.308,12.889,16.308,7.365,0,12.889-6.926,12.889-16.483,0-7.189-3.6-16.308-12.713-16.308S1462.439,448.026,1462.439,456.092Z" transform="translate(-254.642 -324.684)"/><path d="M1536.088,475.645A28.427,28.427,0,0,1,1523.9,478.1c-12.8,0-21.13-8.681-21.13-21.657,0-13.064,8.943-22.533,22.8-22.533a25.8,25.8,0,0,1,10.7,2.192l-1.753,5.962a17.9,17.9,0,0,0-8.944-2.016c-9.732,0-14.993,7.189-14.993,16.044,0,9.82,6.314,15.87,14.73,15.87a21.921,21.921,0,0,0,9.469-2.1Z" transform="translate(-254.642 -324.684)"/><path d="M1552.745,454.251h.175c1.053-1.49,2.543-3.332,3.77-4.822l12.451-14.642h9.294l-16.4,17.448,18.675,24.988h-9.382l-14.642-20.341-3.945,4.384v15.957h-7.628V414.972h7.628Z" transform="translate(-254.642 -324.684)"/><path d="M1381.261,326.708a46.394,46.394,0,0,1,7.682-.6c3.957,0,6.856.92,8.7,2.577a8.334,8.334,0,0,1,2.714,6.486,9.133,9.133,0,0,1-2.392,6.625c-2.116,2.254-5.566,3.4-9.478,3.4a13.766,13.766,0,0,1-3.219-.276v12.422h-4Zm4,14.952a13.418,13.418,0,0,0,3.311.321c4.831,0,7.776-2.345,7.776-6.624,0-4.094-2.9-6.073-7.315-6.073a16.842,16.842,0,0,0-3.772.322Z" transform="translate(-254.642 -324.684)"/><path d="M1404.859,342.028c0-2.623-.046-4.877-.184-6.947h3.543l.137,4.37h.184a6.682,6.682,0,0,1,6.165-4.876,4.378,4.378,0,0,1,1.15.138v3.818a6.082,6.082,0,0,0-1.379-.137c-2.853,0-4.877,2.162-5.429,5.2a11.294,11.294,0,0,0-.185,1.887v11.869h-4Z" transform="translate(-254.642 -324.684)"/><path d="M1421.7,346.95c.092,5.475,3.589,7.73,7.637,7.73a14.641,14.641,0,0,0,6.165-1.151l.691,2.9a18.065,18.065,0,0,1-7.408,1.38c-6.854,0-10.949-4.509-10.949-11.226s3.956-12.007,10.443-12.007c7.269,0,9.2,6.4,9.2,10.489a15.209,15.209,0,0,1-.139,1.886Zm11.869-2.9c.046-2.576-1.057-6.578-5.612-6.578-4.1,0-5.889,3.772-6.211,6.578Z" transform="translate(-254.642 -324.684)"/><path d="M1444.051,335.081l4.37,12.514a57.272,57.272,0,0,1,1.795,5.7h.138c.5-1.84,1.15-3.68,1.885-5.7l4.325-12.514h4.233l-8.741,22.267h-3.865l-8.464-22.267Z" transform="translate(-254.642 -324.684)"/><path d="M1484.256,360.8v2.3h-23v-2.3Z" transform="translate(-254.642 -324.684)"/><path d="M1491.753,326.34v12.973h15V326.34h4.049v31.008h-4.049V342.81h-15v14.538h-4V326.34Z" transform="translate(-254.642 -324.684)"/><path d="M1529.934,357.348l-.323-2.807h-.138a8.294,8.294,0,0,1-6.809,3.313c-4.508,0-6.809-3.174-6.809-6.395,0-5.383,4.785-8.327,13.388-8.281v-.46c0-1.84-.506-5.153-5.06-5.153a11.085,11.085,0,0,0-5.8,1.657l-.92-2.668a13.811,13.811,0,0,1,7.314-1.979c6.809,0,8.465,4.647,8.465,9.11v8.326a31.471,31.471,0,0,0,.368,5.337Zm-.6-11.364c-4.416-.091-9.431.691-9.431,5.015a3.582,3.582,0,0,0,3.819,3.864,5.539,5.539,0,0,0,5.382-3.726,4.225,4.225,0,0,0,.23-1.288Z" transform="translate(-254.642 -324.684)"/><path d="M1539.224,353.207a10.61,10.61,0,0,0,5.337,1.61c2.944,0,4.324-1.472,4.324-3.312,0-1.932-1.151-2.99-4.141-4.095-4-1.426-5.889-3.634-5.889-6.3,0-3.587,2.9-6.532,7.683-6.532a11.114,11.114,0,0,1,5.475,1.38L1551,338.9a8.675,8.675,0,0,0-4.555-1.288c-2.392,0-3.726,1.38-3.726,3.036,0,1.841,1.334,2.669,4.232,3.773,3.864,1.473,5.843,3.4,5.843,6.717,0,3.911-3.036,6.671-8.327,6.671a12.683,12.683,0,0,1-6.256-1.519Z" transform="translate(-254.642 -324.684)"/><path d="M1557.991,324.684h4.049v13.893h.092a7.509,7.509,0,0,1,2.9-2.851,8.326,8.326,0,0,1,4.141-1.151c2.99,0,7.774,1.84,7.774,9.523v13.25H1572.9V344.559c0-3.589-1.334-6.625-5.153-6.625a5.815,5.815,0,0,0-5.428,4.047,4.909,4.909,0,0,0-.276,1.933v13.434h-4.049Z" transform="translate(-254.642 -324.684)"/><path d="M1244.516,554.746V567.72h15V554.746h4.049v31.008h-4.049V571.216h-15v14.538h-4V554.746Z" transform="translate(-254.642 -324.684)"/><path d="M1282.7,585.754l-.322-2.807h-.139a8.29,8.29,0,0,1-6.808,3.313c-4.508,0-6.809-3.174-6.809-6.395,0-5.383,4.784-8.327,13.388-8.281v-.46c0-1.84-.506-5.152-5.061-5.152a11.09,11.09,0,0,0-5.8,1.656l-.919-2.668a13.815,13.815,0,0,1,7.314-1.979c6.809,0,8.465,4.647,8.465,9.11v8.326a31.463,31.463,0,0,0,.368,5.337Zm-.6-11.363c-4.416-.092-9.431.69-9.431,5.014a3.583,3.583,0,0,0,3.818,3.865,5.539,5.539,0,0,0,5.383-3.727,4.225,4.225,0,0,0,.23-1.288Z" transform="translate(-254.642 -324.684)"/><path d="M1291.986,581.613a10.606,10.606,0,0,0,5.337,1.611c2.945,0,4.324-1.473,4.324-3.313,0-1.932-1.15-2.99-4.14-4.095-4-1.425-5.889-3.633-5.889-6.3,0-3.588,2.9-6.533,7.683-6.533a11.109,11.109,0,0,1,5.474,1.38l-1.011,2.945a8.669,8.669,0,0,0-4.555-1.288c-2.393,0-3.727,1.379-3.727,3.036,0,1.841,1.334,2.669,4.233,3.772,3.864,1.473,5.843,3.4,5.843,6.717,0,3.911-3.037,6.671-8.328,6.671a12.682,12.682,0,0,1-6.255-1.519Z" transform="translate(-254.642 -324.684)"/><path d="M1310.754,553.09h4.049v13.893h.092a7.509,7.509,0,0,1,2.9-2.851,8.323,8.323,0,0,1,4.141-1.151c2.99,0,7.774,1.84,7.774,9.523v13.25h-4.048V572.965c0-3.589-1.334-6.625-5.153-6.625a5.815,5.815,0,0,0-5.428,4.048,4.9,4.9,0,0,0-.276,1.932v13.434h-4.049Z" transform="translate(-254.642 -324.684)"/><path d="M1354.822,553.826c-3.358,4.509-5.8,10.489-5.8,18.817a31,31,0,0,0,5.8,18.677h-3.174a29.737,29.737,0,0,1-6.027-18.677,30.367,30.367,0,0,1,6.027-18.817Z" transform="translate(-254.642 -324.684)"/><path d="M1359.237,555.114a46.4,46.4,0,0,1,7.683-.6c3.956,0,6.854.92,8.695,2.576a8.334,8.334,0,0,1,2.714,6.486,9.127,9.127,0,0,1-2.392,6.625c-2.117,2.254-5.567,3.4-9.477,3.4a13.784,13.784,0,0,1-3.221-.276v12.422h-4Zm4,14.952a13.43,13.43,0,0,0,3.313.322c4.83,0,7.774-2.346,7.774-6.624,0-4.1-2.9-6.074-7.314-6.074a16.8,16.8,0,0,0-3.773.323Z" transform="translate(-254.642 -324.684)"/><path d="M1382.835,570.435c0-2.623-.046-4.877-.184-6.948h3.542l.139,4.37h.184a6.679,6.679,0,0,1,6.165-4.876,4.365,4.365,0,0,1,1.149.138v3.819a6.081,6.081,0,0,0-1.38-.138c-2.852,0-4.876,2.162-5.429,5.2a11.521,11.521,0,0,0-.183,1.887v11.869h-4Z" transform="translate(-254.642 -324.684)"/><path d="M1399.672,575.356c.092,5.475,3.588,7.73,7.637,7.73a14.654,14.654,0,0,0,6.164-1.15l.69,2.9a18.035,18.035,0,0,1-7.407,1.38c-6.855,0-10.949-4.509-10.949-11.226s3.957-12.007,10.443-12.007c7.27,0,9.2,6.395,9.2,10.49a15.248,15.248,0,0,1-.138,1.885Zm11.869-2.9c.046-2.576-1.059-6.578-5.613-6.578-4.094,0-5.889,3.772-6.21,6.578Z" transform="translate(-254.642 -324.684)"/><path d="M1422.027,563.487,1426.4,576a57.011,57.011,0,0,1,1.8,5.7h.138c.506-1.84,1.15-3.68,1.886-5.7l4.325-12.514h4.232l-8.741,22.267h-3.864l-8.465-22.267Z" transform="translate(-254.642 -324.684)"/><path d="M1462.232,589.2v2.3h-23v-2.3Z" transform="translate(-254.642 -324.684)"/><path d="M1469.729,554.746V567.72h15V554.746h4.048v31.008h-4.048V571.216h-15v14.538h-4V554.746Z" transform="translate(-254.642 -324.684)"/><path d="M1507.91,585.754l-.322-2.807h-.139a8.292,8.292,0,0,1-6.808,3.313c-4.508,0-6.809-3.174-6.809-6.395,0-5.383,4.784-8.327,13.388-8.281v-.46c0-1.84-.506-5.152-5.061-5.152a11.09,11.09,0,0,0-5.8,1.656l-.92-2.668a13.821,13.821,0,0,1,7.315-1.979c6.808,0,8.465,4.647,8.465,9.11v8.326a31.36,31.36,0,0,0,.368,5.337Zm-.6-11.363c-4.416-.092-9.431.69-9.431,5.014a3.583,3.583,0,0,0,3.818,3.865,5.539,5.539,0,0,0,5.383-3.727,4.225,4.225,0,0,0,.23-1.288Z" transform="translate(-254.642 -324.684)"/><path d="M1517.2,581.613a10.606,10.606,0,0,0,5.337,1.611c2.944,0,4.324-1.473,4.324-3.313,0-1.932-1.149-2.99-4.139-4.095-4-1.425-5.889-3.633-5.889-6.3,0-3.588,2.9-6.533,7.683-6.533a11.112,11.112,0,0,1,5.474,1.38l-1.012,2.945a8.665,8.665,0,0,0-4.554-1.288c-2.393,0-3.727,1.379-3.727,3.036,0,1.841,1.334,2.669,4.233,3.772,3.864,1.473,5.842,3.4,5.842,6.717,0,3.911-3.037,6.671-8.327,6.671a12.686,12.686,0,0,1-6.256-1.519Z" transform="translate(-254.642 -324.684)"/><path d="M1535.968,553.09h4.048v13.893h.092a7.516,7.516,0,0,1,2.9-2.851,8.325,8.325,0,0,1,4.14-1.151c2.991,0,7.776,1.84,7.776,9.523v13.25h-4.049V572.965c0-3.589-1.334-6.625-5.152-6.625a5.817,5.817,0,0,0-5.429,4.048,4.9,4.9,0,0,0-.276,1.932v13.434h-4.048Z" transform="translate(-254.642 -324.684)"/><path d="M1583.072,561.279v10.812h10.4v2.76h-10.4v10.9h-2.944v-10.9h-10.4v-2.76h10.4V561.279Z" transform="translate(-254.642 -324.684)"/><path d="M1608.555,555.16a38.782,38.782,0,0,1,7.314-.643c4,0,6.579.689,8.511,2.254a6.5,6.5,0,0,1,2.576,5.474c0,2.99-1.977,5.612-5.244,6.809v.092a7.991,7.991,0,0,1,6.394,7.775,8.358,8.358,0,0,1-2.622,6.211c-2.162,1.977-5.659,2.9-10.719,2.9a46.785,46.785,0,0,1-6.21-.368Zm4,12.7h3.634c4.233,0,6.717-2.208,6.717-5.2,0-3.635-2.761-5.06-6.808-5.06a17.1,17.1,0,0,0-3.543.276Zm0,14.861a21.531,21.531,0,0,0,3.358.183c4.141,0,7.959-1.517,7.959-6.026,0-4.232-3.635-5.98-8.005-5.98h-3.312Z" transform="translate(-254.642 -324.684)"/><path d="M1633.348,553.09h4.048v32.664h-4.048Z" transform="translate(-254.642 -324.684)"/><path d="M1664.354,574.437c0,8.235-5.705,11.823-11.087,11.823-6.028,0-10.674-4.416-10.674-11.455,0-7.453,4.877-11.824,11.042-11.824C1660.029,562.981,1664.354,567.628,1664.354,574.437Zm-17.666.23c0,4.876,2.806,8.557,6.762,8.557,3.864,0,6.763-3.635,6.763-8.65,0-3.772-1.886-8.556-6.671-8.556S1646.688,570.435,1646.688,574.667Z" transform="translate(-254.642 -324.684)"/><path d="M1685.329,584.926a14.91,14.91,0,0,1-6.394,1.288c-6.717,0-11.088-4.555-11.088-11.363,0-6.855,4.693-11.824,11.962-11.824a13.513,13.513,0,0,1,5.612,1.151l-.92,3.128a9.387,9.387,0,0,0-4.692-1.058c-5.107,0-7.868,3.773-7.868,8.419,0,5.152,3.313,8.326,7.73,8.326a11.5,11.5,0,0,0,4.968-1.1Z" transform="translate(-254.642 -324.684)"/><path d="M1694.067,573.7h.092c.553-.782,1.335-1.748,1.979-2.53l6.533-7.683h4.876l-8.6,9.156,9.8,13.111h-4.923l-7.682-10.673-2.071,2.3v8.373h-4V553.09h4Z" transform="translate(-254.642 -324.684)"/><path d="M1709.2,591.32A31.129,31.129,0,0,0,1715,572.5a30.5,30.5,0,0,0-5.8-18.678h3.129c2.944,3.773,6.026,9.661,6.026,18.725a29.863,29.863,0,0,1-6.026,18.769Z" transform="translate(-254.642 -324.684)"/><line class="cls-2" x1="902.358" y1="215.316" x2="1093.229" y2="46.576"/><polygon points="1099.857 60.682 1109.358 32.316 1080.041 38.267 1099.857 60.682"/></svg>