<svg id="Layer_3" data-name="Layer 3" xmlns="http://www.w3.org/2000/svg" viewBox="0 0 714 714"><defs><style>.cls-1{fill:none;stroke:#000;stroke-miterlimit:10;stroke-width:6px;}</style></defs><rect class="cls-1" x="3" y="3" width="708" height="708"/><path d="M653.226,288.507a38.772,38.772,0,0,1,7.315-.645c4,0,6.579.691,8.511,2.254a6.5,6.5,0,0,1,2.576,5.475c0,2.99-1.978,5.613-5.245,6.809v.092a7.992,7.992,0,0,1,6.395,7.775,8.36,8.36,0,0,1-2.622,6.211c-2.162,1.978-5.659,2.9-10.719,2.9a46.965,46.965,0,0,1-6.211-.368Zm4,12.7h3.634c4.232,0,6.717-2.209,6.717-5.2,0-3.634-2.761-5.061-6.809-5.061a17.143,17.143,0,0,0-3.542.277Zm0,14.859a21.376,21.376,0,0,0,3.358.184c4.14,0,7.958-1.518,7.958-6.026,0-4.233-3.634-5.981-8-5.981h-3.312Z" transform="translate(-603 -183)"/><path d="M678.02,286.437h4.048V319.1H678.02Z" transform="translate(-603 -183)"/><path d="M709.025,307.782c0,8.236-5.7,11.823-11.087,11.823-6.027,0-10.673-4.416-10.673-11.455,0-7.453,4.876-11.823,11.041-11.823C704.7,296.327,709.025,300.974,709.025,307.782Zm-17.666.231c0,4.876,2.807,8.556,6.763,8.556,3.864,0,6.763-3.633,6.763-8.648,0-3.773-1.886-8.558-6.671-8.558S691.359,303.78,691.359,308.013Z" transform="translate(-603 -183)"/><path d="M730,318.271a14.892,14.892,0,0,1-6.394,1.289c-6.717,0-11.087-4.554-11.087-11.364,0-6.854,4.692-11.823,11.961-11.823a13.549,13.549,0,0,1,5.613,1.15l-.921,3.128a9.4,9.4,0,0,0-4.692-1.057c-5.106,0-7.867,3.772-7.867,8.419,0,5.152,3.313,8.327,7.729,8.327a11.5,11.5,0,0,0,4.969-1.1Z" transform="translate(-603 -183)"/><path d="M738.739,307.047h.092c.552-.782,1.335-1.749,1.979-2.53l6.532-7.684h4.877l-8.6,9.155,9.8,13.112h-4.923l-7.682-10.673-2.071,2.3V319.1h-4V286.437h4Z" transform="translate(-603 -183)"/><path d="M770.2,288.093v12.972h15V288.093h4.049V319.1H785.2V304.562h-15V319.1h-4V288.093Z" transform="translate(-603 -183)"/><path d="M798.308,308.7c.092,5.475,3.588,7.729,7.637,7.729a14.62,14.62,0,0,0,6.164-1.151l.691,2.9a18.039,18.039,0,0,1-7.407,1.38c-6.855,0-10.95-4.508-10.95-11.225s3.957-12.008,10.444-12.008c7.269,0,9.2,6.395,9.2,10.489a15.271,15.271,0,0,1-.138,1.887Zm11.869-2.9c.046-2.576-1.058-6.579-5.613-6.579-4.094,0-5.888,3.772-6.21,6.579Z" transform="translate(-603 -183)"/><path d="M831.429,319.1l-.322-2.806h-.138a8.294,8.294,0,0,1-6.809,3.311c-4.508,0-6.808-3.173-6.808-6.394,0-5.383,4.784-8.327,13.387-8.28v-.461c0-1.84-.506-5.153-5.061-5.153a11.094,11.094,0,0,0-5.8,1.657l-.921-2.668a13.815,13.815,0,0,1,7.315-1.979c6.809,0,8.465,4.647,8.465,9.11v8.327a31.355,31.355,0,0,0,.368,5.336Zm-.6-11.364c-4.416-.091-9.431.691-9.431,5.015a3.582,3.582,0,0,0,3.818,3.864,5.54,5.54,0,0,0,5.383-3.726,4.225,4.225,0,0,0,.23-1.288Z" transform="translate(-603 -183)"/><path d="M860.5,286.437V313.35c0,1.977.046,4.232.184,5.75h-3.634l-.184-3.865h-.092a8.235,8.235,0,0,1-7.591,4.37c-5.383,0-9.523-4.553-9.523-11.316-.046-7.407,4.554-11.962,9.983-11.962,3.4,0,5.705,1.611,6.717,3.4h.092V286.437ZM856.453,305.9a7.151,7.151,0,0,0-.184-1.7,5.955,5.955,0,0,0-5.843-4.692c-4.186,0-6.671,3.68-6.671,8.6,0,4.509,2.208,8.236,6.579,8.236a6.087,6.087,0,0,0,5.935-4.831,7.031,7.031,0,0,0,.184-1.748Z" transform="translate(-603 -183)"/><path d="M869.469,308.7c.092,5.475,3.589,7.729,7.637,7.729a14.629,14.629,0,0,0,6.165-1.151l.69,2.9a18.039,18.039,0,0,1-7.407,1.38c-6.855,0-10.95-4.508-10.95-11.225s3.957-12.008,10.444-12.008c7.269,0,9.2,6.395,9.2,10.489a15.271,15.271,0,0,1-.138,1.887Zm11.869-2.9c.046-2.576-1.058-6.579-5.612-6.579-4.1,0-5.889,3.772-6.211,6.579Z" transform="translate(-603 -183)"/><path d="M890.261,303.78c0-2.622-.046-4.877-.184-6.947h3.542l.138,4.371h.184a6.682,6.682,0,0,1,6.165-4.877,4.378,4.378,0,0,1,1.15.138v3.819a6.024,6.024,0,0,0-1.38-.138c-2.853,0-4.876,2.162-5.429,5.2a11.37,11.37,0,0,0-.184,1.885V319.1h-4Z" transform="translate(-603 -183)"/><path d="M713.052,342.762a46.384,46.384,0,0,1,7.682-.6c3.957,0,6.855.92,8.7,2.577a8.336,8.336,0,0,1,2.714,6.487,9.127,9.127,0,0,1-2.393,6.624c-2.116,2.254-5.566,3.4-9.477,3.4a13.775,13.775,0,0,1-3.22-.276V373.4h-4Zm4,14.952a13.421,13.421,0,0,0,3.312.322c4.831,0,7.775-2.346,7.775-6.625,0-4.094-2.9-6.072-7.314-6.072a16.8,16.8,0,0,0-3.773.322Z" transform="translate(-603 -183)"/><path d="M736.65,358.082c0-2.622-.046-4.876-.184-6.947h3.542l.138,4.371h.184a6.682,6.682,0,0,1,6.165-4.877,4.378,4.378,0,0,1,1.15.138v3.819a6.081,6.081,0,0,0-1.38-.138c-2.852,0-4.876,2.162-5.429,5.2a11.4,11.4,0,0,0-.184,1.887V373.4h-4Z" transform="translate(-603 -183)"/><path d="M753.486,363.005c.092,5.474,3.589,7.728,7.637,7.728a14.628,14.628,0,0,0,6.165-1.15l.69,2.9a18.039,18.039,0,0,1-7.407,1.38c-6.855,0-10.949-4.508-10.949-11.225s3.956-12.008,10.443-12.008c7.269,0,9.2,6.395,9.2,10.49a15.268,15.268,0,0,1-.138,1.886Zm11.869-2.9c.046-2.576-1.058-6.578-5.612-6.578-4.1,0-5.889,3.772-6.211,6.578Z" transform="translate(-603 -183)"/><path d="M775.841,351.135l4.371,12.514a57.188,57.188,0,0,1,1.794,5.7h.138c.506-1.841,1.15-3.681,1.886-5.7l4.325-12.514h4.232L783.846,373.4h-3.864l-8.465-22.267Z" transform="translate(-603 -183)"/><path d="M800.911,344.878a2.507,2.507,0,0,1-5.014,0,2.467,2.467,0,0,1,2.53-2.53A2.4,2.4,0,0,1,800.911,344.878ZM796.4,373.4V351.135h4.048V373.4Z" transform="translate(-603 -183)"/><path d="M827.317,362.084c0,8.235-5.705,11.824-11.088,11.824-6.026,0-10.673-4.417-10.673-11.455,0-7.453,4.877-11.824,11.042-11.824C822.992,350.629,827.317,355.276,827.317,362.084Zm-17.666.23c0,4.877,2.806,8.558,6.763,8.558,3.864,0,6.762-3.635,6.762-8.649,0-3.773-1.886-8.557-6.671-8.557S809.651,358.082,809.651,362.314Z" transform="translate(-603 -183)"/><path d="M851.053,367.329c0,2.3.046,4.325.183,6.073h-3.588l-.23-3.634h-.092a8.377,8.377,0,0,1-7.361,4.14c-3.5,0-7.683-1.932-7.683-9.753v-13.02h4.049v12.33c0,4.232,1.288,7.084,4.968,7.084a5.852,5.852,0,0,0,5.337-3.68A5.92,5.92,0,0,0,847,364.8V351.135h4.049Z" transform="translate(-603 -183)"/><path d="M857.214,369.261a10.61,10.61,0,0,0,5.337,1.611c2.944,0,4.324-1.473,4.324-3.313,0-1.932-1.15-2.99-4.14-4.094-4-1.426-5.889-3.635-5.889-6.3,0-3.588,2.9-6.533,7.683-6.533a11.112,11.112,0,0,1,5.474,1.38l-1.012,2.945a8.665,8.665,0,0,0-4.554-1.288c-2.393,0-3.727,1.38-3.727,3.036,0,1.84,1.334,2.668,4.233,3.773,3.864,1.472,5.843,3.4,5.843,6.716,0,3.911-3.037,6.671-8.328,6.671a12.7,12.7,0,0,1-6.256-1.518Z" transform="translate(-603 -183)"/><path d="M885.872,342.809a38.685,38.685,0,0,1,7.314-.645c4,0,6.579.69,8.511,2.254a6.5,6.5,0,0,1,2.576,5.475c0,2.99-1.978,5.613-5.244,6.809v.092a7.992,7.992,0,0,1,6.395,7.775,8.358,8.358,0,0,1-2.623,6.211c-2.162,1.978-5.658,2.9-10.719,2.9a46.785,46.785,0,0,1-6.21-.368Zm4,12.7h3.634c4.233,0,6.717-2.209,6.717-5.2,0-3.634-2.76-5.06-6.809-5.06a17.264,17.264,0,0,0-3.542.275Zm0,14.86a21.531,21.531,0,0,0,3.358.183c4.141,0,7.959-1.518,7.959-6.026,0-4.232-3.634-5.981-8-5.981h-3.312Z" transform="translate(-603 -183)"/><path d="M910.665,340.738h4.048V373.4h-4.048Z" transform="translate(-603 -183)"/><path d="M941.671,362.084c0,8.235-5.7,11.824-11.087,11.824-6.027,0-10.673-4.417-10.673-11.455,0-7.453,4.876-11.824,11.041-11.824C937.347,350.629,941.671,355.276,941.671,362.084Zm-17.666.23c0,4.877,2.807,8.558,6.763,8.558,3.864,0,6.763-3.635,6.763-8.649,0-3.773-1.886-8.557-6.671-8.557S924.005,358.082,924.005,362.314Z" transform="translate(-603 -183)"/><path d="M962.646,372.574a14.906,14.906,0,0,1-6.394,1.288c-6.717,0-11.087-4.554-11.087-11.363,0-6.855,4.692-11.824,11.961-11.824a13.533,13.533,0,0,1,5.613,1.15l-.921,3.129a9.384,9.384,0,0,0-4.692-1.058c-5.106,0-7.867,3.772-7.867,8.418,0,5.153,3.313,8.328,7.729,8.328a11.52,11.52,0,0,0,4.969-1.1Z" transform="translate(-603 -183)"/><path d="M971.386,361.349h.092c.551-.783,1.334-1.749,1.978-2.531l6.532-7.683h4.877l-8.6,9.156,9.8,13.111h-4.923l-7.683-10.673-2.07,2.3V373.4h-4V340.738h4Z" transform="translate(-603 -183)"/><path d="M1002.849,342.4v12.973h15V342.4h4.048V373.4h-4.048V358.864h-15V373.4h-4V342.4Z" transform="translate(-603 -183)"/><path d="M1041.029,373.4l-.322-2.806h-.138a8.293,8.293,0,0,1-6.808,3.312c-4.509,0-6.809-3.175-6.809-6.4,0-5.383,4.784-8.327,13.387-8.281v-.46c0-1.84-.506-5.152-5.061-5.152a11.093,11.093,0,0,0-5.8,1.656l-.92-2.669a13.819,13.819,0,0,1,7.315-1.978c6.809,0,8.465,4.647,8.465,9.109v8.327a31.352,31.352,0,0,0,.368,5.337Zm-.6-11.363c-4.417-.092-9.432.69-9.432,5.014a3.582,3.582,0,0,0,3.818,3.864,5.539,5.539,0,0,0,5.383-3.726,4.227,4.227,0,0,0,.231-1.288Z" transform="translate(-603 -183)"/><path d="M1050.319,369.261a10.616,10.616,0,0,0,5.337,1.611c2.945,0,4.324-1.473,4.324-3.313,0-1.932-1.15-2.99-4.14-4.094-4-1.426-5.888-3.635-5.888-6.3,0-3.588,2.9-6.533,7.683-6.533a11.112,11.112,0,0,1,5.474,1.38l-1.012,2.945a8.669,8.669,0,0,0-4.555-1.288c-2.392,0-3.727,1.38-3.727,3.036,0,1.84,1.335,2.668,4.234,3.773,3.864,1.472,5.842,3.4,5.842,6.716,0,3.911-3.037,6.671-8.327,6.671a12.7,12.7,0,0,1-6.256-1.518Z" transform="translate(-603 -183)"/><path d="M1069.087,340.738h4.049v13.894h.092a7.5,7.5,0,0,1,2.9-2.853,8.332,8.332,0,0,1,4.141-1.15c2.99,0,7.774,1.84,7.774,9.523V373.4h-4.049v-12.79c0-3.588-1.334-6.624-5.152-6.624a5.817,5.817,0,0,0-5.429,4.048,4.92,4.92,0,0,0-.275,1.932V373.4h-4.049Z" transform="translate(-603 -183)"/><path d="M712.5,420.525a14.182,14.182,0,0,0,7.176,2.024c4.095,0,6.487-2.162,6.487-5.29,0-2.9-1.656-4.554-5.843-6.165-5.06-1.794-8.189-4.416-8.189-8.787,0-4.83,4-8.419,10.03-8.419a14.106,14.106,0,0,1,6.855,1.518l-1.105,3.267a12.349,12.349,0,0,0-5.889-1.472c-4.232,0-5.842,2.53-5.842,4.646,0,2.9,1.886,4.325,6.165,5.981,5.244,2.024,7.912,4.554,7.912,9.109,0,4.784-3.542,8.925-10.857,8.925a16.029,16.029,0,0,1-7.913-1.978Z" transform="translate(-603 -183)"/><path d="M740.33,396.741v6.394h5.8v3.083h-5.8v12.007c0,2.76.782,4.324,3.037,4.324a8.961,8.961,0,0,0,2.346-.276l.184,3.037a9.909,9.909,0,0,1-3.588.552,5.61,5.61,0,0,1-4.371-1.7c-1.15-1.2-1.564-3.175-1.564-5.8V406.218h-3.451v-3.083h3.451V397.8Z" transform="translate(-603 -183)"/><path d="M763.009,425.4l-.322-2.806h-.138a8.293,8.293,0,0,1-6.809,3.312c-4.508,0-6.808-3.175-6.808-6.4,0-5.383,4.784-8.327,13.387-8.281v-.46c0-1.84-.506-5.152-5.061-5.152a11.093,11.093,0,0,0-5.8,1.656l-.92-2.669a13.818,13.818,0,0,1,7.314-1.978c6.809,0,8.465,4.647,8.465,9.109v8.327a31.455,31.455,0,0,0,.368,5.337Zm-.6-11.363c-4.416-.092-9.431.69-9.431,5.014a3.582,3.582,0,0,0,3.818,3.864,5.54,5.54,0,0,0,5.383-3.726,4.225,4.225,0,0,0,.23-1.288Z" transform="translate(-603 -183)"/><path d="M776.854,413.349h.091c.553-.783,1.335-1.749,1.979-2.531l6.533-7.683h4.876l-8.6,9.156,9.8,13.111h-4.923l-7.682-10.673-2.07,2.3V425.4h-4V392.738h4Z" transform="translate(-603 -183)"/><path d="M796.679,415.005c.092,5.474,3.589,7.728,7.637,7.728a14.622,14.622,0,0,0,6.164-1.15l.691,2.9a18.039,18.039,0,0,1-7.407,1.38c-6.855,0-10.95-4.508-10.95-11.225s3.957-12.008,10.444-12.008c7.269,0,9.2,6.395,9.2,10.49a15.268,15.268,0,0,1-.138,1.886Zm11.869-2.9c.046-2.576-1.058-6.578-5.612-6.578-4.1,0-5.889,3.772-6.211,6.578Z" transform="translate(-603 -183)"/><path d="M849.029,424.39a19.871,19.871,0,0,1-8.189,1.472c-8.741,0-15.32-5.521-15.32-15.688,0-9.707,6.579-16.286,16.194-16.286a16.606,16.606,0,0,1,7.361,1.381l-.967,3.266a14.577,14.577,0,0,0-6.256-1.288c-7.269,0-12.1,4.646-12.1,12.789,0,7.591,4.371,12.467,11.916,12.467a16.011,16.011,0,0,0,6.533-1.288Z" transform="translate(-603 -183)"/><path d="M873.546,414.084c0,8.235-5.7,11.824-11.087,11.824-6.027,0-10.673-4.417-10.673-11.455,0-7.453,4.876-11.824,11.041-11.824C869.222,402.629,873.546,407.276,873.546,414.084Zm-17.666.23c0,4.877,2.807,8.558,6.763,8.558,3.864,0,6.763-3.635,6.763-8.649,0-3.773-1.886-8.557-6.671-8.557S855.88,410.082,855.88,414.314Z" transform="translate(-603 -183)"/><path d="M878.65,409.162c0-2.3-.046-4.186-.184-6.027h3.588l.23,3.681h.092a8.19,8.19,0,0,1,7.361-4.187c3.082,0,7.867,1.84,7.867,9.477v13.3h-4.048V412.566c0-3.588-1.334-6.578-5.153-6.578a5.751,5.751,0,0,0-5.428,4.14,5.819,5.819,0,0,0-.277,1.886V425.4H878.65Z" transform="translate(-603 -183)"/><path d="M908.872,396.741v6.394h5.8v3.083h-5.8v12.007c0,2.76.782,4.324,3.037,4.324a8.961,8.961,0,0,0,2.346-.276l.184,3.037a9.909,9.909,0,0,1-3.588.552,5.61,5.61,0,0,1-4.371-1.7c-1.15-1.2-1.564-3.175-1.564-5.8V406.218h-3.451v-3.083h3.451V397.8Z" transform="translate(-603 -183)"/><path d="M919.222,410.082c0-2.622-.046-4.876-.184-6.947h3.542l.138,4.371h.184a6.682,6.682,0,0,1,6.165-4.877,4.378,4.378,0,0,1,1.15.138v3.819a6.081,6.081,0,0,0-1.38-.138c-2.853,0-4.877,2.162-5.429,5.2a11.4,11.4,0,0,0-.184,1.887V425.4h-4Z" transform="translate(-603 -183)"/><path d="M946.363,425.4l-.322-2.806H945.9a8.293,8.293,0,0,1-6.809,3.312c-4.508,0-6.808-3.175-6.808-6.4,0-5.383,4.784-8.327,13.387-8.281v-.46c0-1.84-.506-5.152-5.061-5.152a11.093,11.093,0,0,0-5.8,1.656l-.92-2.669a13.818,13.818,0,0,1,7.314-1.978c6.809,0,8.465,4.647,8.465,9.109v8.327a31.455,31.455,0,0,0,.368,5.337Zm-.6-11.363c-4.416-.092-9.431.69-9.431,5.014a3.582,3.582,0,0,0,3.818,3.864,5.54,5.54,0,0,0,5.383-3.726,4.225,4.225,0,0,0,.23-1.288Z" transform="translate(-603 -183)"/><path d="M972.077,424.574a14.906,14.906,0,0,1-6.394,1.288c-6.717,0-11.088-4.554-11.088-11.363,0-6.855,4.693-11.824,11.962-11.824a13.541,13.541,0,0,1,5.613,1.15l-.921,3.129a9.384,9.384,0,0,0-4.692-1.058c-5.107,0-7.867,3.772-7.867,8.418,0,5.153,3.312,8.328,7.729,8.328a11.514,11.514,0,0,0,4.968-1.1Z" transform="translate(-603 -183)"/><path d="M982.287,396.741v6.394h5.8v3.083h-5.8v12.007c0,2.76.782,4.324,3.037,4.324a8.961,8.961,0,0,0,2.346-.276l.184,3.037a9.909,9.909,0,0,1-3.588.552,5.61,5.61,0,0,1-4.371-1.7c-1.151-1.2-1.565-3.175-1.565-5.8V406.218h-3.449v-3.083h3.449V397.8Z" transform="translate(-603 -183)"/><path d="M1006.529,394.4v12.973h15V394.4h4.048V425.4h-4.048V410.864h-15V425.4h-4V394.4Z" transform="translate(-603 -183)"/><path d="M1044.709,425.4l-.322-2.806h-.138a8.293,8.293,0,0,1-6.809,3.312c-4.508,0-6.808-3.175-6.808-6.4,0-5.383,4.784-8.327,13.388-8.281v-.46c0-1.84-.506-5.152-5.061-5.152a11.1,11.1,0,0,0-5.8,1.656l-.92-2.669a13.819,13.819,0,0,1,7.315-1.978c6.808,0,8.464,4.647,8.464,9.109v8.327a31.244,31.244,0,0,0,.369,5.337Zm-.6-11.363c-4.416-.092-9.431.69-9.431,5.014a3.582,3.582,0,0,0,3.818,3.864,5.541,5.541,0,0,0,5.383-3.726,4.2,4.2,0,0,0,.23-1.288Z" transform="translate(-603 -183)"/><path d="M1054,421.261a10.613,10.613,0,0,0,5.337,1.611c2.944,0,4.324-1.473,4.324-3.313,0-1.932-1.15-2.99-4.14-4.094-4-1.426-5.889-3.635-5.889-6.3,0-3.588,2.9-6.533,7.683-6.533a11.117,11.117,0,0,1,5.475,1.38l-1.013,2.945a8.665,8.665,0,0,0-4.554-1.288c-2.392,0-3.727,1.38-3.727,3.036,0,1.84,1.335,2.668,4.234,3.773,3.864,1.472,5.841,3.4,5.841,6.716,0,3.911-3.036,6.671-8.326,6.671a12.7,12.7,0,0,1-6.257-1.518Z" transform="translate(-603 -183)"/><path d="M1072.768,392.738h4.048v13.894h.092a7.5,7.5,0,0,1,2.9-2.853,8.331,8.331,0,0,1,4.14-1.15c2.991,0,7.775,1.84,7.775,9.523V425.4h-4.049v-12.79c0-3.588-1.334-6.624-5.152-6.624a5.816,5.816,0,0,0-5.429,4.048,4.9,4.9,0,0,0-.276,1.932V425.4h-4.048Z" transform="translate(-603 -183)"/><path d="M718.941,445.8H709.51v-3.4h22.956v3.4h-9.477v27.6h-4.048Z" transform="translate(-603 -183)"/><path d="M739.732,444.879a2.507,2.507,0,0,1-5.014,0,2.467,2.467,0,0,1,2.531-2.53A2.4,2.4,0,0,1,739.732,444.879ZM735.224,473.4V451.136h4.048V473.4Z" transform="translate(-603 -183)"/><path d="M745.988,457.163c0-2.3-.046-4.187-.184-6.027h3.542l.184,3.588h.138a7.674,7.674,0,0,1,6.993-4.094,6.583,6.583,0,0,1,6.3,4.462h.092a9.171,9.171,0,0,1,2.484-2.9,7.6,7.6,0,0,1,4.922-1.564c2.945,0,7.315,1.932,7.315,9.661V473.4h-3.956V460.8c0-4.278-1.564-6.855-4.831-6.855a5.242,5.242,0,0,0-4.784,3.681,6.666,6.666,0,0,0-.322,2.024V473.4h-3.957V460.061c0-3.542-1.564-6.119-4.646-6.119a6.035,6.035,0,0,0-5.337,6.027V473.4h-3.956Z" transform="translate(-603 -183)"/><path d="M786.606,463.005c.092,5.475,3.588,7.729,7.637,7.729a14.638,14.638,0,0,0,6.164-1.15l.691,2.9a18.044,18.044,0,0,1-7.408,1.38c-6.854,0-10.949-4.508-10.949-11.225s3.957-12.007,10.444-12.007c7.269,0,9.2,6.394,9.2,10.489a15.47,15.47,0,0,1-.138,1.886Zm11.869-2.9c.046-2.576-1.058-6.579-5.613-6.579-4.094,0-5.888,3.772-6.21,6.579Z" transform="translate(-603 -183)"/><path d="M806.845,469.262a10.616,10.616,0,0,0,5.337,1.61c2.944,0,4.324-1.472,4.324-3.312,0-1.933-1.15-2.991-4.14-4.1-4-1.426-5.888-3.634-5.888-6.3,0-3.589,2.9-6.533,7.682-6.533a11.114,11.114,0,0,1,5.475,1.38l-1.012,2.944a8.666,8.666,0,0,0-4.555-1.288c-2.392,0-3.726,1.38-3.726,3.037,0,1.839,1.334,2.668,4.232,3.772,3.864,1.472,5.843,3.4,5.843,6.716,0,3.911-3.037,6.671-8.327,6.671a12.7,12.7,0,0,1-6.257-1.518Z" transform="translate(-603 -183)"/><path d="M830.49,444.741v6.4h5.8v3.082h-5.8v12.008c0,2.76.782,4.324,3.036,4.324a9.02,9.02,0,0,0,2.347-.276l.184,3.037a9.945,9.945,0,0,1-3.589.551,5.608,5.608,0,0,1-4.37-1.7c-1.151-1.2-1.565-3.174-1.565-5.8V454.218h-3.45v-3.082h3.45V445.8Z" transform="translate(-603 -183)"/><path d="M853.168,473.4l-.322-2.806h-.138a8.293,8.293,0,0,1-6.809,3.312c-4.508,0-6.808-3.174-6.808-6.394,0-5.383,4.784-8.327,13.387-8.281v-.461c0-1.839-.506-5.152-5.061-5.152a11.093,11.093,0,0,0-5.8,1.656l-.92-2.668a13.819,13.819,0,0,1,7.315-1.978c6.808,0,8.464,4.646,8.464,9.109v8.327a31.341,31.341,0,0,0,.369,5.336Zm-.6-11.363c-4.416-.092-9.431.69-9.431,5.015a3.582,3.582,0,0,0,3.819,3.864,5.539,5.539,0,0,0,5.382-3.727,4.225,4.225,0,0,0,.23-1.288Z" transform="translate(-603 -183)"/><path d="M863.011,457.163c0-2.3-.046-4.187-.184-6.027h3.542l.184,3.588h.138a7.674,7.674,0,0,1,6.993-4.094,6.583,6.583,0,0,1,6.3,4.462h.092a9.171,9.171,0,0,1,2.484-2.9,7.6,7.6,0,0,1,4.922-1.564c2.945,0,7.315,1.932,7.315,9.661V473.4h-3.956V460.8c0-4.278-1.564-6.855-4.831-6.855a5.242,5.242,0,0,0-4.784,3.681,6.666,6.666,0,0,0-.322,2.024V473.4H876.95V460.061c0-3.542-1.564-6.119-4.646-6.119a6.035,6.035,0,0,0-5.337,6.027V473.4h-3.956Z" transform="translate(-603 -183)"/><path d="M901.375,458.405c0-2.853-.092-5.153-.185-7.269h3.635l.184,3.818h.092a8.753,8.753,0,0,1,7.913-4.324c5.382,0,9.431,4.554,9.431,11.317,0,8-4.877,11.961-10.121,11.961a7.808,7.808,0,0,1-6.855-3.5h-.092v12.1h-4Zm4,5.934a9.127,9.127,0,0,0,.184,1.657,6.246,6.246,0,0,0,6.073,4.738c4.278,0,6.762-3.5,6.762-8.6,0-4.463-2.346-8.281-6.625-8.281a6.459,6.459,0,0,0-6.118,5.015,6.565,6.565,0,0,0-.276,1.656Z" transform="translate(-603 -183)"/><path d="M669.107,507.864H657.054v11.179h13.434V522.4H653.052V491.4H669.8v3.358H657.054v9.8h12.053Z" transform="translate(-603 -183)"/><path d="M675.545,506.162c0-2.3-.046-4.186-.184-6.027h3.588l.23,3.681h.092a8.19,8.19,0,0,1,7.361-4.187c3.082,0,7.867,1.84,7.867,9.477v13.3h-4.048V509.566c0-3.588-1.335-6.578-5.153-6.578a5.751,5.751,0,0,0-5.428,4.14,5.819,5.819,0,0,0-.277,1.886V522.4h-4.048Z" transform="translate(-603 -183)"/><path d="M720.305,489.738v26.913c0,1.978.046,4.233.184,5.751h-3.635l-.184-3.864h-.091a8.24,8.24,0,0,1-7.591,4.37c-5.383,0-9.524-4.554-9.524-11.317-.046-7.407,4.555-11.962,9.984-11.962,3.4,0,5.7,1.61,6.717,3.4h.091v-13.3Zm-4.049,19.46a7.146,7.146,0,0,0-.184-1.7,5.954,5.954,0,0,0-5.843-4.692c-4.186,0-6.67,3.68-6.67,8.6,0,4.508,2.208,8.235,6.579,8.235a6.086,6.086,0,0,0,5.934-4.831,7.031,7.031,0,0,0,.184-1.748Z" transform="translate(-603 -183)"/><path d="M740.911,491.4v12.973h15V491.4h4.049V522.4h-4.049V507.864h-15V522.4h-4V491.4Z" transform="translate(-603 -183)"/><path d="M769.016,512.005c.092,5.474,3.588,7.728,7.637,7.728a14.622,14.622,0,0,0,6.164-1.15l.691,2.9a18.039,18.039,0,0,1-7.407,1.38c-6.855,0-10.95-4.508-10.95-11.225s3.957-12.008,10.444-12.008c7.269,0,9.2,6.395,9.2,10.49a15.268,15.268,0,0,1-.138,1.886Zm11.869-2.9c.046-2.576-1.058-6.578-5.613-6.578-4.094,0-5.888,3.772-6.21,6.578Z" transform="translate(-603 -183)"/><path d="M802.137,522.4l-.322-2.806h-.138a8.3,8.3,0,0,1-6.809,3.312c-4.508,0-6.808-3.175-6.808-6.395,0-5.383,4.784-8.327,13.387-8.281v-.46c0-1.84-.506-5.152-5.061-5.152a11.093,11.093,0,0,0-5.8,1.656l-.921-2.669a13.824,13.824,0,0,1,7.315-1.978c6.809,0,8.465,4.647,8.465,9.109v8.327a31.455,31.455,0,0,0,.368,5.337Zm-.6-11.363c-4.416-.092-9.431.69-9.431,5.014a3.582,3.582,0,0,0,3.818,3.864,5.54,5.54,0,0,0,5.383-3.726,4.225,4.225,0,0,0,.23-1.288Z" transform="translate(-603 -183)"/><path d="M831.209,489.738v26.913c0,1.978.046,4.233.184,5.751h-3.634l-.184-3.864h-.092a8.239,8.239,0,0,1-7.591,4.37c-5.383,0-9.523-4.554-9.523-11.317-.046-7.407,4.554-11.962,9.983-11.962,3.4,0,5.705,1.61,6.717,3.4h.092v-13.3Zm-4.048,19.46a7.146,7.146,0,0,0-.184-1.7,5.955,5.955,0,0,0-5.843-4.692c-4.186,0-6.671,3.68-6.671,8.6,0,4.508,2.208,8.235,6.579,8.235a6.087,6.087,0,0,0,5.935-4.831,7.031,7.031,0,0,0,.184-1.748Z" transform="translate(-603 -183)"/><path d="M840.177,512.005c.092,5.474,3.589,7.728,7.637,7.728a14.631,14.631,0,0,0,6.165-1.15l.69,2.9a18.039,18.039,0,0,1-7.407,1.38c-6.855,0-10.95-4.508-10.95-11.225s3.957-12.008,10.444-12.008c7.269,0,9.2,6.395,9.2,10.49a15.268,15.268,0,0,1-.138,1.886Zm11.869-2.9c.046-2.576-1.058-6.578-5.612-6.578-4.095,0-5.889,3.772-6.211,6.578Z" transform="translate(-603 -183)"/><path d="M860.969,507.082c0-2.622-.046-4.876-.184-6.947h3.542l.138,4.371h.184a6.682,6.682,0,0,1,6.165-4.877,4.378,4.378,0,0,1,1.15.138v3.819a6.081,6.081,0,0,0-1.38-.138c-2.853,0-4.877,2.162-5.429,5.2a11.4,11.4,0,0,0-.184,1.887V522.4h-4Z" transform="translate(-603 -183)"/><path d="M658.833,548.8H649.4v-3.4h22.956v3.4h-9.477v27.6h-4.048Z" transform="translate(-603 -183)"/><path d="M673.6,561.082c0-2.622-.046-4.876-.184-6.946h3.543l.138,4.37h.183a6.682,6.682,0,0,1,6.165-4.876,4.373,4.373,0,0,1,1.15.138v3.818a6.081,6.081,0,0,0-1.38-.138c-2.852,0-4.876,2.162-5.428,5.2a11.3,11.3,0,0,0-.184,1.887V576.4h-4Z" transform="translate(-603 -183)"/><path d="M700.74,576.4l-.323-2.806h-.138a8.293,8.293,0,0,1-6.808,3.312c-4.509,0-6.809-3.175-6.809-6.394,0-5.383,4.784-8.327,13.387-8.282v-.46c0-1.839-.506-5.152-5.06-5.152a11.094,11.094,0,0,0-5.8,1.656l-.92-2.669a13.821,13.821,0,0,1,7.315-1.977c6.809,0,8.465,4.646,8.465,9.108v8.327a31.352,31.352,0,0,0,.368,5.337Zm-.6-11.363c-4.417-.092-9.432.69-9.432,5.015a3.582,3.582,0,0,0,3.819,3.864,5.541,5.541,0,0,0,5.383-3.727,4.255,4.255,0,0,0,.23-1.288Z" transform="translate(-603 -183)"/><path d="M710.582,560.162c0-2.3-.046-4.186-.184-6.026h3.588l.23,3.68h.093a8.187,8.187,0,0,1,7.36-4.186c3.082,0,7.867,1.84,7.867,9.476v13.3h-4.048V563.566c0-3.587-1.335-6.578-5.153-6.578a5.751,5.751,0,0,0-5.428,4.14,5.826,5.826,0,0,0-.277,1.887V576.4h-4.048Z" transform="translate(-603 -183)"/><path d="M735.56,572.262a10.609,10.609,0,0,0,5.336,1.61c2.945,0,4.325-1.473,4.325-3.312,0-1.933-1.15-2.991-4.14-4.095-4-1.426-5.889-3.635-5.889-6.3,0-3.588,2.9-6.532,7.683-6.532a11.1,11.1,0,0,1,5.474,1.38l-1.012,2.944a8.665,8.665,0,0,0-4.554-1.288c-2.393,0-3.727,1.38-3.727,3.036,0,1.84,1.334,2.668,4.233,3.773,3.864,1.472,5.842,3.4,5.842,6.716,0,3.911-3.036,6.671-8.327,6.671a12.7,12.7,0,0,1-6.256-1.518Z" transform="translate(-603 -183)"/><path d="M766.657,576.4l-.322-2.806H766.2a8.3,8.3,0,0,1-6.809,3.312c-4.508,0-6.808-3.175-6.808-6.394,0-5.383,4.784-8.327,13.387-8.282v-.46c0-1.839-.506-5.152-5.061-5.152a11.093,11.093,0,0,0-5.8,1.656l-.921-2.669a13.824,13.824,0,0,1,7.315-1.977c6.809,0,8.465,4.646,8.465,9.108v8.327a31.455,31.455,0,0,0,.368,5.337Zm-.6-11.363c-4.416-.092-9.431.69-9.431,5.015a3.582,3.582,0,0,0,3.818,3.864,5.54,5.54,0,0,0,5.383-3.727,4.225,4.225,0,0,0,.23-1.288Z" transform="translate(-603 -183)"/><path d="M792.371,575.574a14.919,14.919,0,0,1-6.395,1.288c-6.717,0-11.087-4.554-11.087-11.363,0-6.854,4.693-11.823,11.961-11.823a13.535,13.535,0,0,1,5.613,1.149l-.92,3.129a9.389,9.389,0,0,0-4.693-1.058c-5.106,0-7.867,3.772-7.867,8.418,0,5.154,3.313,8.328,7.729,8.328a11.5,11.5,0,0,0,4.969-1.1Z" transform="translate(-603 -183)"/><path d="M802.581,547.741v6.395h5.8v3.082h-5.8v12.008c0,2.759.782,4.324,3.037,4.324a8.952,8.952,0,0,0,2.346-.277l.184,3.038a9.935,9.935,0,0,1-3.588.551,5.61,5.61,0,0,1-4.371-1.7c-1.15-1.2-1.564-3.175-1.564-5.8V557.218h-3.451v-3.082h3.451V548.8Z" transform="translate(-603 -183)"/><path d="M817.438,547.879a2.507,2.507,0,0,1-5.014,0,2.467,2.467,0,0,1,2.531-2.53A2.4,2.4,0,0,1,817.438,547.879ZM812.93,576.4V554.136h4.049V576.4Z" transform="translate(-603 -183)"/><path d="M843.844,565.085c0,8.234-5.7,11.823-11.087,11.823-6.027,0-10.674-4.417-10.674-11.455,0-7.453,4.877-11.823,11.042-11.823C839.52,553.63,843.844,558.276,843.844,565.085Zm-17.666.229c0,4.877,2.806,8.558,6.763,8.558,3.864,0,6.763-3.635,6.763-8.649,0-3.773-1.887-8.557-6.671-8.557S826.178,561.082,826.178,565.314Z" transform="translate(-603 -183)"/><path d="M848.948,560.162c0-2.3-.046-4.186-.184-6.026h3.588l.23,3.68h.092a8.188,8.188,0,0,1,7.361-4.186c3.082,0,7.867,1.84,7.867,9.476v13.3h-4.048V563.566c0-3.587-1.334-6.578-5.153-6.578a5.752,5.752,0,0,0-5.429,4.14,5.827,5.827,0,0,0-.276,1.887V576.4h-4.048Z" transform="translate(-603 -183)"/><path d="M873.925,572.262a10.616,10.616,0,0,0,5.337,1.61c2.945,0,4.324-1.473,4.324-3.312,0-1.933-1.149-2.991-4.14-4.095-4-1.426-5.888-3.635-5.888-6.3,0-3.588,2.9-6.532,7.682-6.532a11.1,11.1,0,0,1,5.475,1.38l-1.012,2.944a8.666,8.666,0,0,0-4.555-1.288c-2.392,0-3.726,1.38-3.726,3.036,0,1.84,1.334,2.668,4.232,3.773,3.865,1.472,5.843,3.4,5.843,6.716,0,3.911-3.037,6.671-8.327,6.671a12.7,12.7,0,0,1-6.256-1.518Z" transform="translate(-603 -183)"/><path d="M734.8,617.39a19.871,19.871,0,0,1-8.189,1.471c-8.741,0-15.319-5.52-15.319-15.687,0-9.707,6.578-16.286,16.193-16.286a16.6,16.6,0,0,1,7.361,1.381l-.966,3.265a14.592,14.592,0,0,0-6.256-1.288c-7.269,0-12.1,4.647-12.1,12.79,0,7.591,4.371,12.467,11.915,12.467a16.024,16.024,0,0,0,6.533-1.288Z" transform="translate(-603 -183)"/><path d="M759.317,607.084c0,8.235-5.705,11.823-11.088,11.823-6.026,0-10.673-4.416-10.673-11.455,0-7.453,4.877-11.823,11.042-11.823C754.992,595.629,759.317,600.275,759.317,607.084Zm-17.666.23c0,4.876,2.806,8.557,6.763,8.557,3.864,0,6.762-3.634,6.762-8.648,0-3.773-1.886-8.558-6.671-8.558S741.651,603.082,741.651,607.314Z" transform="translate(-603 -183)"/><path d="M768.929,589.878a2.507,2.507,0,0,1-5.014,0,2.467,2.467,0,0,1,2.53-2.53A2.4,2.4,0,0,1,768.929,589.878ZM764.42,618.4V596.135h4.049V618.4Z" transform="translate(-603 -183)"/><path d="M775.184,602.162c0-2.3-.046-4.186-.184-6.027h3.588l.23,3.68h.093a8.187,8.187,0,0,1,7.36-4.186c3.083,0,7.867,1.84,7.867,9.477V618.4H790.09V605.566c0-3.588-1.334-6.579-5.153-6.579a5.752,5.752,0,0,0-5.428,4.141,5.819,5.819,0,0,0-.277,1.886V618.4h-4.048Z" transform="translate(-603 -183)"/><path d="M800.53,618.4c.092-1.517.184-3.772.184-5.75V585.738h4v13.986h.092a8.293,8.293,0,0,1,7.591-4.1c5.521,0,9.431,4.6,9.385,11.363,0,7.959-5.014,11.915-9.983,11.915a7.933,7.933,0,0,1-7.453-4.186h-.138l-.184,3.68Zm4.186-8.924a7.6,7.6,0,0,0,.184,1.472,6.249,6.249,0,0,0,6.073,4.739c4.233,0,6.763-3.451,6.763-8.558,0-4.462-2.3-8.28-6.625-8.28a6.454,6.454,0,0,0-6.165,4.968,7.978,7.978,0,0,0-.23,1.657Z" transform="translate(-603 -183)"/><path d="M839.217,618.4l-.322-2.8h-.139a8.29,8.29,0,0,1-6.808,3.311c-4.509,0-6.809-3.174-6.809-6.394,0-5.383,4.784-8.327,13.387-8.281v-.461c0-1.839-.5-5.152-5.06-5.152a11.106,11.106,0,0,0-5.8,1.656l-.92-2.668a13.821,13.821,0,0,1,7.315-1.978c6.809,0,8.465,4.646,8.465,9.109v8.327a31.34,31.34,0,0,0,.368,5.336Zm-.6-11.363c-4.417-.092-9.431.691-9.431,5.015a3.582,3.582,0,0,0,3.818,3.864,5.54,5.54,0,0,0,5.383-3.727,4.255,4.255,0,0,0,.23-1.288Z" transform="translate(-603 -183)"/><path d="M848.507,614.261a10.61,10.61,0,0,0,5.337,1.61c2.944,0,4.324-1.472,4.324-3.312,0-1.932-1.15-2.991-4.14-4.094-4-1.427-5.889-3.635-5.889-6.3,0-3.589,2.9-6.533,7.683-6.533a11.112,11.112,0,0,1,5.474,1.38l-1.012,2.944a8.665,8.665,0,0,0-4.554-1.288c-2.393,0-3.727,1.381-3.727,3.037,0,1.84,1.334,2.668,4.233,3.773,3.864,1.471,5.843,3.4,5.843,6.715,0,3.912-3.037,6.671-8.328,6.671a12.7,12.7,0,0,1-6.256-1.517Z" transform="translate(-603 -183)"/><path d="M869.529,608.005c.092,5.474,3.589,7.728,7.637,7.728a14.631,14.631,0,0,0,6.165-1.15l.69,2.9a18.022,18.022,0,0,1-7.407,1.38c-6.855,0-10.949-4.507-10.949-11.224s3.956-12.008,10.443-12.008c7.269,0,9.2,6.394,9.2,10.489a15.287,15.287,0,0,1-.138,1.887Zm11.869-2.9c.046-2.576-1.058-6.579-5.612-6.579-4.095,0-5.889,3.773-6.211,6.579Z" transform="translate(-603 -183)"/><path d="M900.21,587.809a41.682,41.682,0,0,1,7.683-.645c4.278,0,7.039.782,8.971,2.53a7.722,7.722,0,0,1,2.438,5.889,8.141,8.141,0,0,1-5.843,7.913v.138c2.393.828,3.819,3.036,4.555,6.257,1.012,4.324,1.748,7.314,2.392,8.51h-4.14c-.506-.874-1.2-3.542-2.071-7.406-.92-4.279-2.576-5.889-6.21-6.027h-3.773V618.4h-4Zm4,14.123h4.1c4.278,0,6.992-2.346,6.992-5.889,0-4-2.9-5.751-7.131-5.8a16.519,16.519,0,0,0-3.956.368Z" transform="translate(-603 -183)"/><path d="M927.258,608.005c.092,5.474,3.588,7.728,7.637,7.728a14.622,14.622,0,0,0,6.164-1.15l.691,2.9a18.027,18.027,0,0,1-7.408,1.38c-6.854,0-10.949-4.507-10.949-11.224s3.957-12.008,10.443-12.008c7.269,0,9.2,6.394,9.2,10.489a15.246,15.246,0,0,1-.139,1.887Zm11.869-2.9c.046-2.576-1.058-6.579-5.613-6.579-4.094,0-5.889,3.773-6.21,6.579Z" transform="translate(-603 -183)"/><path d="M949.66,596.135l2.944,11.317c.644,2.485,1.242,4.785,1.656,7.085h.138c.506-2.254,1.242-4.646,1.978-7.039l3.635-11.363h3.4l3.45,11.134c.828,2.668,1.472,5.014,1.979,7.268h.137a67.037,67.037,0,0,1,1.7-7.223l3.174-11.179h4L970.684,618.4H967l-3.4-10.627a73.923,73.923,0,0,1-1.978-7.314h-.093a65.45,65.45,0,0,1-2.024,7.36L955.916,618.4h-3.68l-6.717-22.266Z" transform="translate(-603 -183)"/><path d="M994.05,618.4l-.322-2.8h-.138a8.294,8.294,0,0,1-6.809,3.311c-4.509,0-6.808-3.174-6.808-6.394,0-5.383,4.784-8.327,13.386-8.281v-.461c0-1.839-.5-5.152-5.06-5.152a11.1,11.1,0,0,0-5.8,1.656l-.921-2.668a13.824,13.824,0,0,1,7.315-1.978c6.809,0,8.465,4.646,8.465,9.109v8.327a31.34,31.34,0,0,0,.368,5.336Zm-.6-11.363c-4.417-.092-9.431.691-9.431,5.015a3.582,3.582,0,0,0,3.818,3.864,5.54,5.54,0,0,0,5.383-3.727,4.255,4.255,0,0,0,.23-1.288Z" transform="translate(-603 -183)"/><path d="M1003.893,603.082c0-2.622-.046-4.877-.185-6.947h3.543l.138,4.371h.183a6.683,6.683,0,0,1,6.165-4.877,4.386,4.386,0,0,1,1.151.138v3.819a6.02,6.02,0,0,0-1.38-.139c-2.853,0-4.877,2.162-5.429,5.2a11.287,11.287,0,0,0-.184,1.886V618.4h-4Z" transform="translate(-603 -183)"/><path d="M1037.7,585.738v26.913c0,1.978.047,4.233.185,5.75h-3.635l-.184-3.864h-.091a8.239,8.239,0,0,1-7.591,4.37c-5.383,0-9.524-4.553-9.524-11.316-.046-7.407,4.555-11.962,9.984-11.962,3.4,0,5.7,1.61,6.716,3.4h.092V585.738Zm-4.048,19.46a7.146,7.146,0,0,0-.184-1.7,5.953,5.953,0,0,0-5.842-4.692c-4.187,0-6.671,3.679-6.671,8.6,0,4.509,2.208,8.236,6.578,8.236a6.086,6.086,0,0,0,5.935-4.831,7.034,7.034,0,0,0,.184-1.749Z" transform="translate(-603 -183)"/><path d="M1058.312,590.8h-9.432v-3.4h22.957v3.4h-9.478v27.6h-4.047Z" transform="translate(-603 -183)"/><path d="M1073.076,603.082c0-2.622-.046-4.877-.183-6.947h3.542l.137,4.371h.185a6.681,6.681,0,0,1,6.164-4.877,4.378,4.378,0,0,1,1.15.138v3.819a6.02,6.02,0,0,0-1.38-.139c-2.852,0-4.877,2.162-5.428,5.2a11.394,11.394,0,0,0-.184,1.886V618.4h-4Z" transform="translate(-603 -183)"/><path d="M1100.218,618.4l-.322-2.8h-.138a8.293,8.293,0,0,1-6.809,3.311c-4.509,0-6.808-3.174-6.808-6.394,0-5.383,4.784-8.327,13.387-8.281v-.461c0-1.839-.507-5.152-5.06-5.152a11.1,11.1,0,0,0-5.8,1.656l-.92-2.668a13.818,13.818,0,0,1,7.314-1.978c6.809,0,8.465,4.646,8.465,9.109v8.327a31.34,31.34,0,0,0,.368,5.336Zm-.6-11.363c-4.417-.092-9.432.691-9.432,5.015a3.584,3.584,0,0,0,3.82,3.864,5.54,5.54,0,0,0,5.382-3.727,4.225,4.225,0,0,0,.23-1.288Z" transform="translate(-603 -183)"/><path d="M1110.061,602.162c0-2.3-.046-4.186-.184-6.027h3.588l.23,3.68h.092a8.188,8.188,0,0,1,7.36-4.186c3.083,0,7.868,1.84,7.868,9.477V618.4h-4.049V605.566c0-3.588-1.334-6.579-5.153-6.579a5.753,5.753,0,0,0-5.428,4.141,5.82,5.82,0,0,0-.276,1.886V618.4h-4.048Z" transform="translate(-603 -183)"/><path d="M1135.038,614.261a10.612,10.612,0,0,0,5.336,1.61c2.944,0,4.325-1.472,4.325-3.312,0-1.932-1.15-2.991-4.14-4.094-4-1.427-5.889-3.635-5.889-6.3,0-3.589,2.9-6.533,7.683-6.533a11.115,11.115,0,0,1,5.474,1.38l-1.012,2.944a8.665,8.665,0,0,0-4.554-1.288c-2.393,0-3.727,1.381-3.727,3.037,0,1.84,1.334,2.668,4.233,3.773,3.864,1.471,5.842,3.4,5.842,6.715,0,3.912-3.036,6.671-8.327,6.671a12.7,12.7,0,0,1-6.257-1.517Z" transform="translate(-603 -183)"/><path d="M1166.135,618.4l-.322-2.8h-.138a8.293,8.293,0,0,1-6.809,3.311c-4.509,0-6.808-3.174-6.808-6.394,0-5.383,4.784-8.327,13.387-8.281v-.461c0-1.839-.507-5.152-5.06-5.152a11.1,11.1,0,0,0-5.8,1.656l-.92-2.668a13.818,13.818,0,0,1,7.314-1.978c6.809,0,8.465,4.646,8.465,9.109v8.327a31.34,31.34,0,0,0,.368,5.336Zm-.6-11.363c-4.417-.092-9.432.691-9.432,5.015a3.583,3.583,0,0,0,3.82,3.864,5.54,5.54,0,0,0,5.382-3.727,4.225,4.225,0,0,0,.23-1.288Z" transform="translate(-603 -183)"/><path d="M1191.85,617.573a14.9,14.9,0,0,1-6.395,1.288c-6.717,0-11.088-4.553-11.088-11.363,0-6.854,4.693-11.823,11.962-11.823a13.531,13.531,0,0,1,5.612,1.15l-.92,3.128a9.389,9.389,0,0,0-4.692-1.057c-5.107,0-7.867,3.772-7.867,8.418,0,5.153,3.312,8.328,7.728,8.328a11.5,11.5,0,0,0,4.969-1.105Z" transform="translate(-603 -183)"/><path d="M1202.061,589.74v6.395h5.8v3.083h-5.8v12.007c0,2.76.781,4.324,3.036,4.324a9,9,0,0,0,2.345-.276l.185,3.037a9.915,9.915,0,0,1-3.589.551,5.606,5.606,0,0,1-4.37-1.7c-1.15-1.2-1.564-3.174-1.564-5.8V599.218h-3.451v-3.083h3.451V590.8Z" transform="translate(-603 -183)"/><path d="M1216.918,589.878a2.508,2.508,0,0,1-5.015,0,2.467,2.467,0,0,1,2.531-2.53A2.4,2.4,0,0,1,1216.918,589.878Zm-4.509,28.523V596.135h4.049V618.4Z" transform="translate(-603 -183)"/><path d="M1243.323,607.084c0,8.235-5.705,11.823-11.087,11.823-6.027,0-10.674-4.416-10.674-11.455,0-7.453,4.877-11.823,11.042-11.823C1239,595.629,1243.323,600.275,1243.323,607.084Zm-17.666.23c0,4.876,2.807,8.557,6.763,8.557,3.864,0,6.763-3.634,6.763-8.648,0-3.773-1.886-8.558-6.671-8.558S1225.657,603.082,1225.657,607.314Z" transform="translate(-603 -183)"/><path d="M1248.427,602.162c0-2.3-.046-4.186-.184-6.027h3.588l.231,3.68h.091a8.189,8.189,0,0,1,7.361-4.186c3.083,0,7.867,1.84,7.867,9.477V618.4h-4.049V605.566c0-3.588-1.334-6.579-5.152-6.579a5.753,5.753,0,0,0-5.429,4.141,5.822,5.822,0,0,0-.275,1.886V618.4h-4.049Z" transform="translate(-603 -183)"/><path d="M719.459,643.8h-9.431v-3.4h22.956v3.4h-9.477v27.6h-4.048Z" transform="translate(-603 -183)"/><path d="M734.224,656.082c0-2.622-.046-4.876-.184-6.946h3.543l.138,4.37h.183a6.682,6.682,0,0,1,6.165-4.876,4.373,4.373,0,0,1,1.15.138v3.818a6.081,6.081,0,0,0-1.38-.138c-2.852,0-4.876,2.162-5.428,5.2a11.3,11.3,0,0,0-.184,1.887V671.4h-4Z" transform="translate(-603 -183)"/><path d="M761.366,671.4l-.323-2.806h-.138a8.293,8.293,0,0,1-6.808,3.312c-4.509,0-6.809-3.175-6.809-6.394,0-5.383,4.784-8.327,13.387-8.282v-.46c0-1.839-.506-5.152-5.06-5.152a11.094,11.094,0,0,0-5.8,1.656l-.92-2.669a13.821,13.821,0,0,1,7.315-1.977c6.808,0,8.465,4.646,8.465,9.108v8.327a31.352,31.352,0,0,0,.368,5.337Zm-.6-11.363c-4.417-.092-9.432.69-9.432,5.015a3.582,3.582,0,0,0,3.819,3.864,5.541,5.541,0,0,0,5.383-3.727,4.255,4.255,0,0,0,.23-1.288Z" transform="translate(-603 -183)"/><path d="M771.208,655.162c0-2.3-.046-4.186-.184-6.026h3.588l.23,3.68h.093a8.187,8.187,0,0,1,7.36-4.186c3.082,0,7.867,1.84,7.867,9.476v13.3h-4.048V658.566c0-3.587-1.335-6.578-5.153-6.578a5.751,5.751,0,0,0-5.428,4.14,5.826,5.826,0,0,0-.277,1.887V671.4h-4.048Z" transform="translate(-603 -183)"/><path d="M796.186,667.262a10.609,10.609,0,0,0,5.336,1.61c2.945,0,4.325-1.473,4.325-3.312,0-1.933-1.15-2.991-4.14-4.095-4-1.426-5.889-3.635-5.889-6.3,0-3.588,2.9-6.532,7.682-6.532a11.1,11.1,0,0,1,5.475,1.38l-1.012,2.944a8.665,8.665,0,0,0-4.554-1.288c-2.393,0-3.727,1.38-3.727,3.036,0,1.84,1.334,2.668,4.233,3.773,3.864,1.472,5.842,3.4,5.842,6.716,0,3.911-3.036,6.671-8.327,6.671a12.7,12.7,0,0,1-6.256-1.518Z" transform="translate(-603 -183)"/><path d="M827.283,671.4l-.322-2.806h-.138a8.3,8.3,0,0,1-6.809,3.312c-4.508,0-6.808-3.175-6.808-6.394,0-5.383,4.784-8.327,13.387-8.282v-.46c0-1.839-.506-5.152-5.061-5.152a11.093,11.093,0,0,0-5.8,1.656l-.921-2.669a13.824,13.824,0,0,1,7.315-1.977c6.809,0,8.465,4.646,8.465,9.108v8.327a31.455,31.455,0,0,0,.368,5.337Zm-.6-11.363c-4.416-.092-9.431.69-9.431,5.015a3.582,3.582,0,0,0,3.818,3.864,5.54,5.54,0,0,0,5.383-3.727,4.225,4.225,0,0,0,.23-1.288Z" transform="translate(-603 -183)"/><path d="M853,670.574a14.919,14.919,0,0,1-6.395,1.288c-6.717,0-11.087-4.554-11.087-11.363,0-6.854,4.693-11.823,11.961-11.823a13.535,13.535,0,0,1,5.613,1.149l-.92,3.129a9.389,9.389,0,0,0-4.693-1.058c-5.106,0-7.867,3.772-7.867,8.418,0,5.154,3.313,8.328,7.729,8.328a11.5,11.5,0,0,0,4.969-1.1Z" transform="translate(-603 -183)"/><path d="M863.207,642.741v6.395H869v3.082h-5.8v12.008c0,2.759.782,4.324,3.037,4.324a8.959,8.959,0,0,0,2.346-.277l.184,3.038a9.935,9.935,0,0,1-3.588.551,5.61,5.61,0,0,1-4.371-1.7c-1.15-1.2-1.565-3.175-1.565-5.8V652.218H855.8v-3.082h3.45V643.8Z" transform="translate(-603 -183)"/><path d="M878.064,642.879a2.507,2.507,0,0,1-5.014,0,2.467,2.467,0,0,1,2.531-2.53A2.4,2.4,0,0,1,878.064,642.879ZM873.556,671.4V649.136H877.6V671.4Z" transform="translate(-603 -183)"/><path d="M904.47,660.085c0,8.234-5.7,11.823-11.087,11.823-6.027,0-10.674-4.417-10.674-11.455,0-7.453,4.877-11.823,11.042-11.823C900.146,648.63,904.47,653.276,904.47,660.085Zm-17.666.229c0,4.877,2.806,8.558,6.763,8.558,3.864,0,6.763-3.635,6.763-8.649,0-3.773-1.887-8.557-6.671-8.557S886.8,656.082,886.8,660.314Z" transform="translate(-603 -183)"/><path d="M909.574,655.162c0-2.3-.046-4.186-.184-6.026h3.588l.23,3.68h.092a8.188,8.188,0,0,1,7.361-4.186c3.082,0,7.867,1.84,7.867,9.476v13.3h-4.049V658.566c0-3.587-1.333-6.578-5.152-6.578a5.752,5.752,0,0,0-5.429,4.14,5.827,5.827,0,0,0-.276,1.887V671.4h-4.048Z" transform="translate(-603 -183)"/><path d="M719.127,697.8H709.7v-3.4h22.956v3.4h-9.477v27.6h-4.048Z" transform="translate(-603 -183)"/><path d="M733.892,710.082c0-2.622-.046-4.877-.184-6.947h3.542l.139,4.371h.183a6.682,6.682,0,0,1,6.165-4.877,4.373,4.373,0,0,1,1.15.138v3.819a6.02,6.02,0,0,0-1.38-.139c-2.852,0-4.876,2.162-5.428,5.2a11.287,11.287,0,0,0-.184,1.886V725.4h-4Z" transform="translate(-603 -183)"/><path d="M761.034,725.4l-.323-2.8h-.138a8.292,8.292,0,0,1-6.808,3.311c-4.509,0-6.809-3.174-6.809-6.394,0-5.383,4.784-8.327,13.387-8.281v-.461c0-1.839-.506-5.152-5.06-5.152a11.1,11.1,0,0,0-5.8,1.656l-.92-2.668a13.821,13.821,0,0,1,7.315-1.978c6.808,0,8.465,4.646,8.465,9.109v8.327a31.34,31.34,0,0,0,.368,5.336Zm-.6-11.363c-4.417-.092-9.432.691-9.432,5.015a3.582,3.582,0,0,0,3.819,3.864,5.54,5.54,0,0,0,5.383-3.727,4.255,4.255,0,0,0,.23-1.288Z" transform="translate(-603 -183)"/><path d="M770.876,709.162c0-2.3-.046-4.186-.184-6.027h3.588l.23,3.68h.093a8.187,8.187,0,0,1,7.36-4.186c3.082,0,7.867,1.84,7.867,9.477V725.4h-4.048V712.566c0-3.588-1.335-6.579-5.153-6.579a5.752,5.752,0,0,0-5.428,4.141,5.819,5.819,0,0,0-.277,1.886V725.4h-4.048Z" transform="translate(-603 -183)"/><path d="M795.854,721.261a10.609,10.609,0,0,0,5.336,1.61c2.945,0,4.325-1.472,4.325-3.312,0-1.932-1.15-2.991-4.14-4.094-4-1.427-5.889-3.635-5.889-6.3,0-3.589,2.9-6.533,7.682-6.533a11.114,11.114,0,0,1,5.475,1.38l-1.012,2.944a8.665,8.665,0,0,0-4.554-1.288c-2.393,0-3.727,1.381-3.727,3.037,0,1.84,1.334,2.668,4.233,3.773,3.864,1.471,5.842,3.4,5.842,6.715,0,3.912-3.036,6.671-8.327,6.671a12.7,12.7,0,0,1-6.256-1.517Z" transform="translate(-603 -183)"/><path d="M826.951,725.4l-.322-2.8h-.138a8.294,8.294,0,0,1-6.809,3.311c-4.508,0-6.808-3.174-6.808-6.394,0-5.383,4.784-8.327,13.387-8.281v-.461c0-1.839-.506-5.152-5.061-5.152a11.1,11.1,0,0,0-5.8,1.656l-.921-2.668a13.824,13.824,0,0,1,7.315-1.978c6.809,0,8.465,4.646,8.465,9.109v8.327a31.34,31.34,0,0,0,.368,5.336Zm-.6-11.363c-4.416-.092-9.431.691-9.431,5.015a3.582,3.582,0,0,0,3.818,3.864,5.539,5.539,0,0,0,5.383-3.727,4.225,4.225,0,0,0,.23-1.288Z" transform="translate(-603 -183)"/><path d="M852.665,724.573a14.9,14.9,0,0,1-6.395,1.288c-6.717,0-11.087-4.553-11.087-11.363,0-6.854,4.692-11.823,11.961-11.823a13.533,13.533,0,0,1,5.613,1.15l-.92,3.128a9.39,9.39,0,0,0-4.693-1.057c-5.106,0-7.867,3.772-7.867,8.418,0,5.153,3.313,8.328,7.729,8.328a11.5,11.5,0,0,0,4.969-1.105Z" transform="translate(-603 -183)"/><path d="M862.875,696.74v6.395h5.8v3.083h-5.8v12.007c0,2.76.782,4.324,3.037,4.324a9.011,9.011,0,0,0,2.346-.276l.184,3.037a9.917,9.917,0,0,1-3.588.551,5.607,5.607,0,0,1-4.371-1.7c-1.15-1.2-1.565-3.174-1.565-5.8V706.218h-3.45v-3.083h3.45V697.8Z" transform="translate(-603 -183)"/><path d="M877.732,696.878a2.507,2.507,0,0,1-5.014,0,2.467,2.467,0,0,1,2.531-2.53A2.4,2.4,0,0,1,877.732,696.878ZM873.224,725.4V703.135h4.048V725.4Z" transform="translate(-603 -183)"/><path d="M904.138,714.084c0,8.235-5.7,11.823-11.087,11.823-6.027,0-10.674-4.416-10.674-11.455,0-7.453,4.877-11.823,11.042-11.823C899.813,702.629,904.138,707.275,904.138,714.084Zm-17.666.23c0,4.876,2.806,8.557,6.763,8.557,3.864,0,6.763-3.634,6.763-8.648,0-3.773-1.887-8.558-6.671-8.558S886.472,710.082,886.472,714.314Z" transform="translate(-603 -183)"/><path d="M909.242,709.162c0-2.3-.046-4.186-.184-6.027h3.588l.23,3.68h.092a8.188,8.188,0,0,1,7.361-4.186c3.082,0,7.867,1.84,7.867,9.477V725.4h-4.049V712.566c0-3.588-1.334-6.579-5.152-6.579a5.753,5.753,0,0,0-5.429,4.141,5.82,5.82,0,0,0-.276,1.886V725.4h-4.048Z" transform="translate(-603 -183)"/><path d="M712.134,773.01a2.721,2.721,0,0,1,2.761-2.9,2.9,2.9,0,1,1-2.761,2.9Z" transform="translate(-603 -183)"/><path d="M721.656,773.01a2.721,2.721,0,0,1,2.761-2.9,2.9,2.9,0,1,1-2.761,2.9Z" transform="translate(-603 -183)"/><path d="M731.177,773.01a2.721,2.721,0,0,1,2.76-2.9,2.9,2.9,0,1,1-2.76,2.9Z" transform="translate(-603 -183)"/><path d="M740.7,773.01a2.721,2.721,0,0,1,2.76-2.9,2.9,2.9,0,1,1-2.76,2.9Z" transform="translate(-603 -183)"/><path d="M669.187,813.864H657.133v11.179h13.434V828.4H653.131V797.4h16.745v3.358H657.133v9.8h12.054Z" transform="translate(-603 -183)"/><path d="M675.624,812.162c0-2.3-.046-4.186-.184-6.027h3.588l.23,3.68h.093a8.187,8.187,0,0,1,7.36-4.186c3.082,0,7.867,1.84,7.867,9.477V828.4H690.53V815.566c0-3.588-1.335-6.579-5.153-6.579a5.752,5.752,0,0,0-5.428,4.141,5.819,5.819,0,0,0-.277,1.886V828.4h-4.048Z" transform="translate(-603 -183)"/><path d="M720.384,795.738v26.913c0,1.978.046,4.233.184,5.75h-3.634l-.184-3.864h-.092a8.237,8.237,0,0,1-7.591,4.37c-5.383,0-9.524-4.553-9.524-11.316-.045-7.407,4.555-11.962,9.984-11.962,3.4,0,5.7,1.61,6.717,3.4h.091V795.738Zm-4.049,19.46a7.1,7.1,0,0,0-.184-1.7,5.953,5.953,0,0,0-5.842-4.692c-4.186,0-6.671,3.679-6.671,8.6,0,4.509,2.208,8.236,6.579,8.236a6.085,6.085,0,0,0,5.934-4.831,6.988,6.988,0,0,0,.184-1.749Z" transform="translate(-603 -183)"/><path d="M740.991,800.8H731.56v-3.4h22.956v3.4h-9.477v27.6h-4.048Z" transform="translate(-603 -183)"/><path d="M755.756,813.082c0-2.622-.046-4.877-.184-6.947h3.542l.138,4.371h.184a6.682,6.682,0,0,1,6.165-4.877,4.378,4.378,0,0,1,1.15.138v3.819a6.02,6.02,0,0,0-1.38-.139c-2.852,0-4.877,2.162-5.429,5.2a11.394,11.394,0,0,0-.184,1.886V828.4h-4Z" transform="translate(-603 -183)"/><path d="M782.9,828.4l-.322-2.8h-.138a8.293,8.293,0,0,1-6.809,3.311c-4.508,0-6.808-3.174-6.808-6.394,0-5.383,4.784-8.327,13.387-8.281v-.461c0-1.839-.506-5.152-5.061-5.152a11.1,11.1,0,0,0-5.8,1.656l-.92-2.668a13.819,13.819,0,0,1,7.315-1.978c6.808,0,8.464,4.646,8.464,9.109v8.327a31.334,31.334,0,0,0,.369,5.336Zm-.6-11.363c-4.416-.092-9.431.691-9.431,5.015a3.582,3.582,0,0,0,3.819,3.864,5.539,5.539,0,0,0,5.382-3.727,4.225,4.225,0,0,0,.23-1.288Z" transform="translate(-603 -183)"/><path d="M792.74,812.162c0-2.3-.046-4.186-.184-6.027h3.588l.23,3.68h.092a8.188,8.188,0,0,1,7.361-4.186c3.082,0,7.867,1.84,7.867,9.477V828.4h-4.048V815.566c0-3.588-1.334-6.579-5.153-6.579a5.753,5.753,0,0,0-5.429,4.141,5.82,5.82,0,0,0-.276,1.886V828.4H792.74Z" transform="translate(-603 -183)"/><path d="M817.717,824.261a10.616,10.616,0,0,0,5.337,1.61c2.945,0,4.324-1.472,4.324-3.312,0-1.932-1.149-2.991-4.14-4.094-4-1.427-5.888-3.635-5.888-6.3,0-3.589,2.9-6.533,7.682-6.533a11.114,11.114,0,0,1,5.475,1.38l-1.012,2.944a8.666,8.666,0,0,0-4.555-1.288c-2.392,0-3.726,1.381-3.726,3.037,0,1.84,1.334,2.668,4.232,3.773,3.865,1.471,5.843,3.4,5.843,6.715,0,3.912-3.037,6.671-8.327,6.671a12.7,12.7,0,0,1-6.256-1.517Z" transform="translate(-603 -183)"/><path d="M848.815,828.4l-.322-2.8h-.139a8.292,8.292,0,0,1-6.808,3.311c-4.508,0-6.809-3.174-6.809-6.394,0-5.383,4.784-8.327,13.388-8.281v-.461c0-1.839-.506-5.152-5.061-5.152a11.1,11.1,0,0,0-5.8,1.656l-.921-2.668a13.824,13.824,0,0,1,7.315-1.978c6.809,0,8.465,4.646,8.465,9.109v8.327a31.34,31.34,0,0,0,.368,5.336Zm-.6-11.363c-4.417-.092-9.431.691-9.431,5.015a3.582,3.582,0,0,0,3.818,3.864,5.54,5.54,0,0,0,5.383-3.727,4.225,4.225,0,0,0,.23-1.288Z" transform="translate(-603 -183)"/><path d="M874.528,827.573a14.9,14.9,0,0,1-6.394,1.288c-6.717,0-11.088-4.553-11.088-11.363,0-6.854,4.693-11.823,11.962-11.823a13.537,13.537,0,0,1,5.613,1.15l-.921,3.128a9.389,9.389,0,0,0-4.692-1.057c-5.107,0-7.867,3.772-7.867,8.418,0,5.153,3.313,8.328,7.729,8.328a11.5,11.5,0,0,0,4.968-1.105Z" transform="translate(-603 -183)"/><path d="M884.739,799.74v6.395h5.8v3.083h-5.8v12.007c0,2.76.782,4.324,3.036,4.324a9.02,9.02,0,0,0,2.347-.276l.184,3.037a9.923,9.923,0,0,1-3.589.551,5.6,5.6,0,0,1-4.37-1.7c-1.151-1.2-1.565-3.174-1.565-5.8V809.218h-3.45v-3.083h3.45V800.8Z" transform="translate(-603 -183)"/><path d="M899.6,799.878a2.507,2.507,0,0,1-5.014,0,2.467,2.467,0,0,1,2.53-2.53A2.4,2.4,0,0,1,899.6,799.878ZM895.088,828.4V806.135h4.048V828.4Z" transform="translate(-603 -183)"/><path d="M926,817.084c0,8.235-5.7,11.823-11.087,11.823-6.027,0-10.674-4.416-10.674-11.455,0-7.453,4.877-11.823,11.042-11.823C921.677,805.629,926,810.275,926,817.084Zm-17.666.23c0,4.876,2.806,8.557,6.763,8.557,3.864,0,6.762-3.634,6.762-8.648,0-3.773-1.886-8.558-6.671-8.558S908.336,813.082,908.336,817.314Z" transform="translate(-603 -183)"/><path d="M931.105,812.162c0-2.3-.045-4.186-.184-6.027h3.589l.23,3.68h.092a8.188,8.188,0,0,1,7.361-4.186c3.082,0,7.867,1.84,7.867,9.477V828.4h-4.049V815.566c0-3.588-1.334-6.579-5.153-6.579a5.752,5.752,0,0,0-5.428,4.141,5.82,5.82,0,0,0-.276,1.886V828.4h-4.049Z" transform="translate(-603 -183)"/><path d="M956.083,824.261a10.613,10.613,0,0,0,5.337,1.61c2.944,0,4.324-1.472,4.324-3.312,0-1.932-1.15-2.991-4.14-4.094-4-1.427-5.889-3.635-5.889-6.3,0-3.589,2.9-6.533,7.682-6.533a11.114,11.114,0,0,1,5.475,1.38l-1.012,2.944a8.665,8.665,0,0,0-4.554-1.288c-2.392,0-3.726,1.381-3.726,3.037,0,1.84,1.334,2.668,4.232,3.773,3.864,1.471,5.842,3.4,5.842,6.715,0,3.912-3.036,6.671-8.327,6.671a12.7,12.7,0,0,1-6.256-1.517Z" transform="translate(-603 -183)"/><path d="M911.655,248.007a38.791,38.791,0,0,1,7.315-.644c4,0,6.579.69,8.511,2.254a6.5,6.5,0,0,1,2.576,5.475c0,2.99-1.978,5.613-5.245,6.809v.092a7.992,7.992,0,0,1,6.4,7.775,8.362,8.362,0,0,1-2.623,6.211c-2.162,1.978-5.659,2.9-10.719,2.9a47,47,0,0,1-6.211-.367Zm4,12.7h3.634c4.232,0,6.717-2.209,6.717-5.2,0-3.634-2.76-5.061-6.809-5.061a17.166,17.166,0,0,0-3.542.276Zm0,14.859a21.376,21.376,0,0,0,3.358.184c4.14,0,7.959-1.518,7.959-6.026,0-4.233-3.635-5.981-8-5.981h-3.312Z" transform="translate(-603 -183)"/><path d="M936.449,245.937H940.5V278.6h-4.048Z" transform="translate(-603 -183)"/><path d="M967.455,267.283c0,8.235-5.705,11.823-11.088,11.823-6.027,0-10.673-4.416-10.673-11.455,0-7.452,4.877-11.823,11.041-11.823C963.13,255.828,967.455,260.475,967.455,267.283Zm-17.666.23c0,4.877,2.806,8.557,6.762,8.557,3.865,0,6.763-3.634,6.763-8.649,0-3.772-1.886-8.557-6.671-8.557S949.789,263.281,949.789,267.513Z" transform="translate(-603 -183)"/><path d="M988.43,277.772a14.9,14.9,0,0,1-6.395,1.289c-6.717,0-11.088-4.555-11.088-11.364,0-6.854,4.694-11.823,11.962-11.823a13.524,13.524,0,0,1,5.612,1.15l-.919,3.128a9.4,9.4,0,0,0-4.693-1.058c-5.106,0-7.866,3.773-7.866,8.419,0,5.153,3.312,8.327,7.728,8.327a11.5,11.5,0,0,0,4.969-1.1Z" transform="translate(-603 -183)"/><path d="M997.168,266.547h.092c.552-.782,1.335-1.748,1.978-2.53l6.533-7.683h4.877l-8.6,9.155,9.8,13.112h-4.922l-7.684-10.674-2.07,2.3V278.6h-4V245.937h4Z" transform="translate(-603 -183)"/></svg>