<svg id="Layer_2" data-name="Layer 2" xmlns="http://www.w3.org/2000/svg" viewBox="0 0 1470.199 313.762"><defs><style>.cls-1,.cls-7{fill:none;stroke:#000;}.cls-1{stroke-width:6px;}.cls-2{font-size:87.676px;}.cls-2,.cls-3{font-family:MyriadPro-Regular, Myriad Pro;}.cls-3{font-size:46px;}.cls-4{letter-spacing:-0.016em;}.cls-5{letter-spacing:-0.01em;}.cls-6{letter-spacing:0em;}.cls-7{stroke-miterlimit:10;stroke-width:3px;}</style></defs><rect class="cls-1" x="51.581" y="87.5" width="320" height="169"/><text class="cls-2" transform="translate(115.675 193.723)">Block</text><text x="-251.146" y="-283.5"/><text class="cls-3" transform="translate(0 302.262)">Hash (000000 + Block)</text><rect class="cls-1" x="548.854" y="87.5" width="320" height="169"/><text class="cls-2" transform="translate(612.949 193.723)">Block</text><text class="cls-3" transform="translate(607.619 73.848)"><tspan class="cls-4">P</tspan><tspan class="cls-5" x="23.736" y="0">r</tspan><tspan x="38.318" y="0">ev_Hash</tspan></text><text class="cls-3" transform="translate(140.619 73.848)">000000</text><text class="cls-3" transform="translate(466.871 302.254)">Hash (<tspan class="cls-4" x="118.724" y="0">P</tspan><tspan class="cls-5" x="142.46" y="0">r</tspan><tspan class="cls-6" x="157.042" y="0">ev_Hash + Block)</tspan></text><line class="cls-7" x1="386.854" y1="256.5" x2="577.725" y2="87.759"/><polygon points="584.354 101.866 593.854 73.5 564.538 79.451 584.354 101.866"/><rect class="cls-1" x="1067.854" y="87.5" width="320" height="169"/><text class="cls-2" transform="translate(1131.949 193.723)">Block</text><text class="cls-3" transform="translate(1126.619 73.848)"><tspan class="cls-4">P</tspan><tspan class="cls-5" x="23.736" y="0">r</tspan><tspan x="38.318" y="0">ev_Hash</tspan></text><text class="cls-3" transform="translate(985.871 302.254)">Hash (<tspan class="cls-4" x="118.724" y="0">P</tspan><tspan class="cls-5" x="142.46" y="0">r</tspan><tspan class="cls-6" x="157.042" y="0">ev_Hash + Block)</tspan></text><line class="cls-7" x1="905.854" y1="256.5" x2="1096.725" y2="87.759"/><polygon points="1103.354 101.866 1112.854 73.5 1083.538 79.451 1103.354 101.866"/></svg>