<svg id="Layer_3" data-name="Layer 3" xmlns="http://www.w3.org/2000/svg" viewBox="0 0 714 714"><defs><style>.cls-1{fill:none;stroke:#000;stroke-miterlimit:10;stroke-width:6px;}.cls-2{font-size:46px;font-family:MyriadPro-Regular, Myriad Pro;}.cls-3{letter-spacing:-0.016em;}.cls-4{letter-spacing:-0.01em;}.cls-5{letter-spacing:-0.003em;}.cls-6{letter-spacing:0em;}.cls-7{letter-spacing:-0.011em;}.cls-8{letter-spacing:-0.004em;}.cls-9{letter-spacing:-0.005em;}.cls-10{letter-spacing:0.013em;}.cls-11{letter-spacing:-0.012em;}.cls-12{letter-spacing:-0.045em;}.cls-13{letter-spacing:0.013em;}.cls-14{letter-spacing:0.004em;}.cls-15{letter-spacing:-0.041em;}.cls-16{letter-spacing:-0.005em;}.cls-17{letter-spacing:0.013em;}</style></defs><rect class="cls-1" x="3" y="3" width="708" height="708"/><text class="cls-2" transform="translate(46.729 136.1)">Block Header</text><text class="cls-2" transform="translate(106.555 190.402)"><tspan class="cls-3">P</tspan><tspan class="cls-4" x="23.736" y="0">r</tspan><tspan x="38.318" y="0">evious Block Hash</tspan></text><text class="cls-2" transform="translate(106.555 242.402)"><tspan class="cls-5">S</tspan><tspan class="cls-6" x="22.54" y="0">take </tspan><tspan class="cls-7" x="114.309" y="0">C</tspan><tspan x="140.482" y="0">o</tspan><tspan class="cls-8" x="165.736" y="0">n</tspan><tspan class="cls-6" x="191.082" y="0">t</tspan><tspan class="cls-9" x="206.308" y="0">r</tspan><tspan x="221.12" y="0">a</tspan><tspan class="cls-10" x="243.292" y="0">c</tspan><tspan class="cls-6" x="264.497" y="0">t Hash</tspan></text><text class="cls-2" transform="translate(106.556 290.402)"><tspan class="cls-11">T</tspan><tspan x="22.31" y="0">imestamp</tspan></text><text class="cls-2" transform="translate(46.555 339.402)">End Header</text><text class="cls-2" transform="translate(46.448 393.402)"><tspan class="cls-12">T</tspan><tspan class="cls-9" x="20.792" y="0">r</tspan><tspan x="35.604" y="0">ansa</tspan><tspan class="cls-13" x="123.693" y="0">c</tspan><tspan x="144.898" y="0">tions</tspan></text><text class="cls-2" transform="translate(106.634 435.402)"><tspan class="cls-7">C</tspan><tspan x="26.174" y="0">oinbase </tspan><tspan class="cls-14" x="187.079" y="0">R</tspan><tspan class="cls-6" x="212.011" y="0">e</tspan><tspan class="cls-8" x="235.057" y="0">w</tspan><tspan x="268.728" y="0">a</tspan><tspan class="cls-4" x="290.9" y="0">r</tspan><tspan x="305.482" y="0">d</tspan><tspan class="cls-15" x="331.426" y="0"> </tspan><tspan class="cls-12" x="339.292" y="0">T</tspan><tspan class="cls-16" x="360.083" y="0">r</tspan><tspan x="374.896" y="0">ansa</tspan><tspan class="cls-17" x="462.985" y="0">c</tspan><tspan x="484.191" y="0">tion</tspan></text><text class="cls-2" transform="translate(107.074 488.402)"><tspan class="cls-12">T</tspan><tspan class="cls-9" x="20.792" y="0">r</tspan><tspan x="35.604" y="0">ansa</tspan><tspan class="cls-13" x="123.693" y="0">c</tspan><tspan x="144.898" y="0">tion</tspan></text><text class="cls-2" transform="translate(106.742 542.402)"><tspan class="cls-12">T</tspan><tspan class="cls-9" x="20.792" y="0">r</tspan><tspan x="35.604" y="0">ansa</tspan><tspan class="cls-13" x="123.693" y="0">c</tspan><tspan x="144.898" y="0">tion</tspan></text><text class="cls-2" transform="translate(106.742 592.402)">....</text><text class="cls-2" transform="translate(46.634 645.402)">End<tspan class="cls-15" x="74.105" y="0"> </tspan><tspan class="cls-12" x="81.971" y="0">T</tspan><tspan class="cls-9" x="102.763" y="0">r</tspan><tspan x="117.575" y="0">ansa</tspan><tspan class="cls-13" x="205.664" y="0">c</tspan><tspan x="226.87" y="0">tions</tspan></text><text class="cls-2" transform="translate(305.159 95.601)">Block</text></svg>